<svg id="Capa_1" enable-background="new 0 0 609.646 609.646" height="512" viewBox="0 0 609.646 609.646" width="512" xmlns="http://www.w3.org/2000/svg"><g><g id="Page-1_7_"><g id="_x30_08---Searching-Land" transform="translate(-1)"><path id="Shape_15_" d="m255.063 507.961c45.48.043 90.127-12.205 129.219-35.449l28.906 28.825c8.805 8.791 23.052 8.836 31.914.102l96.147 96.147c7.606 7.657 17.949 11.968 28.741 11.98 10.792.011 21.145-4.278 28.766-11.919 15.852-15.868 15.852-41.578 0-57.447l-96.208-96.249c8.739-8.856 8.694-23.104-.102-31.903l-28.825-28.906c58.562-99.175 43.044-225.343-37.804-307.372s-206.777-99.374-306.791-42.256-149.061 174.393-119.491 285.707 130.354 188.787 245.528 188.74zm329.266 75.38c-8.028 7.652-20.657 7.625-28.652-.061l-96.198-96.198 28.713-28.713 96.198 96.198c3.814 3.82 5.951 9.001 5.94 14.4-.012 5.398-2.171 10.57-6.001 14.374zm-96.259-156.886c.44.434.686 1.028.681 1.646.003.626-.246 1.226-.691 1.666l-57.223 57.203c-.381.54-1 .862-1.661.862s-1.281-.321-1.661-.862l-25.828-25.746c23.479-16.662 43.982-37.161 60.647-60.637zm-233.007-406.19c129.062 0 233.688 104.626 233.688 233.688s-104.626 233.688-233.688 233.688-233.688-104.626-233.688-233.688c.146-129.002 104.686-233.542 233.688-233.688z"/><path id="Shape_14_" d="m255.063 467.32c117.839 0 213.367-95.528 213.367-213.367s-95.528-213.367-213.367-213.367-213.367 95.528-213.367 213.367c.134 117.784 95.583 213.233 213.367 213.367zm0-406.413c106.617 0 193.046 86.43 193.046 193.046s-86.43 193.046-193.046 193.046-193.047-86.429-193.047-193.046c.118-106.568 86.479-192.929 193.047-193.046z"/><path id="Shape_13_" d="m417.628 324.974v-40.641c.03-4.37-1.401-8.626-4.064-12.091l-45.722-60.962c-3.853-5.098-9.866-8.105-16.257-8.128h-21.469l15.86-47.591c1.169-3.515.332-7.387-2.184-10.106s-6.312-3.853-9.907-2.96l-30.308 7.569-8.077-40.387c-.826-4.111-4.092-7.292-8.223-8.009s-8.278 1.176-10.442 4.768l-21.774 36.323-21.774-36.283c-2.163-3.591-6.311-5.485-10.442-4.768s-7.397 3.898-8.223 8.009l-8.077 40.347-30.308-7.569c-3.595-.893-7.391.241-9.907 2.96s-3.353 6.591-2.184 10.106l15.86 47.591h-13.846c-5.841-.003-11.398 2.52-15.241 6.919l-53.443 61.084c-3.2 3.685-4.968 8.399-4.979 13.28v40.641c0 11.223 9.098 20.321 20.321 20.321h284.489c11.247-.04 20.338-9.177 20.321-20.423zm-304.81-20.219h284.489v20.321h-284.489zm53.342-81.283h20.625l7.844 23.531c1.147 3.448 4.047 6.023 7.607 6.754s7.239-.493 9.652-3.211 3.193-6.516 2.046-9.964l-24.629-73.886 22.698 5.669c2.682.659 5.517.197 7.852-1.279s3.968-3.839 4.523-6.544l5.019-25.035 16.958 28.276c1.968 2.872 5.226 4.588 8.707 4.588s6.739-1.717 8.707-4.588l16.958-28.276 5.019 25.035c.545 2.722 2.181 5.102 4.526 6.588 2.345 1.485 5.196 1.947 7.89 1.276l22.698-5.669-24.629 73.886c-1.147 3.448-.367 7.247 2.046 9.964 2.413 2.718 6.092 3.941 9.652 3.211s6.46-3.305 7.607-6.754l7.803-23.572h28.246l45.722 60.962h-284.489z"/><path id="Path_7_" clip-rule="evenodd" d="m255.063 203.151c-5.611 0-10.16 4.549-10.16 10.16v30.481c0 5.611 4.549 10.16 10.16 10.16s10.16-4.549 10.16-10.16v-30.481c0-5.611-4.549-10.16-10.16-10.16z" fill-rule="evenodd"/></g></g></g></svg>