<svg height="490.66667pt" viewBox="0 0 490.66667 490.66667" width="490.66667pt" xmlns="http://www.w3.org/2000/svg"><path d="m437.332031 490.667969h-234.664062c-29.421875 0-53.335938-23.9375-53.335938-53.335938v-128c0-5.886719 4.78125-10.664062 10.667969-10.664062s10.667969 4.777343 10.667969 10.664062v128c0 17.644531 14.355469 32 32 32h234.664062c17.644531 0 32-14.355469 32-32v-384c0-17.640625-14.355469-32-32-32h-234.664062c-17.644531 0-32 14.359375-32 32v128c0 5.890625-4.78125 10.667969-10.667969 10.667969s-10.667969-4.777344-10.667969-10.667969v-128c0-29.394531 23.914063-53.332031 53.335938-53.332031h234.664062c29.421875 0 53.335938 23.9375 53.335938 53.332031v384c0 29.398438-23.914063 53.335938-53.335938 53.335938zm0 0"/><path d="m352 256h-341.332031c-5.890625 0-10.667969-4.777344-10.667969-10.667969 0-5.886719 4.777344-10.664062 10.667969-10.664062h341.332031c5.886719 0 10.667969 4.777343 10.667969 10.664062 0 5.890625-4.78125 10.667969-10.667969 10.667969zm0 0"/><path d="m288 320c-2.730469 0-5.460938-1.046875-7.550781-3.113281-4.160157-4.160157-4.160157-10.925781 0-15.085938l56.46875-56.46875-56.449219-56.445312c-4.160156-4.160157-4.160156-10.925781 0-15.085938 4.160156-4.15625 10.921875-4.15625 15.082031 0l64 64c4.160157 4.160157 4.160157 10.925781 0 15.085938l-64 64c-2.089843 2.066406-4.820312 3.113281-7.550781 3.113281zm0 0"/></svg>