<svg id="Capa_1" enable-background="new 0 0 609.62 609.62" height="512" viewBox="0 0 609.62 609.62" width="512" xmlns="http://www.w3.org/2000/svg"><g><g id="Page-1_72_"><g id="_x30_73---Construction-Manager"><g clip-rule="evenodd" fill-rule="evenodd"><path id="Path_78_" d="m314.944 345.451h-20.321c-5.611 0-10.16 4.549-10.16 10.16s4.549 10.16 10.16 10.16h20.321c5.611 0 10.16-4.549 10.16-10.16s-4.548-10.16-10.16-10.16z"/><path id="Path_77_" d="m253.982 223.527c-5.611 0-10.16 4.549-10.16 10.16v10.16c0 5.611 4.549 10.16 10.16 10.16s10.16-4.549 10.16-10.16v-10.16c0-5.611-4.548-10.16-10.16-10.16z"/><path id="Path_76_" d="m355.586 254.008c5.611 0 10.16-4.549 10.16-10.16v-10.16c0-5.611-4.549-10.16-10.16-10.16s-10.16 4.549-10.16 10.16v10.16c-.001 5.612 4.548 10.16 10.16 10.16z"/><path id="Path_75_" d="m294.624 294.65h20.321c5.611 0 10.16-4.549 10.16-10.16s-4.549-10.16-10.16-10.16h-20.321c-5.611 0-10.16 4.549-10.16 10.16-.001 5.611 4.548 10.16 10.16 10.16z"/></g><path id="Shape_194_" d="m391.502 427.638c-8.697-10.272-13.889-28.723-15.149-53.85l33.001-28.886c11.022-9.641 17.347-23.57 17.354-38.213v-13.056c20.128-4.044 35.82-19.845 39.725-40s-4.752-40.673-21.913-51.941c7.654-3.11 12.662-10.545 12.67-18.807v-20.321c-.024-7.355-4.034-14.119-10.475-17.669-2.944-60.263-43.815-112.014-101.756-128.843-2.012-9.358-10.282-16.045-19.855-16.052h-40.641c-9.573.007-17.843 6.694-19.853 16.053-57.941 16.829-98.812 68.58-101.756 128.843-6.441 3.55-10.451 10.314-10.475 17.669v20.321c.012 8.258 5.02 15.688 12.67 18.797-17.169 11.266-25.831 31.787-21.925 51.948 3.905 20.16 19.603 35.964 39.737 40.004v13.065c.001 14.651 6.327 28.587 17.354 38.233l33.001 28.886c-1.26 25.106-6.452 43.557-15.149 53.85-12.893 2.855-58.402 14.611-85.347 42.887-25.401 26.651-39.046 78.235-41.251 117.545-.33 5.585 1.657 11.059 5.493 15.132s9.182 6.383 14.777 6.388h386.091c5.609.01 10.973-2.299 14.822-6.38 3.848-4.081 5.838-9.571 5.499-15.17-2.205-39.31-15.81-90.894-41.241-117.545-27.006-28.277-72.555-40.033-85.408-42.888zm2.459 37.787-38.376 38.355-27.748-27.748c20.871-2.129 40.683-10.244 57.05-23.369zm-74.292 52.752h-29.77l-8.616-12.934 23.501-23.501 23.501 23.511zm-65.687-14.397-38.365-38.335 9.144-12.761c16.359 13.119 36.159 21.234 57.02 23.369zm-50.334-21.57 35.937 35.968c7.291 7.24 18.838 7.898 26.905 1.534l7.529 11.298-5.324 58.249h-47.357l-36.913-80.084zm90.081 56.288h22.109l4.633 50.802h-31.375zm41.82-7.509 7.529-11.298c8.041 6.435 19.637 5.782 26.905-1.514l35.957-35.957 19.305 26.955-37.024 80.125h-47.347zm-162.85-348.103v-20.321h264.169v20.321zm50.802-121.518v50.395c0 5.611 4.549 10.16 10.16 10.16s10.16-4.549 10.16-10.16v-64.954c6.471-3.727 13.274-6.846 20.321-9.317v53.951c0 5.611 4.549 10.16 10.16 10.16s10.16-4.549 10.16-10.16v-71.122h40.641v71.122c0 5.611 4.549 10.16 10.16 10.16s10.16-4.549 10.16-10.16v-53.951c7.047 2.471 13.849 5.59 20.321 9.317v64.955c0 5.611 4.549 10.16 10.16 10.16s10.16-4.549 10.16-10.16v-50.396c23.309 20.782 37.712 49.748 40.215 80.876h-242.992c2.502-31.127 16.905-60.093 40.214-80.876zm-20.321 245.322v-22.2c0-5.611-4.549-10.16-10.16-10.16-14.842.124-27.59-10.522-30.112-25.149s5.924-28.928 19.951-33.781v18.289c0 5.611 4.549 10.16 10.16 10.16s10.16-4.549 10.16-10.16v-30.481h203.207v30.481c0 5.611 4.549 10.16 10.16 10.16s10.16-4.549 10.16-10.16v-18.289c14.027 4.853 22.473 19.154 19.951 33.781s-15.269 25.274-30.112 25.149c-5.611 0-10.16 4.549-10.16 10.16v22.2c-.003 8.788-3.8 17.147-10.414 22.932l-55.882 48.932c-5.558 4.856-12.686 7.534-20.067 7.539h-30.481c-7.381-.001-14.511-2.679-20.067-7.539l-55.882-48.932c-6.612-5.786-10.408-14.144-10.412-22.932zm52.946 87.165c9.253 8.091 21.126 12.553 33.417 12.558h30.481c12.305-.001 24.191-4.463 33.458-12.558l3.881-3.404c1.359 16.363 6.601 32.166 15.291 46.097-8.585 7.641-28.886 20.666-67.871 20.666s-59.336-13.056-67.851-20.656c8.696-13.937 13.941-29.747 15.301-46.118zm-144.389 195.343c1.92-34.423 13.91-81.852 35.663-104.652 14.561-13.692 32.003-23.951 51.046-30.024l-30.481 42.765c-4.279 5.917-5.055 13.674-2.032 20.321l33.031 71.559zm298.857.102 33.082-71.661c3.023-6.647 2.247-14.404-2.032-20.321l-30.583-42.846c19.056 6.078 36.509 16.347 51.076 30.054 21.784 22.82 33.773 70.228 35.693 104.773h-87.236z"/><path id="Path_74_" clip-rule="evenodd" d="m280.257 331.227c7.807 3.054 16.147 4.515 24.527 4.298 8.375.219 16.71-1.235 24.517-4.277 3.309-1.499 5.566-4.65 5.922-8.265s-1.244-7.145-4.196-9.261c-2.953-2.116-6.81-2.496-10.118-.997-10.493 3.297-21.745 3.297-32.239 0-5.109-2.323-11.134-.065-13.457 5.045-2.324 5.109-.065 11.134 5.044 13.457z" fill-rule="evenodd"/></g></g></g></svg>