<svg id="Capa_1" enable-background="new 0 0 609.62 609.62" height="512" viewBox="0 0 609.62 609.62" width="512" xmlns="http://www.w3.org/2000/svg"><g><g id="Page-1_20_"><g id="_x30_21---Crane-Wrecking-Ball"><path id="Shape_51_" d="m30.483 223.527h101.603c16.834 0 30.481-13.647 30.481-30.481v-30.481h20.321v365.772h-71.122c-28.043.034-50.768 22.759-50.802 50.802v10.16c0 11.223 9.098 20.321 20.321 20.321h284.489c11.223 0 20.321-9.098 20.321-20.321v-10.16c-.034-28.043-22.759-50.768-50.802-50.802h-71.122v-193.046h62.039c5.697-.008 11.239-1.858 15.799-5.273l53.85-40.408c6.625-4.974 10.533-12.768 10.557-21.052v-105.993h60.962v142.763c-59.501 5.432-104.206 56.7-101.488 116.386 2.719 59.686 51.9 106.678 111.648 106.678s108.929-46.992 111.648-106.678-41.987-110.954-101.488-116.386v-142.763h101.603c7.493-.001 14.377-4.126 17.912-10.732s3.149-14.622-1.005-20.857l-27.067-40.641c-3.776-5.666-10.138-9.065-16.947-9.053h-83.315l-215.938-58.93c-3.642-13.162-15.594-22.296-29.251-22.352h-20.321c-13.937.045-26.069 9.537-29.465 23.054l-155.951 58.483c-15.756 1.283-27.903 14.419-27.951 30.227v81.283c0 16.834 13.647 30.48 30.481 30.48zm538.498 193.047c0 36.985-22.279 70.329-56.449 84.482-34.17 14.154-73.501 6.33-99.654-19.822-26.153-26.153-33.976-65.484-19.822-99.654s47.497-56.449 84.482-56.449c50.477.061 91.381 40.966 91.443 91.443zm-482.464-335.291 96.371-36.14v36.14zm177.654-37.502 137.49 37.502h-137.49zm213.367 57.822h56.756l-36.435 36.435-36.435-36.435zm-136.291 40.642h-72.87l36.435-36.435zm-11.908-40.642h72.87l-36.435 36.435zm60.962 40.642 40.641-40.641h1.748l40.641 40.641zm-110.016-40.642-36.435 36.435-36.435-36.435zm-117.718 0h16.114l40.641 40.641h-56.756v-40.641zm203.207 477.536v10.16h-284.489v-10.16c0-16.834 13.647-30.481 30.481-30.481h223.527c16.834 0 30.481 13.647 30.481 30.481zm-162.565-50.801v-365.773h40.641v365.772h-40.641zm126.597-214.566c-1.039.776-2.3 1.197-3.597 1.199h-62.039v-40.641h118.236zm56.289-59.764h-121.924v-91.443h121.924zm203.206-111.763h-66.957l40.143-40.143zm-386.092-111.764c0-5.611 4.549-10.16 10.16-10.16h20.321c5.611 0 10.16 4.549 10.16 10.16v50.802h-40.641zm-182.886 81.283c0-5.611 4.549-10.16 10.16-10.16h20.321v30.481c0 5.611 4.549 10.16 10.16 10.16s10.16-4.549 10.16-10.16v-30.481h20.321v30.481c0 5.611 4.549 10.16 10.16 10.16s10.16-4.549 10.16-10.16v-30.481h30.481v91.443c0 5.611-4.549 10.16-10.16 10.16h-101.603c-5.611 0-10.16-4.549-10.16-10.16z"/><path id="Path_36_" clip-rule="evenodd" d="m311.995 185.863c-3.968-3.966-10.399-3.966-14.367 0l-10.16 10.16c-2.641 2.551-3.701 6.329-2.771 9.881s3.704 6.327 7.256 7.256c3.552.93 7.33-.129 9.881-2.771l10.16-10.16c3.968-3.967 3.968-10.398.001-14.366z" fill-rule="evenodd"/><path id="Path_35_" clip-rule="evenodd" d="m348.43 185.863-40.641 40.641c-2.641 2.551-3.701 6.329-2.771 9.881s3.704 6.327 7.256 7.256c3.552.93 7.33-.129 9.881-2.771l40.641-40.641c3.85-3.987 3.795-10.324-.124-14.243-3.918-3.918-10.255-3.973-14.242-.123z" fill-rule="evenodd"/><path id="Shape_50_" d="m467.377 345.451v10.861c-23.46 3.211-40.641 17.364-40.641 34.86s17.181 31.649 40.641 34.86v30.166c-12.07-2.347-20.321-8.514-20.321-14.225 0-5.611-4.549-10.16-10.16-10.16s-10.16 4.549-10.16 10.16c0 17.496 17.181 31.649 40.641 34.86v10.861c0 5.611 4.549 10.16 10.16 10.16s10.16-4.549 10.16-10.16v-10.861c23.46-3.211 40.641-17.364 40.641-34.86s-17.181-31.649-40.641-34.86v-30.166c12.07 2.347 20.321 8.514 20.321 14.224 0 5.611 4.549 10.16 10.16 10.16s10.16-4.549 10.16-10.16c0-17.496-17.181-31.649-40.641-34.86v-10.861c0-5.611-4.549-10.16-10.16-10.16s-10.16 4.55-10.16 10.161zm-20.32 45.722c0-5.7 8.25-11.867 20.321-14.224v28.449c-12.071-2.358-20.321-8.525-20.321-14.225zm60.962 50.802c0 5.7-8.25 11.867-20.321 14.225v-28.45c12.071 2.357 20.321 8.525 20.321 14.225z"/></g></g></g></svg>