<?xml version="1.0" standalone="no"?>
<!DOCTYPE svg PUBLIC "-//W3C//DTD SVG 20010904//EN"
 "http://www.w3.org/TR/2001/REC-SVG-20010904/DTD/svg10.dtd">
<svg version="1.0" xmlns="http://www.w3.org/2000/svg"
 width="495.000000pt" height="495.000000pt" viewBox="0 0 495.000000 495.000000"
 preserveAspectRatio="xMidYMid meet">
<metadata>
Created by potrace 1.14, written by Peter Selinger 2001-2017
</metadata>
<g transform="translate(0.000000,495.000000) scale(0.100000,-0.100000)"
fill="#000000" stroke="none">
<path d="M4 2470 l0 -2469 37 52 c21 29 36 54 34 56 -2 2 6 13 18 26 12 13 36
46 52 74 17 28 33 51 38 51 4 0 7 5 7 11 0 6 11 25 25 41 14 16 23 33 20 38
-3 4 2 11 11 14 9 4 14 9 11 12 -2 3 6 17 19 31 13 14 21 29 18 34 -3 5 -1 9
4 9 5 0 21 18 36 40 14 22 23 40 20 40 -3 0 3 8 14 18 12 9 22 23 24 31 2 7
13 25 26 39 12 14 20 27 18 29 -2 2 7 15 21 29 13 13 22 28 19 32 -3 5 4 15
15 22 10 8 19 19 19 24 0 5 9 19 19 30 11 12 21 28 23 36 2 8 5 17 8 20 14 14
60 80 56 80 -3 0 6 12 19 26 14 15 22 30 19 35 -3 5 0 9 6 9 6 0 15 11 20 25
5 14 14 25 20 25 6 0 9 4 6 9 -4 5 -3 11 1 13 12 5 53 66 53 78 0 5 3 10 8 10
8 0 39 51 38 63 -1 5 7 13 17 18 9 6 15 14 12 19 -3 4 2 11 11 14 8 3 12 10 9
16 -3 5 -2 10 4 10 5 0 27 28 47 62 21 35 46 72 56 82 10 11 18 26 18 33 0 7
5 13 11 13 5 0 8 4 5 9 -3 5 1 12 9 15 8 3 14 9 13 13 -2 5 7 19 20 33 12 13
22 30 22 37 0 7 5 13 10 13 6 0 10 6 10 14 0 8 4 16 9 18 5 2 11 10 13 18 2 8
12 23 22 33 10 9 16 17 12 17 -4 0 5 12 19 27 14 15 25 33 25 40 0 7 5 13 11
13 5 0 7 5 4 10 -3 6 -2 10 3 10 5 0 15 11 22 25 16 31 24 31 38 3 17 -32 34
-59 55 -82 9 -11 17 -26 17 -33 0 -7 4 -13 9 -13 5 0 16 -16 26 -36 9 -19 23
-38 31 -41 8 -3 12 -9 9 -13 -3 -5 6 -22 20 -38 14 -16 25 -33 25 -36 0 -4 9
-16 20 -28 11 -12 20 -28 20 -35 0 -7 3 -13 8 -13 4 0 16 -16 26 -35 11 -19
23 -35 28 -35 5 0 6 -4 3 -10 -3 -5 -1 -10 4 -10 6 0 11 -7 11 -15 0 -8 4 -15
9 -15 5 0 16 -16 26 -36 9 -19 23 -38 31 -41 8 -3 12 -9 9 -13 -3 -5 2 -15 10
-23 8 -9 15 -20 15 -26 0 -6 5 -11 10 -11 6 0 10 -6 10 -13 0 -7 9 -23 20 -35
11 -12 20 -26 20 -32 0 -5 5 -10 10 -10 6 0 10 -7 10 -15 0 -8 5 -15 10 -15 6
0 10 -7 10 -16 0 -9 5 -12 12 -8 7 4 8 3 4 -4 -4 -6 2 -20 13 -31 11 -11 17
-22 14 -25 -4 -3 -2 -6 4 -6 6 0 16 -13 23 -30 7 -16 17 -27 23 -23 5 3 7 1 3
-5 -3 -6 1 -17 9 -25 8 -9 15 -20 15 -26 0 -6 5 -11 10 -11 6 0 10 -7 10 -15
0 -7 8 -19 18 -24 9 -6 13 -11 9 -11 -8 0 42 -78 77 -117 11 -13 16 -23 12
-23 -7 0 3 -14 37 -51 9 -10 18 -22 18 -26 3 -14 52 -88 63 -95 6 -4 7 -8 3
-8 -5 0 -2 -7 5 -15 29 -32 38 -45 38 -53 0 -5 17 -28 38 -52 20 -24 31 -41
24 -36 -16 10 55 -94 77 -111 8 -7 11 -13 7 -13 -4 0 8 -23 28 -50 20 -28 36
-53 36 -56 0 -8 53 -78 63 -82 4 -2 5 -8 1 -13 -3 -5 -1 -9 3 -9 11 0 43 37
43 49 0 5 7 14 15 21 9 7 14 15 11 17 -2 2 7 16 20 30 13 14 22 28 20 30 -2 2
7 16 20 30 13 14 24 30 24 35 0 5 9 18 20 30 10 12 17 25 14 30 -3 4 -1 8 4 8
9 0 62 77 62 91 0 5 5 9 10 9 6 0 10 6 10 14 0 8 3 16 8 18 11 5 62 83 62 96
0 7 4 12 9 12 8 0 47 56 60 85 2 5 8 14 13 20 5 5 24 33 42 60 79 121 166 251
176 263 6 6 7 12 3 12 -4 0 0 5 10 11 9 5 17 17 17 24 0 8 5 15 10 15 6 0 10
7 10 15 0 8 5 15 10 15 6 0 10 4 10 10 0 11 102 164 113 168 4 2 7 10 7 18 0
8 5 14 11 14 5 0 7 4 4 10 -3 5 -2 10 4 10 6 0 23 21 38 48 15 26 32 50 38 54
6 5 6 8 0 8 -5 0 -5 4 1 8 7 4 42 52 78 107 36 55 71 106 76 112 6 7 8 13 5
13 -3 0 -1 6 5 13 30 35 87 117 116 164 28 46 34 52 46 39 31 -35 38 -46 31
-46 -4 0 -3 -4 2 -8 14 -10 55 -70 55 -80 0 -5 9 -17 20 -27 11 -10 20 -23 20
-30 0 -6 8 -20 18 -31 29 -33 62 -83 62 -93 0 -5 8 -16 18 -23 9 -7 18 -19 20
-27 1 -7 9 -20 17 -28 8 -8 15 -18 15 -22 0 -4 9 -17 20 -29 12 -12 17 -22 13
-22 -4 0 -3 -4 2 -8 16 -11 55 -70 55 -82 0 -6 4 -8 10 -5 6 3 10 -1 10 -10 0
-9 6 -23 13 -30 30 -34 35 -43 30 -49 -4 -3 -1 -6 5 -6 7 0 12 -4 12 -9 0 -16
60 -101 71 -101 6 0 8 -4 5 -8 -7 -11 50 -93 59 -84 5 4 5 1 1 -5 -4 -8 4 -24
21 -40 15 -14 21 -22 13 -18 -8 5 -2 -9 15 -31 16 -21 33 -41 37 -42 5 -2 6
-8 2 -13 -3 -5 0 -9 5 -9 6 0 11 -7 11 -15 0 -9 7 -18 15 -21 8 -4 13 -9 10
-13 -2 -4 6 -18 19 -32 12 -13 24 -28 26 -34 11 -30 58 -93 65 -87 5 4 5 2 1
-5 -4 -7 2 -21 14 -33 11 -11 17 -20 13 -20 -5 0 1 -7 11 -15 11 -8 16 -15 12
-15 -9 0 33 -61 54 -77 8 -7 11 -13 7 -13 -9 0 80 -131 97 -142 6 -5 7 -8 1
-8 -5 0 -1 -7 10 -16 11 -8 19 -18 18 -22 -3 -10 79 -132 89 -132 5 0 6 -4 3
-10 -3 -5 -1 -10 4 -10 6 0 11 -6 11 -13 0 -7 9 -23 20 -35 11 -12 20 -26 20
-32 0 -5 4 -10 10 -10 6 0 10 864 10 2465 l0 2465 -703 0 -702 0 -25 -43 c-13
-23 -23 -45 -22 -49 1 -5 -3 -8 -8 -8 -6 0 -10 -6 -10 -14 0 -7 -7 -19 -15
-26 -9 -7 -13 -15 -11 -18 3 -2 -2 -11 -10 -19 -8 -8 -11 -19 -8 -25 4 -6 2
-8 -4 -4 -8 5 -29 -31 -23 -41 0 -2 -8 -12 -19 -23 -12 -12 -18 -25 -15 -30 4
-6 2 -10 -2 -10 -11 0 -47 -60 -36 -60 4 0 0 -5 -10 -11 -9 -6 -15 -14 -12
-20 4 -5 1 -9 -4 -9 -6 0 -11 -5 -11 -11 0 -6 -9 -24 -21 -40 -11 -16 -17 -29
-12 -29 4 0 3 -4 -3 -8 -11 -7 -52 -72 -76 -122 -7 -14 -17 -28 -23 -32 -6 -5
-6 -8 0 -8 6 0 6 -3 -1 -8 -12 -8 -73 -113 -72 -126 0 -5 -4 -12 -9 -15 -10
-8 -73 -110 -73 -120 0 -4 -11 -22 -25 -41 -13 -18 -22 -37 -19 -41 3 -5 1 -9
-3 -9 -10 0 -49 -71 -45 -83 1 -5 -2 -6 -8 -2 -9 6 -14 -7 -11 -27 0 -5 -3 -8
-7 -8 -8 0 -38 -55 -30 -55 1 0 -7 -11 -19 -25 -13 -13 -23 -28 -23 -32 0 -5
-11 -25 -25 -45 -13 -20 -22 -40 -19 -45 3 -4 0 -8 -6 -8 -6 0 -14 -8 -17 -17
-6 -16 -51 -94 -90 -158 -7 -11 -20 -35 -28 -54 -9 -19 -23 -40 -31 -48 -8 -8
-14 -19 -14 -25 0 -5 -9 -23 -21 -39 -11 -16 -22 -36 -23 -43 -1 -7 -10 -21
-19 -30 -9 -10 -15 -22 -12 -27 4 -5 2 -9 -2 -9 -5 0 -15 -12 -24 -26 l-16
-25 -24 45 c-13 25 -28 46 -32 46 -5 0 -6 4 -2 9 3 5 0 16 -7 23 -13 14 -21
26 -66 107 -14 25 -45 79 -69 119 -24 41 -43 78 -43 83 0 5 -3 9 -8 9 -4 0
-13 15 -21 33 -8 17 -17 34 -20 37 -4 3 -18 26 -31 53 -14 26 -29 47 -33 47
-5 0 -5 5 -2 10 3 6 -1 13 -9 16 -9 3 -14 10 -11 14 3 5 -5 19 -17 31 -13 12
-17 19 -11 15 9 -5 11 -2 7 8 -3 9 -10 16 -15 16 -5 0 -9 6 -9 14 0 8 -3 16
-7 18 -5 2 -21 29 -38 60 -16 32 -34 58 -38 58 -5 0 -6 4 -3 9 3 5 -1 14 -9
21 -8 7 -15 19 -15 26 0 8 -5 14 -12 14 -6 0 -8 3 -5 6 7 7 -29 63 -48 76 -5
4 -6 8 -2 8 11 0 -34 80 -45 80 -5 0 -7 4 -4 8 3 5 -4 19 -15 30 -11 12 -17
22 -13 22 3 0 -1 11 -10 25 -24 36 -51 83 -81 140 -15 28 -32 55 -38 60 -7 6
-13 17 -15 25 -2 8 -13 26 -25 39 -12 13 -16 21 -10 17 7 -4 -10 30 -37 74
-28 45 -50 84 -50 87 0 3 -8 12 -17 20 -10 8 -12 12 -6 8 9 -4 11 -1 7 9 -3 9
-10 16 -14 16 -5 0 -12 10 -16 22 -4 13 -23 49 -43 80 l-36 58 -700 0 -701 0
0 -2470z"/>
</g>
</svg>
