<svg display="none" xmlns="http://www.w3.org/2000/svg">

   <!-- login -->
   <symbol id="login" viewBox="0 0 490.667 490.667">
      <svg>
         <g>
            <path d="m437.332031 490.667969h-234.664062c-29.421875 0-53.335938-23.9375-53.335938-53.335938v-128c0-5.886719 4.78125-10.664062 10.667969-10.664062s10.667969 4.777343 10.667969 10.664062v128c0 17.644531 14.355469 32 32 32h234.664062c17.644531 0 32-14.355469 32-32v-384c0-17.640625-14.355469-32-32-32h-234.664062c-17.644531 0-32 14.359375-32 32v128c0 5.890625-4.78125 10.667969-10.667969 10.667969s-10.667969-4.777344-10.667969-10.667969v-128c0-29.394531 23.914063-53.332031 53.335938-53.332031h234.664062c29.421875 0 53.335938 23.9375 53.335938 53.332031v384c0 29.398438-23.914063 53.335938-53.335938 53.335938zm0 0"/><path d="m352 256h-341.332031c-5.890625 0-10.667969-4.777344-10.667969-10.667969 0-5.886719 4.777344-10.664062 10.667969-10.664062h341.332031c5.886719 0 10.667969 4.777343 10.667969 10.664062 0 5.890625-4.78125 10.667969-10.667969 10.667969zm0 0"/><path d="m288 320c-2.730469 0-5.460938-1.046875-7.550781-3.113281-4.160157-4.160157-4.160157-10.925781 0-15.085938l56.46875-56.46875-56.449219-56.445312c-4.160156-4.160157-4.160156-10.925781 0-15.085938 4.160156-4.15625 10.921875-4.15625 15.082031 0l64 64c4.160157 4.160157 4.160157 10.925781 0 15.085938l-64 64c-2.089843 2.066406-4.820312 3.113281-7.550781 3.113281zm0 0"/>
         </g>
      </svg>
   </symbol>

   <!-- telegram -->
   <symbol id="telegram" viewBox="0 0 24 24">
      <svg>
         <g>
            <path d="m9.417 15.181-.397 5.584c.568 0 .814-.244 1.109-.537l2.663-2.545 5.518 4.041c1.012.564 1.725.267 1.998-.931l3.622-16.972.001-.001c.321-1.496-.541-2.081-1.527-1.714l-21.29 8.151c-1.453.564-1.431 1.374-.247 1.741l5.443 1.693 12.643-7.911c.595-.394 1.136-.176.691.218z"/>
         </g>
      </svg>
   </symbol>

   <!-- wa -->
   <symbol id="wa" viewBox="0 0 512 512">
      <svg>
         <g>
            <path d="M256.064,0h-0.128C114.784,0,0,114.816,0,256c0,56,18.048,107.904,48.736,150.048l-31.904,95.104l98.4-31.456
            C155.712,496.512,204,512,256.064,512C397.216,512,512,397.152,512,256S397.216,0,256.064,0z M405.024,361.504
            c-6.176,17.44-30.688,31.904-50.24,36.128c-13.376,2.848-30.848,5.12-89.664-19.264C189.888,347.2,141.44,270.752,137.664,265.792
            c-3.616-4.96-30.4-40.48-30.4-77.216s18.656-54.624,26.176-62.304c6.176-6.304,16.384-9.184,26.176-9.184
            c3.168,0,6.016,0.16,8.576,0.288c7.52,0.32,11.296,0.768,16.256,12.64c6.176,14.88,21.216,51.616,23.008,55.392
            c1.824,3.776,3.648,8.896,1.088,13.856c-2.4,5.12-4.512,7.392-8.288,11.744c-3.776,4.352-7.36,7.68-11.136,12.352
            c-3.456,4.064-7.36,8.416-3.008,15.936c4.352,7.36,19.392,31.904,41.536,51.616c28.576,25.44,51.744,33.568,60.032,37.024
            c6.176,2.56,13.536,1.952,18.048-2.848c5.728-6.176,12.8-16.416,20-26.496c5.12-7.232,11.584-8.128,18.368-5.568
            c6.912,2.4,43.488,20.48,51.008,24.224c7.52,3.776,12.48,5.568,14.304,8.736C411.2,329.152,411.2,344.032,405.024,361.504z"/>
         </g>
      </svg>
   </symbol>

</svg>