<svg id="Capa_1" enable-background="new 0 0 609.631 609.631" height="512" viewBox="0 0 609.631 609.631" width="512" xmlns="http://www.w3.org/2000/svg"><g><g id="Page-1_6_"><g id="_x30_07---Semi-House-Plot" transform="translate(-1)"><path id="Path_6_" clip-rule="evenodd" d="m305.815 293.229c-5.611 0-10.16 4.549-10.16 10.16v10.16c0 5.611 4.549 10.16 10.16 10.16s10.16-4.549 10.16-10.16v-10.16c.001-5.611-4.548-10.16-10.16-10.16z" fill-rule="evenodd"/><path id="Path_5_" clip-rule="evenodd" d="m305.815 344.031c-5.611 0-10.16 4.549-10.16 10.16v10.16c0 5.611 4.549 10.16 10.16 10.16s10.16-4.549 10.16-10.16v-10.16c.001-5.611-4.548-10.16-10.16-10.16z" fill-rule="evenodd"/><path id="Shape_12_" d="m604.123 461.251-115.422-107.121v-104.346c2.803-.551 5.458-1.686 7.793-3.333l16.592-11.827c9.129-6.526 11.24-19.217 4.714-28.347l-18.939-26.458v-89.796c0-11.223-9.098-20.321-20.321-20.321h-20.32c-11.223 0-20.321 9.098-20.321 20.321v4.46l-24.11-33.753c-3.815-5.336-9.971-8.503-16.531-8.503s-12.716 3.167-16.531 8.503l-74.912 104.865-74.912-104.865c-3.815-5.336-9.971-8.503-16.531-8.503s-12.716 3.167-16.531 8.503l-24.11 33.753v-4.46c0-11.223-9.098-20.321-20.321-20.321h-20.32c-11.223 0-20.321 9.098-20.321 20.321v89.797l-18.909 26.467c-6.525 9.12-4.429 21.802 4.684 28.337l16.592 11.867c2.333 1.646 4.99 2.779 7.793 3.322v105.668l-115.462 105.81c-3.728 3.563-5.943 8.423-6.188 13.574-.123.409-.214.827-.274 1.25v60.962c-.124 5.426 1.978 10.667 5.816 14.505s9.079 5.939 14.505 5.816h568.979c5.426.124 10.667-1.978 14.505-5.816s5.939-9.079 5.816-14.505v-60.962c-.055-.401-.136-.798-.244-1.189-.228-5.199-2.474-10.104-6.259-13.675zm-186.544-56.258h-50.802v-81.283c0-5.611 4.549-10.16 10.16-10.16h30.481c5.611 0 10.16 4.549 10.16 10.16v81.283zm-10.16-111.764h-30.481c-16.834 0-30.481 13.647-30.481 30.481v81.283h-30.481c0-5.611-4.549-10.16-10.16-10.16s-10.16 4.549-10.16 10.16h-30.481v-81.283c0-16.834-13.647-30.481-30.481-30.481h-30.481c-16.834 0-30.481 13.647-30.481 30.481v81.283h-30.482v-163.012c.071-.102.163-.163.224-.264l70.899-99.246 73.093 102.335c2.159 2.997 5.024 5.416 8.342 7.041 0 .264-.152.478-.152.742v10.16c0 5.611 4.549 10.16 10.16 10.16s10.16-4.549 10.16-10.16v-10.16c0-.264-.132-.478-.152-.742 3.317-1.625 6.183-4.044 8.342-7.041l73.093-102.335 70.899 99.256c.061.091.152.163.224.254v163.012h-30.482v-81.283c0-16.834-13.647-30.481-30.481-30.481zm-162.566 111.764h-50.802v-81.283c0-5.611 4.549-10.16 10.16-10.16h30.481c5.611 0 10.16 4.549 10.16 10.16v81.283zm213.367-314.97h20.321v61.348l-20.321-28.449zm-325.13 0h20.321v32.909l-20.321 28.449zm-22.688 128.02 103.97-145.506 83.183 116.437c1.992 2.535 5.037 4.014 8.26 4.014s6.269-1.48 8.26-4.014l83.183-116.437 103.971 145.506-16.592 11.867-79.119-110.829c-1.992-2.535-5.037-4.014-8.26-4.014-3.224 0-6.269 1.48-8.26 4.014l-81.344 113.887c-.445.558-1.12.882-1.834.882s-1.389-.325-1.834-.882l-81.354-113.887c-1.908-2.664-4.984-4.244-8.26-4.244-3.277 0-6.352 1.58-8.26 4.244l-79.119 110.829zm32.848 207.271h325.131c11.223 0 20.321-9.098 20.321-20.321v-23.145l101.603 94.268-568.979.071v-.071l101.603-93.15v22.028c0 11.222 9.098 20.32 20.321 20.32zm-121.924 111.763v-40.641h568.979v40.641z"/></g></g></g></svg>