<svg height="512" viewBox="0 0 64 64" width="512" xmlns="http://www.w3.org/2000/svg"><g id="Smart_home" data-name="Smart home"><path d="m43 56h-1v-28.36l3.463 2.2a1 1 0 0 0 1.537-.84v-4a1 1 0 0 0 -.463-.844l-22-14a1 1 0 0 0 -1.074 0l-22 14a1 1 0 0 0 -.463.844v4a1 1 0 0 0 1.537.844l3.463-2.204v28.36h-1a3 3 0 0 0 0 6h38a3 3 0 0 0 0-6zm-40-30.451 21-13.363 21 13.363v1.63l-20.463-13.023a1 1 0 0 0 -1.074 0l-20.463 13.023zm5 .818 16-10.181 16 10.181v29.633h-9v-17a1 1 0 0 0 -1-1h-12a1 1 0 0 0 -1 1v17h-9zm21 29.633h-10v-16h10zm14 4h-38a1 1 0 0 1 0-2h38a1 1 0 0 1 0 2z"/><path d="m59 32h-10a3 3 0 0 0 -3 3v16a3 3 0 0 0 3 3h10a3 3 0 0 0 3-3v-16a3 3 0 0 0 -3-3zm-10 2h10a1 1 0 0 1 1 1v10h-12v-10a1 1 0 0 1 1-1zm10 18h-10a1 1 0 0 1 -1-1v-4h12v4a1 1 0 0 1 -1 1z"/><path d="m44 4a12.95 12.95 0 0 1 9.194 3.809l1.412-1.418a15 15 0 0 0 -21.212 0l1.412 1.418a12.95 12.95 0 0 1 9.194-3.809z"/><path d="m44 6a10.929 10.929 0 0 0 -7.777 3.223l1.414 1.414a9 9 0 0 1 12.726 0l1.414-1.414a10.929 10.929 0 0 0 -7.777-3.223z"/><path d="m48.95 12.056a6.987 6.987 0 0 0 -9.9 0l1.42 1.408a4.988 4.988 0 0 1 7.06 0z"/><path d="m41 17a3 3 0 1 0 3-3 3 3 0 0 0 -3 3zm4 0a1 1 0 1 1 -1-1 1 1 0 0 1 1 1z"/><path d="m49 16h2v2h-2z"/><path d="m53 16h2v2h-2z"/><path d="m53 20h2v2h-2z"/><path d="m53 24h2v2h-2z"/><path d="m53 28h2v2h-2z"/><path d="m53 49h2v2h-2z"/><path d="m57 38h2v-2a1 1 0 0 0 -1-1h-2v2h1z"/><path d="m25 47h2v2h-2z"/></g></svg>