<svg id="Capa_1" enable-background="new 0 0 609.62 609.62" height="512" viewBox="0 0 609.62 609.62" width="512" xmlns="http://www.w3.org/2000/svg"><g><g id="Page-1_75_"><g id="_x30_76---Construction-Conversation"><path id="Shape_202_" d="m558.819 5.08h-304.81c-28.043.034-50.768 22.759-50.802 50.802v162.565h-152.405c-28.043.034-50.768 22.759-50.802 50.802v223.527c.03 23.375 15.979 43.725 38.67 49.339l-7.387 36.445c-1.78 6.138-.569 12.755 3.27 17.865 3.839 5.109 9.857 8.115 16.248 8.115 3.712-.016 7.353-1.011 10.557-2.886l93.932-58.076h200.321c28.043-.034 50.768-22.759 50.802-50.802v-162.565h47.916l94.237 58.188c7.204 4.178 16.228 3.538 22.769-1.615 6.371-4.849 9.204-13.051 7.183-20.798l-7.569-37.248c22.694-5.603 38.647-25.953 38.67-49.328v-223.528c-.032-28.043-22.757-50.768-50.8-50.802zm-172.726 487.696c0 16.834-13.647 30.481-30.481 30.481h-203.207c-1.884 0-3.731.524-5.334 1.514l-96.066 58.646 9.744-47.957c.613-2.99-.149-6.096-2.078-8.462-1.928-2.365-4.818-3.739-7.869-3.741-16.834 0-30.481-13.647-30.481-30.481v-223.527c0-16.834 13.647-30.481 30.481-30.481h304.81c16.834 0 30.481 13.647 30.481 30.481zm203.207-213.367c0 16.834-13.647 30.481-30.481 30.481-3.05.002-5.937 1.375-7.865 3.738s-2.692 5.467-2.082 8.455l10.11 48.881-96.432-59.55c-1.602-.993-3.449-1.521-5.334-1.524h-50.802v-40.641c-.034-28.043-22.759-50.768-50.802-50.802h-132.085v-162.565c0-16.834 13.647-30.481 30.481-30.481h304.81c16.834 0 30.481 13.647 30.481 30.481v223.527z"/><path id="Shape_201_" d="m406.414 127.004c-16.834 0-30.481 13.647-30.481 30.481s13.647 30.481 30.481 30.481 30.481-13.647 30.481-30.481-13.647-30.481-30.481-30.481zm0 40.642c-5.611 0-10.16-4.549-10.16-10.16s4.549-10.16 10.16-10.16 10.16 4.549 10.16 10.16-4.549 10.16-10.16 10.16z"/><path id="Shape_200_" d="m304.81 127.004c-16.834 0-30.481 13.647-30.481 30.481s13.647 30.481 30.481 30.481 30.481-13.647 30.481-30.481-13.647-30.481-30.481-30.481zm0 40.642c-5.611 0-10.16-4.549-10.16-10.16s4.549-10.16 10.16-10.16 10.16 4.549 10.16 10.16-4.548 10.16-10.16 10.16z"/><path id="Shape_199_" d="m508.017 127.004c-16.834 0-30.481 13.647-30.481 30.481s13.647 30.481 30.481 30.481 30.481-13.647 30.481-30.481-13.647-30.481-30.481-30.481zm0 40.642c-5.611 0-10.16-4.549-10.16-10.16s4.549-10.16 10.16-10.16 10.16 4.549 10.16 10.16-4.549 10.16-10.16 10.16z"/><path id="Shape_198_" d="m345.451 391.173h-30.481v-30.481c0-11.223-9.098-20.321-20.321-20.321h-30.481v-30.481c0-11.223-9.098-20.321-20.321-20.321h-81.283c-11.223 0-20.321 9.098-20.321 20.321v30.481h-30.481c-11.223 0-20.321 9.098-20.321 20.321v30.481h-30.479c-11.223 0-20.321 9.098-20.321 20.321v30.481c0 11.223 9.098 20.321 20.321 20.321h81.283c3.578-.02 7.085-.995 10.16-2.825 3.075 1.829 6.583 2.804 10.16 2.825h81.283c3.578-.02 7.085-.995 10.16-2.825 3.075 1.829 6.583 2.804 10.16 2.825h81.283c11.223 0 20.321-9.098 20.321-20.321v-30.481c0-11.223-9.098-20.321-20.321-20.321zm-50.801-30.481v30.481h-81.283v-30.481zm-132.085-50.802h81.283v30.481h-81.283zm-50.801 50.802h81.283v30.481h-81.283zm-50.802 81.283v-30.481h81.283v30.481zm101.603 0v-30.481h81.283v30.481zm101.604 0v-30.481h81.283v30.481z"/></g></g></g></svg>