<svg id="Capa_1" enable-background="new 0 0 609.696 609.696" height="512" viewBox="0 0 609.696 609.696" width="512" xmlns="http://www.w3.org/2000/svg"><g><g id="Page-1_4_"><g id="_x30_05---Building-Location" transform="translate(-1 -1)"><path id="Shape_10_" d="m275.367 346.522h101.603c16.834 0 30.481-13.647 30.481-30.481v-91.748c5.003-.697 9.567-3.233 12.802-7.112l13.026-15.728c3.453-4.173 5.092-9.555 4.549-14.944-.542-5.389-3.22-10.337-7.435-13.738l-22.942-18.532v-51.564c0-11.223-9.098-20.321-20.321-20.321h-20.32c-11.223 0-20.321 9.098-20.321 20.321v2.276l-27.738-22.434c-7.539-6.05-18.269-6.05-25.807 0l-111.631 90.263c-4.219 3.398-6.9 8.346-7.445 13.736-.544 5.39 1.094 10.774 4.549 14.947l13.026 15.728c3.239 3.875 7.801 6.409 12.802 7.112v91.738c0 16.834 13.647 30.481 30.481 30.481zm10.16-20.32v-50.802c0-5.611 4.549-10.16 10.16-10.16h20.321c5.611 0 10.16 4.549 10.16 10.16v50.802zm81.283-223.528h20.321v35.134l-20.321-16.429zm-60.84-4.359 111.642 90.193-13.005 15.769c-.069.042-.155.042-.224 0l-.152-.102-92.063-73.053c-3.7-2.939-8.939-2.939-12.639 0l-92.459 73.154-12.985-15.688zm-81.405 217.726v-99.571l81.283-64.467 81.283 64.467v99.571c0 5.611-4.549 10.16-10.16 10.16h-30.481v-50.801c0-16.834-13.647-30.481-30.481-30.481h-20.321c-16.834 0-30.481 13.647-30.481 30.481v50.802h-30.481c-5.612 0-10.161-4.549-10.161-10.161z"/><path id="Shape_9_" d="m604.156 514.544-120.329-111.713c-3.756-3.543-8.726-5.513-13.889-5.507h-44.706c51.452-60.23 97.885-142.834 79.799-233.881-16.691-83.206-83.599-147.114-167.483-159.974-58.711-9.23-118.522 7.689-163.698 46.308s-71.194 95.069-71.209 154.501c0 74.668 40.164 141.899 83.884 193.046h-43.242c-5.104.042-10.011 1.971-13.777 5.415l-122.016 111.856c-3.729 3.566-5.945 8.43-6.188 13.584-.114.404-.203.814-.264 1.229v60.962c-.124 5.426 1.978 10.667 5.816 14.505s9.079 5.939 14.505 5.816h568.979c5.426.123 10.667-1.978 14.505-5.816s5.939-9.079 5.816-14.505v-60.962c-.055-.401-.136-.798-.244-1.189-.229-5.199-2.474-10.104-6.259-13.675zm-417.489-448.986c33.322-28.563 75.79-44.218 119.679-44.116 9.425.001 18.836.711 28.154 2.124 75.434 11.552 135.606 69.017 150.617 143.84 31.863 160.553-157.617 296.265-179.269 311.201-18.715-12.904-182.886-130.134-182.886-274.329-.015-53.319 23.253-103.985 63.705-138.72zm-43.384 352.087h61.531c27.228 28.776 57.224 54.8 89.553 77.696 6.895 4.797 16.047 4.797 22.942 0 32.367-22.884 62.394-48.909 89.645-77.696h62.994l120.39 111.764-568.979.071zm-121.924 172.725v-40.641h568.979v40.641z"/></g></g></g></svg>