<svg display="none" xmlns="http://www.w3.org/2000/svg">
   <!-- intro-icon-4 -->
   <symbol id="intro-icon-4" viewBox="0 0 609.62 609.62">
      <svg>
         <g>
            <path d="m50.802 609.62h508.017c28.043-.034 50.768-22.759 50.802-50.802v-457.215c-.034-28.043-22.759-50.768-50.802-50.802h-20.321v-15.24c0-19.64-15.921-35.561-35.561-35.561s-35.561 15.921-35.561 35.561v15.241h-60.962v-15.241c0-19.64-15.922-35.561-35.562-35.561s-35.561 15.921-35.561 35.561v15.241h-60.962v-15.241c0-19.64-15.921-35.561-35.561-35.561s-35.561 15.921-35.561 35.561v15.241h-60.962v-15.241c0-19.64-15.922-35.561-35.561-35.561s-35.562 15.921-35.562 35.561v15.241h-20.32c-28.043.033-50.768 22.758-50.802 50.801v457.215c.034 28.044 22.759 50.769 50.802 50.802zm538.498-50.801c0 16.834-13.647 30.481-30.481 30.481h-508.017c-16.834 0-30.481-13.647-30.481-30.481v-396.254h568.979zm-101.604-523.258c0-8.417 6.823-15.241 15.241-15.241s15.241 6.823 15.241 15.241v50.802c0 8.417-6.823 15.241-15.241 15.241s-15.241-6.823-15.241-15.241zm-132.084 0c0-8.417 6.823-15.241 15.241-15.241s15.241 6.823 15.241 15.241v50.802c0 8.417-6.823 15.241-15.241 15.241s-15.241-6.823-15.241-15.241zm-132.085 0c0-8.417 6.823-15.241 15.241-15.241 8.417 0 15.241 6.823 15.241 15.241v50.802c0 8.417-6.823 15.241-15.241 15.241-8.417 0-15.241-6.823-15.241-15.241zm-132.084 0c0-8.417 6.823-15.241 15.241-15.241s15.241 6.823 15.241 15.241v50.802c0 8.417-6.823 15.241-15.241 15.241s-15.241-6.824-15.241-15.241zm-71.122 66.042c0-16.834 13.647-30.481 30.481-30.481h20.321v15.241c0 19.64 15.921 35.561 35.561 35.561s35.561-15.921 35.561-35.561v-15.241h60.962v15.241c0 19.64 15.921 35.561 35.561 35.561s35.561-15.921 35.561-35.561v-15.241h60.962v15.241c0 19.64 15.921 35.561 35.561 35.561s35.561-15.921 35.561-35.561v-15.241h60.962v15.241c0 19.64 15.921 35.561 35.561 35.561s35.561-15.921 35.561-35.561v-15.241h20.321c16.834 0 30.481 13.647 30.481 30.481v40.641h-568.978z"/><path d="m59.052 378.981c3.528 4.154 8.576 6.716 14.011 7.112h1.422c2.317 0 4.617-.403 6.797-1.189v123.113c0 8.084 3.211 15.837 8.928 21.553 5.716 5.716 13.469 8.928 21.553 8.928h223.527c4.733-.052 9.389-1.21 13.595-3.383 49.229 44.282 123.638 45.271 174.027 2.313s61.182-116.588 25.245-172.202-107.5-76.024-167.368-47.735l-15.017-13.432v-70.37c0-11.223-9.098-20.321-20.321-20.321h-30.481c-11.223 0-20.321 9.098-20.321 20.321v6.777l-57.64-51.543c-7.676-6.869-19.289-6.869-26.966 0l-162.564 145.433c-8.27 7.566-9.077 20.316-1.829 28.866zm42.551 129.036v-139.268l121.924-109.132 108.563 97.214c-36.709 47.634-36.337 114.126.904 161.346h-58.666v-81.283c0-16.834-13.647-30.481-30.481-30.481h-40.641c-16.834 0-30.481 13.647-30.481 30.481v81.283h-60.962c-5.611 0-10.16-4.549-10.16-10.16zm91.443 10.16v-81.283c0-5.611 4.549-10.16 10.16-10.16h40.641c5.611 0 10.16 4.549 10.16 10.16v81.283zm355.612-81.282c0 61.725-50.038 111.764-111.764 111.764s-111.763-50.039-111.763-111.764 50.038-111.764 111.764-111.764c61.695.073 111.69 50.068 111.763 111.764zm-233.688-203.207h30.481v52.204l-30.481-27.25zm-91.504-29.618 124.891 111.682.254.224 13.554 12.121c-5.875 4.071-11.413 8.607-16.561 13.564l-115.3-103.249c-3.858-3.454-9.696-3.454-13.554 0l-142.265 127.36-13.462-16.257z"/><path d="m386.093 467.376h20.321v20.321c0 16.834 13.647 30.481 30.481 30.481s30.481-13.647 30.481-30.481v-20.321h20.321c16.834 0 30.481-13.647 30.481-30.481s-13.647-30.481-30.481-30.481h-20.321v-20.321c0-16.834-13.647-30.481-30.481-30.481s-30.481 13.647-30.481 30.481v20.321h-20.321c-16.834 0-30.481 13.647-30.481 30.481s13.647 30.481 30.481 30.481zm0-40.642h30.481c5.611 0 10.16-4.549 10.16-10.16v-30.481c0-5.611 4.549-10.16 10.16-10.16s10.16 4.549 10.16 10.16v30.481c0 5.611 4.549 10.16 10.16 10.16h30.481c5.611 0 10.16 4.549 10.16 10.16s-4.549 10.16-10.16 10.16h-30.481c-5.611 0-10.16 4.549-10.16 10.16v30.481c0 5.611-4.549 10.16-10.16 10.16s-10.16-4.549-10.16-10.16v-30.481c0-5.611-4.549-10.16-10.16-10.16h-30.481c-5.611 0-10.16-4.549-10.16-10.16-.001-5.611 4.548-10.16 10.16-10.16z"/>
         </g>
      </svg>
   </symbol>

   <!-- mouse -->
   <symbol id="mouse" viewBox="-105 0 512 512.00002">
      <svg>
         <g>
            <path d="m150.601562 0c-83.042968 0-150.601562 67.558594-150.601562 150.601562v210.796876c0 83.042968 67.558594 150.601562 150.601562 150.601562 83.042969 0 150.601563-67.558594 150.601563-150.601562v-210.796876c0-83.042968-67.558594-150.601562-150.601563-150.601562zm119.882813 361.398438c0 66.101562-53.78125 119.882812-119.882813 119.882812-66.101562 0-119.882812-53.78125-119.882812-119.882812v-210.796876c0-66.101562 53.78125-119.882812 119.882812-119.882812 66.101563 0 119.882813 53.78125 119.882813 119.882812zm0 0"/><path d="m150.605469 101.851562c-8.484375 0-15.359375 6.875-15.359375 15.359376v70.695312c0 8.480469 6.875 15.359375 15.359375 15.359375 8.480469 0 15.359375-6.878906 15.359375-15.359375v-70.695312c0-8.484376-6.875-15.359376-15.359375-15.359376zm0 0"/>
         </g>
      </svg>
   </symbol>

   <!-- works-icon-1 -->
   <symbol id="works-icon-1" viewBox="0 0 609.631 609.631">
      <svg>
         <g>
            <path d="m604.113 446.989-120.35-111.764c-3.765-3.494-8.713-5.432-13.849-5.426h-21.854v-62.171c2.173.789 4.465 1.198 6.777 1.209h1.382c5.458-.367 10.532-2.934 14.062-7.112l13.452-15.718c7.273-8.578 6.428-21.379-1.91-28.926l-33.763-30.237v-70.411c0-11.223-9.098-20.321-20.321-20.321h-30.481c-11.223 0-20.321 9.098-20.321 20.321v6.757l-57.619-51.574c-7.69-6.875-19.317-6.875-27.006 0l-162.504 145.404c-8.337 7.544-9.182 20.342-1.91 28.916l13.452 15.789c3.537 4.186 8.624 6.753 14.092 7.112 2.759.17 5.524-.221 8.128-1.148v62.11h-20.32c-5.108-.012-10.031 1.912-13.777 5.385l-121.925 111.764c-3.797 3.588-6.043 8.517-6.259 13.737-.122.393-.217.793-.284 1.199v60.962c-.124 5.426 1.978 10.667 5.816 14.505s9.079 5.939 14.505 5.816h568.979c5.426.124 10.667-1.978 14.505-5.816s5.939-9.079 5.816-14.505v-60.962c-.057-.443-.145-.881-.264-1.311-.254-5.164-2.492-10.032-6.249-13.584zm-267.817-46.067h-60.962v-81.283c0-5.611 4.549-10.16 10.16-10.16h40.641c5.611 0 10.16 4.549 10.16 10.16v81.283zm-10.16-111.764h-40.641c-16.834 0-30.481 13.647-30.481 30.481v81.283h-60.962c-5.611 0-10.16-4.549-10.16-10.16v-139.289l121.924-109.122 121.924 109.122v139.288c0 5.611-4.549 10.16-10.16 10.16h-60.962v-81.283c-.001-16.833-13.648-30.48-30.482-30.48zm71.122-172.726h30.481v52.224l-30.481-27.281zm-253.896 115.828 162.453-145.496 162.565 146.014-13.442 15.738-142.346-127.37c-3.858-3.454-9.696-3.454-13.554 0l-142.245 127.37zm-.112 117.86h20.321v40.641c0 16.834 13.647 30.481 30.481 30.481h223.527c16.834 0 30.481-13.647 30.481-30.481v-40.641h21.855l120.39 111.764h-568.979zm-121.924 172.726v-40.641h568.979v40.641z"/>
         </g>
      </svg>
   </symbol>

   <!-- works-icon-2 -->
   <symbol id="works-icon-2" viewBox="0 0 609.631 609.631">
      <svg>
         <g>
            <path clip-rule="evenodd" d="m305.815 293.229c-5.611 0-10.16 4.549-10.16 10.16v10.16c0 5.611 4.549 10.16 10.16 10.16s10.16-4.549 10.16-10.16v-10.16c.001-5.611-4.548-10.16-10.16-10.16z" fill-rule="evenodd"/><path clip-rule="evenodd" d="m305.815 344.031c-5.611 0-10.16 4.549-10.16 10.16v10.16c0 5.611 4.549 10.16 10.16 10.16s10.16-4.549 10.16-10.16v-10.16c.001-5.611-4.548-10.16-10.16-10.16z" fill-rule="evenodd"/><path id="Shape_12_" d="m604.123 461.251-115.422-107.121v-104.346c2.803-.551 5.458-1.686 7.793-3.333l16.592-11.827c9.129-6.526 11.24-19.217 4.714-28.347l-18.939-26.458v-89.796c0-11.223-9.098-20.321-20.321-20.321h-20.32c-11.223 0-20.321 9.098-20.321 20.321v4.46l-24.11-33.753c-3.815-5.336-9.971-8.503-16.531-8.503s-12.716 3.167-16.531 8.503l-74.912 104.865-74.912-104.865c-3.815-5.336-9.971-8.503-16.531-8.503s-12.716 3.167-16.531 8.503l-24.11 33.753v-4.46c0-11.223-9.098-20.321-20.321-20.321h-20.32c-11.223 0-20.321 9.098-20.321 20.321v89.797l-18.909 26.467c-6.525 9.12-4.429 21.802 4.684 28.337l16.592 11.867c2.333 1.646 4.99 2.779 7.793 3.322v105.668l-115.462 105.81c-3.728 3.563-5.943 8.423-6.188 13.574-.123.409-.214.827-.274 1.25v60.962c-.124 5.426 1.978 10.667 5.816 14.505s9.079 5.939 14.505 5.816h568.979c5.426.124 10.667-1.978 14.505-5.816s5.939-9.079 5.816-14.505v-60.962c-.055-.401-.136-.798-.244-1.189-.228-5.199-2.474-10.104-6.259-13.675zm-186.544-56.258h-50.802v-81.283c0-5.611 4.549-10.16 10.16-10.16h30.481c5.611 0 10.16 4.549 10.16 10.16v81.283zm-10.16-111.764h-30.481c-16.834 0-30.481 13.647-30.481 30.481v81.283h-30.481c0-5.611-4.549-10.16-10.16-10.16s-10.16 4.549-10.16 10.16h-30.481v-81.283c0-16.834-13.647-30.481-30.481-30.481h-30.481c-16.834 0-30.481 13.647-30.481 30.481v81.283h-30.482v-163.012c.071-.102.163-.163.224-.264l70.899-99.246 73.093 102.335c2.159 2.997 5.024 5.416 8.342 7.041 0 .264-.152.478-.152.742v10.16c0 5.611 4.549 10.16 10.16 10.16s10.16-4.549 10.16-10.16v-10.16c0-.264-.132-.478-.152-.742 3.317-1.625 6.183-4.044 8.342-7.041l73.093-102.335 70.899 99.256c.061.091.152.163.224.254v163.012h-30.482v-81.283c0-16.834-13.647-30.481-30.481-30.481zm-162.566 111.764h-50.802v-81.283c0-5.611 4.549-10.16 10.16-10.16h30.481c5.611 0 10.16 4.549 10.16 10.16v81.283zm213.367-314.97h20.321v61.348l-20.321-28.449zm-325.13 0h20.321v32.909l-20.321 28.449zm-22.688 128.02 103.97-145.506 83.183 116.437c1.992 2.535 5.037 4.014 8.26 4.014s6.269-1.48 8.26-4.014l83.183-116.437 103.971 145.506-16.592 11.867-79.119-110.829c-1.992-2.535-5.037-4.014-8.26-4.014-3.224 0-6.269 1.48-8.26 4.014l-81.344 113.887c-.445.558-1.12.882-1.834.882s-1.389-.325-1.834-.882l-81.354-113.887c-1.908-2.664-4.984-4.244-8.26-4.244-3.277 0-6.352 1.58-8.26 4.244l-79.119 110.829zm32.848 207.271h325.131c11.223 0 20.321-9.098 20.321-20.321v-23.145l101.603 94.268-568.979.071v-.071l101.603-93.15v22.028c0 11.222 9.098 20.32 20.321 20.32zm-121.924 111.763v-40.641h568.979v40.641z"/>
         </g>
      </svg>
   </symbol>
   
   <!-- works-icon-3 -->
   <symbol id="works-icon-3" viewBox="0 0 609.62 609.62">
      <svg>
         <g>
            <path d="m30.483 223.527h101.603c16.834 0 30.481-13.647 30.481-30.481v-30.481h20.321v365.772h-71.122c-28.043.034-50.768 22.759-50.802 50.802v10.16c0 11.223 9.098 20.321 20.321 20.321h284.489c11.223 0 20.321-9.098 20.321-20.321v-10.16c-.034-28.043-22.759-50.768-50.802-50.802h-71.122v-193.046h62.039c5.697-.008 11.239-1.858 15.799-5.273l53.85-40.408c6.625-4.974 10.533-12.768 10.557-21.052v-105.993h60.962v142.763c-59.501 5.432-104.206 56.7-101.488 116.386 2.719 59.686 51.9 106.678 111.648 106.678s108.929-46.992 111.648-106.678-41.987-110.954-101.488-116.386v-142.763h101.603c7.493-.001 14.377-4.126 17.912-10.732s3.149-14.622-1.005-20.857l-27.067-40.641c-3.776-5.666-10.138-9.065-16.947-9.053h-83.315l-215.938-58.93c-3.642-13.162-15.594-22.296-29.251-22.352h-20.321c-13.937.045-26.069 9.537-29.465 23.054l-155.951 58.483c-15.756 1.283-27.903 14.419-27.951 30.227v81.283c0 16.834 13.647 30.48 30.481 30.48zm538.498 193.047c0 36.985-22.279 70.329-56.449 84.482-34.17 14.154-73.501 6.33-99.654-19.822-26.153-26.153-33.976-65.484-19.822-99.654s47.497-56.449 84.482-56.449c50.477.061 91.381 40.966 91.443 91.443zm-482.464-335.291 96.371-36.14v36.14zm177.654-37.502 137.49 37.502h-137.49zm213.367 57.822h56.756l-36.435 36.435-36.435-36.435zm-136.291 40.642h-72.87l36.435-36.435zm-11.908-40.642h72.87l-36.435 36.435zm60.962 40.642 40.641-40.641h1.748l40.641 40.641zm-110.016-40.642-36.435 36.435-36.435-36.435zm-117.718 0h16.114l40.641 40.641h-56.756v-40.641zm203.207 477.536v10.16h-284.489v-10.16c0-16.834 13.647-30.481 30.481-30.481h223.527c16.834 0 30.481 13.647 30.481 30.481zm-162.565-50.801v-365.773h40.641v365.772h-40.641zm126.597-214.566c-1.039.776-2.3 1.197-3.597 1.199h-62.039v-40.641h118.236zm56.289-59.764h-121.924v-91.443h121.924zm203.206-111.763h-66.957l40.143-40.143zm-386.092-111.764c0-5.611 4.549-10.16 10.16-10.16h20.321c5.611 0 10.16 4.549 10.16 10.16v50.802h-40.641zm-182.886 81.283c0-5.611 4.549-10.16 10.16-10.16h20.321v30.481c0 5.611 4.549 10.16 10.16 10.16s10.16-4.549 10.16-10.16v-30.481h20.321v30.481c0 5.611 4.549 10.16 10.16 10.16s10.16-4.549 10.16-10.16v-30.481h30.481v91.443c0 5.611-4.549 10.16-10.16 10.16h-101.603c-5.611 0-10.16-4.549-10.16-10.16z"/><path d="m311.995 185.863c-3.968-3.966-10.399-3.966-14.367 0l-10.16 10.16c-2.641 2.551-3.701 6.329-2.771 9.881s3.704 6.327 7.256 7.256c3.552.93 7.33-.129 9.881-2.771l10.16-10.16c3.968-3.967 3.968-10.398.001-14.366z"/><path d="m348.43 185.863-40.641 40.641c-2.641 2.551-3.701 6.329-2.771 9.881s3.704 6.327 7.256 7.256c3.552.93 7.33-.129 9.881-2.771l40.641-40.641c3.85-3.987 3.795-10.324-.124-14.243-3.918-3.918-10.255-3.973-14.242-.123z" /><path  d="m467.377 345.451v10.861c-23.46 3.211-40.641 17.364-40.641 34.86s17.181 31.649 40.641 34.86v30.166c-12.07-2.347-20.321-8.514-20.321-14.225 0-5.611-4.549-10.16-10.16-10.16s-10.16 4.549-10.16 10.16c0 17.496 17.181 31.649 40.641 34.86v10.861c0 5.611 4.549 10.16 10.16 10.16s10.16-4.549 10.16-10.16v-10.861c23.46-3.211 40.641-17.364 40.641-34.86s-17.181-31.649-40.641-34.86v-30.166c12.07 2.347 20.321 8.514 20.321 14.224 0 5.611 4.549 10.16 10.16 10.16s10.16-4.549 10.16-10.16c0-17.496-17.181-31.649-40.641-34.86v-10.861c0-5.611-4.549-10.16-10.16-10.16s-10.16 4.55-10.16 10.161zm-20.32 45.722c0-5.7 8.25-11.867 20.321-14.224v28.449c-12.071-2.358-20.321-8.525-20.321-14.225zm60.962 50.802c0 5.7-8.25 11.867-20.321 14.225v-28.45c12.071 2.357 20.321 8.525 20.321 14.225z"/>
         </g>
      </svg>
   </symbol>

   <!-- arrow-right -->
   <symbol id="arrow-right" viewBox="0 0 490.661 490.661">
      <svg>
         <g>
            <path d="M453.352,236.091L48.019,1.424c-3.285-1.899-7.36-1.899-10.688,0c-3.285,1.899-5.333,5.419-5.333,9.237v469.333
               c0,3.819,2.048,7.339,5.333,9.237c1.643,0.939,3.499,1.429,5.333,1.429c1.856,0,3.691-0.469,5.355-1.429l405.333-234.667
               c3.285-1.92,5.312-5.44,5.312-9.237S456.637,237.989,453.352,236.091z"/>
         </g>
      </svg>
   </symbol>

</svg>