<svg xmlns="http://www.w3.org/2000/svg" xmlns:xlink="http://www.w3.org/1999/xlink"><symbol id="arrow-right" viewBox="0 0 490.661 490.661">
<g>
	<g>
		<path d="M453.352,236.091L48.019,1.424c-3.285-1.899-7.36-1.899-10.688,0c-3.285,1.899-5.333,5.419-5.333,9.237v469.333
			c0,3.819,2.048,7.339,5.333,9.237c1.643,0.939,3.499,1.429,5.333,1.429c1.856,0,3.691-0.469,5.355-1.429l405.333-234.667
			c3.285-1.92,5.312-5.44,5.312-9.237S456.637,237.989,453.352,236.091z"/>
	</g>
</g>
<g>
</g>
<g>
</g>
<g>
</g>
<g>
</g>
<g>
</g>
<g>
</g>
<g>
</g>
<g>
</g>
<g>
</g>
<g>
</g>
<g>
</g>
<g>
</g>
<g>
</g>
<g>
</g>
<g>
</g>
</symbol><symbol id="arrows" viewBox="0 0 480.026 480.026">
<g>
	<g>
		<path d="M475.922,229.325l-144-160c-3.072-3.392-7.36-5.312-11.904-5.312h-96c-6.304,0-12.032,3.712-14.624,9.472
			c-2.56,5.792-1.504,12.544,2.72,17.216l134.368,149.312l-134.368,149.28c-4.224,4.704-5.312,11.456-2.72,17.216
			c2.592,5.792,8.32,9.504,14.624,9.504h96c4.544,0,8.832-1.952,11.904-5.28l144-160
			C481.394,244.653,481.394,235.373,475.922,229.325z"/>
	</g>
</g>
<g>
	<g>
		<path d="M267.922,229.325l-144-160c-3.072-3.392-7.36-5.312-11.904-5.312h-96c-6.304,0-12.032,3.712-14.624,9.472
			c-2.56,5.792-1.504,12.544,2.72,17.216l134.368,149.312L4.114,389.293c-4.224,4.704-5.312,11.456-2.72,17.216
			c2.592,5.792,8.32,9.504,14.624,9.504h96c4.544,0,8.832-1.952,11.904-5.28l144-160
			C273.394,244.653,273.394,235.373,267.922,229.325z"/>
	</g>
</g>
<g>
</g>
<g>
</g>
<g>
</g>
<g>
</g>
<g>
</g>
<g>
</g>
<g>
</g>
<g>
</g>
<g>
</g>
<g>
</g>
<g>
</g>
<g>
</g>
<g>
</g>
<g>
</g>
<g>
</g>
</symbol><symbol id="check" viewBox="0 0 78.369 78.369">
<g>
	<path d="M78.049,19.015L29.458,67.606c-0.428,0.428-1.121,0.428-1.548,0L0.32,40.015c-0.427-0.426-0.427-1.119,0-1.547l6.704-6.704
		c0.428-0.427,1.121-0.427,1.548,0l20.113,20.112l41.113-41.113c0.429-0.427,1.12-0.427,1.548,0l6.703,6.704
		C78.477,17.894,78.477,18.586,78.049,19.015z" fill="#dedede"/>
</g>
<g>
</g>
<g>
</g>
<g>
</g>
<g>
</g>
<g>
</g>
<g>
</g>
<g>
</g>
<g>
</g>
<g>
</g>
<g>
</g>
<g>
</g>
<g>
</g>
<g>
</g>
<g>
</g>
<g>
</g>
</symbol><symbol id="contacts-icon-1" viewBox="-42 0 512 512.002"><path d="m210.351562 246.632812c33.882813 0 63.222657-12.152343 87.195313-36.128906 23.972656-23.972656 36.125-53.304687 36.125-87.191406 0-33.875-12.152344-63.210938-36.128906-87.191406-23.976563-23.96875-53.3125-36.121094-87.191407-36.121094-33.886718 0-63.21875 12.152344-87.191406 36.125s-36.128906 53.308594-36.128906 87.1875c0 33.886719 12.15625 63.222656 36.132812 87.195312 23.976563 23.96875 53.3125 36.125 87.1875 36.125zm0 0"/><path d="m426.128906 393.703125c-.691406-9.976563-2.089844-20.859375-4.148437-32.351563-2.078125-11.578124-4.753907-22.523437-7.957031-32.527343-3.308594-10.339844-7.808594-20.550781-13.371094-30.335938-5.773438-10.15625-12.554688-19-20.164063-26.277343-7.957031-7.613282-17.699219-13.734376-28.964843-18.199219-11.226563-4.441407-23.667969-6.691407-36.976563-6.691407-5.226563 0-10.28125 2.144532-20.042969 8.5-6.007812 3.917969-13.035156 8.449219-20.878906 13.460938-6.707031 4.273438-15.792969 8.277344-27.015625 11.902344-10.949219 3.542968-22.066406 5.339844-33.039063 5.339844-10.972656 0-22.085937-1.796876-33.046874-5.339844-11.210938-3.621094-20.296876-7.625-26.996094-11.898438-7.769532-4.964844-14.800782-9.496094-20.898438-13.46875-9.75-6.355468-14.808594-8.5-20.035156-8.5-13.3125 0-25.75 2.253906-36.972656 6.699219-11.257813 4.457031-21.003906 10.578125-28.96875 18.199219-7.605469 7.28125-14.390625 16.121094-20.15625 26.273437-5.558594 9.785157-10.058594 19.992188-13.371094 30.339844-3.199219 10.003906-5.875 20.945313-7.953125 32.523437-2.058594 11.476563-3.457031 22.363282-4.148437 32.363282-.679688 9.796875-1.023438 19.964844-1.023438 30.234375 0 26.726562 8.496094 48.363281 25.25 64.320312 16.546875 15.746094 38.441406 23.734375 65.066406 23.734375h246.53125c26.625 0 48.511719-7.984375 65.0625-23.734375 16.757813-15.945312 25.253906-37.585937 25.253906-64.324219-.003906-10.316406-.351562-20.492187-1.035156-30.242187zm0 0"/></symbol><symbol id="contacts-icon-2" viewBox="0 0 513.64 513.64">
<g>
	<g>
		<path d="M499.66,376.96l-71.68-71.68c-25.6-25.6-69.12-15.359-79.36,17.92c-7.68,23.041-33.28,35.841-56.32,30.72
			c-51.2-12.8-120.32-79.36-133.12-133.12c-7.68-23.041,7.68-48.641,30.72-56.32c33.28-10.24,43.52-53.76,17.92-79.36l-71.68-71.68
			c-20.48-17.92-51.2-17.92-69.12,0l-48.64,48.64c-48.64,51.2,5.12,186.88,125.44,307.2c120.32,120.32,256,176.641,307.2,125.44
			l48.64-48.64C517.581,425.6,517.581,394.88,499.66,376.96z"/>
	</g>
</g>
<g>
</g>
<g>
</g>
<g>
</g>
<g>
</g>
<g>
</g>
<g>
</g>
<g>
</g>
<g>
</g>
<g>
</g>
<g>
</g>
<g>
</g>
<g>
</g>
<g>
</g>
<g>
</g>
<g>
</g>
</symbol><symbol id="features-icon-1" viewBox="0 0 609.646 609.646"><g><g id="Page-1_7_"><g id="_x30_08---Searching-Land" transform="translate(-1)"><path id="Shape_15_" d="m255.063 507.961c45.48.043 90.127-12.205 129.219-35.449l28.906 28.825c8.805 8.791 23.052 8.836 31.914.102l96.147 96.147c7.606 7.657 17.949 11.968 28.741 11.98 10.792.011 21.145-4.278 28.766-11.919 15.852-15.868 15.852-41.578 0-57.447l-96.208-96.249c8.739-8.856 8.694-23.104-.102-31.903l-28.825-28.906c58.562-99.175 43.044-225.343-37.804-307.372s-206.777-99.374-306.791-42.256-149.061 174.393-119.491 285.707 130.354 188.787 245.528 188.74zm329.266 75.38c-8.028 7.652-20.657 7.625-28.652-.061l-96.198-96.198 28.713-28.713 96.198 96.198c3.814 3.82 5.951 9.001 5.94 14.4-.012 5.398-2.171 10.57-6.001 14.374zm-96.259-156.886c.44.434.686 1.028.681 1.646.003.626-.246 1.226-.691 1.666l-57.223 57.203c-.381.54-1 .862-1.661.862s-1.281-.321-1.661-.862l-25.828-25.746c23.479-16.662 43.982-37.161 60.647-60.637zm-233.007-406.19c129.062 0 233.688 104.626 233.688 233.688s-104.626 233.688-233.688 233.688-233.688-104.626-233.688-233.688c.146-129.002 104.686-233.542 233.688-233.688z"/><path id="Shape_14_" d="m255.063 467.32c117.839 0 213.367-95.528 213.367-213.367s-95.528-213.367-213.367-213.367-213.367 95.528-213.367 213.367c.134 117.784 95.583 213.233 213.367 213.367zm0-406.413c106.617 0 193.046 86.43 193.046 193.046s-86.43 193.046-193.046 193.046-193.047-86.429-193.047-193.046c.118-106.568 86.479-192.929 193.047-193.046z"/><path id="Shape_13_" d="m417.628 324.974v-40.641c.03-4.37-1.401-8.626-4.064-12.091l-45.722-60.962c-3.853-5.098-9.866-8.105-16.257-8.128h-21.469l15.86-47.591c1.169-3.515.332-7.387-2.184-10.106s-6.312-3.853-9.907-2.96l-30.308 7.569-8.077-40.387c-.826-4.111-4.092-7.292-8.223-8.009s-8.278 1.176-10.442 4.768l-21.774 36.323-21.774-36.283c-2.163-3.591-6.311-5.485-10.442-4.768s-7.397 3.898-8.223 8.009l-8.077 40.347-30.308-7.569c-3.595-.893-7.391.241-9.907 2.96s-3.353 6.591-2.184 10.106l15.86 47.591h-13.846c-5.841-.003-11.398 2.52-15.241 6.919l-53.443 61.084c-3.2 3.685-4.968 8.399-4.979 13.28v40.641c0 11.223 9.098 20.321 20.321 20.321h284.489c11.247-.04 20.338-9.177 20.321-20.423zm-304.81-20.219h284.489v20.321h-284.489zm53.342-81.283h20.625l7.844 23.531c1.147 3.448 4.047 6.023 7.607 6.754s7.239-.493 9.652-3.211 3.193-6.516 2.046-9.964l-24.629-73.886 22.698 5.669c2.682.659 5.517.197 7.852-1.279s3.968-3.839 4.523-6.544l5.019-25.035 16.958 28.276c1.968 2.872 5.226 4.588 8.707 4.588s6.739-1.717 8.707-4.588l16.958-28.276 5.019 25.035c.545 2.722 2.181 5.102 4.526 6.588 2.345 1.485 5.196 1.947 7.89 1.276l22.698-5.669-24.629 73.886c-1.147 3.448-.367 7.247 2.046 9.964 2.413 2.718 6.092 3.941 9.652 3.211s6.46-3.305 7.607-6.754l7.803-23.572h28.246l45.722 60.962h-284.489z"/><path id="Path_7_" clip-rule="evenodd" d="m255.063 203.151c-5.611 0-10.16 4.549-10.16 10.16v30.481c0 5.611 4.549 10.16 10.16 10.16s10.16-4.549 10.16-10.16v-30.481c0-5.611-4.549-10.16-10.16-10.16z" fill-rule="evenodd"/></g></g></g></symbol><symbol id="features-icon-2" viewBox="0 0 511.997 511.997">
<g>
	<g>
		<path d="M157.897,185.906c-3.217-2.609-7.939-2.117-10.549,1.101c-3.03,3.736-7.047,5.793-11.313,5.793
			c-4.266,0-8.283-2.058-11.313-5.793c-2.609-3.217-7.333-3.709-10.549-1.101c-3.217,2.609-3.71,7.332-1.101,10.549
			c5.847,7.21,14.217,11.345,22.963,11.345c8.746,0,17.115-4.135,22.963-11.345C161.607,193.238,161.114,188.515,157.897,185.906z"/>
	</g>
</g>
<g>
	<g>
		<path d="M101.759,141.386c-4.142,0-7.5,3.358-7.5,7.5v8.569c0,4.142,3.358,7.5,7.5,7.5c4.142,0,7.5-3.358,7.5-7.5v-8.569
			C109.259,144.744,105.901,141.386,101.759,141.386z"/>
	</g>
</g>
<g>
	<g>
		<path d="M170.311,141.386c-4.142,0-7.5,3.358-7.5,7.5v8.569c0,4.142,3.357,7.5,7.5,7.5c4.142,0,7.5-3.358,7.5-7.5v-8.569
			C177.811,144.744,174.453,141.386,170.311,141.386z"/>
	</g>
</g>
<g>
	<g>
		<path d="M406.397,228.75c-3.217-2.609-7.94-2.117-10.549,1.101c-3.03,3.735-7.048,5.793-11.313,5.793
			c-4.266,0-8.283-2.058-11.313-5.793c-2.608-3.217-7.332-3.71-10.549-1.101c-3.217,2.609-3.709,7.332-1.1,10.549
			c5.846,7.211,14.216,11.345,22.962,11.345c8.746,0,17.115-4.135,22.962-11.345C410.106,236.082,409.614,231.359,406.397,228.75z"/>
	</g>
</g>
<g>
	<g>
		<path d="M350.259,184.231c-4.142,0-7.5,3.358-7.5,7.5v8.569c0,4.142,3.358,7.5,7.5,7.5c4.142,0,7.5-3.358,7.5-7.5v-8.569
			C357.759,187.589,354.401,184.231,350.259,184.231z"/>
	</g>
</g>
<g>
	<g>
		<path d="M418.811,184.231c-4.142,0-7.5,3.358-7.5,7.5v8.569c0,4.142,3.357,7.5,7.5,7.5c4.142,0,7.5-3.358,7.5-7.5v-8.569
			C426.311,187.589,422.953,184.231,418.811,184.231z"/>
	</g>
</g>
<g>
	<g>
		<path d="M491.126,332.545l-58.757-23.503c-0.318-0.127-0.612-0.289-0.91-0.445c40.583-9.234,59.803-24.676,60.656-25.375
			c2.029-1.663,3.042-4.265,2.671-6.862c-0.085-0.594-8.494-60.135-8.494-118.904c0-56.11-45.649-101.759-101.759-101.759
			c-56.11,0-101.758,45.648-101.758,101.759c0,15.374-0.698,34.178-1.834,51.979l-16.373,8.187l-48.06-24.029
			c-0.138-0.069-0.283-0.119-0.424-0.179c2.286-6.663,3.781-13.689,4.33-20.98c10.053-3.106,17.378-12.487,17.378-23.547
			c0-7.449-3.328-14.131-8.569-18.653v-49.9c0-13.785-6.965-26.683-18.387-34.433c-3.87-14.38-16.79-24.481-31.958-24.481h-68.552
			c-37.21,0-67.483,30.273-67.483,67.483v41.33c-5.241,4.521-8.569,11.204-8.569,18.653c0,11.06,7.325,20.441,17.378,23.547
			c1.894,25.179,14.87,47.302,34.036,61.54v20.73L23.664,273.31C9.51,277.557,0,290.338,0,305.116v83.701c0,4.142,3.358,7.5,7.5,7.5
			h1.069v86.759c0,4.142,3.358,7.5,7.5,7.5c4.142,0,7.5-3.358,7.5-7.5v-86.759h27.845v86.759c0,4.142,3.358,7.5,7.5,7.5
			c4.142,0,7.5-3.358,7.5-7.5v-129.32c0-6.578-1.929-12.948-5.577-18.42l-12.82-19.23c-2.298-3.447-6.955-4.377-10.4-2.081
			c-3.447,2.297-4.378,6.954-2.08,10.401l12.82,19.231c2,3,3.058,6.492,3.058,10.099v27.561H16.069H15v-76.201
			c0-8.103,5.214-15.11,12.976-17.439l25.747-7.724c8.966,37.542,43.017,64.95,82.312,64.95c14.117,0,27.827-3.481,40.104-10.105
			c4.487,6.121,11.724,10.105,19.878,10.105h1.069v1.069c0,25.143,13.832,47.103,34.276,58.712v12.233
			c0,0.46-0.294,0.868-0.731,1.014l-27.977,9.326c-13.581,4.527-22.706,17.187-22.706,31.503v24.316c0,4.142,3.358,7.5,7.5,7.5
			c4.142,0,7.5-3.358,7.5-7.5V458.76c0-7.849,5.003-14.791,12.449-17.272l8.227-2.743c10.884,16.232,29.189,26.125,48.944,26.125
			c19.776,0,38.064-9.887,48.946-26.124l8.225,2.742c7.446,2.482,12.449,9.423,12.449,17.272v24.316c0,4.142,3.358,7.5,7.5,7.5
			c4.142,0,7.5-3.358,7.5-7.5V458.76c0-14.316-9.125-26.976-22.706-31.502l-27.977-9.326c-0.437-0.146-0.731-0.553-0.731-1.014
			v-12.233c15.307-8.692,26.893-23.188,31.753-40.481c14.173,14.83,33.968,23.546,55.005,23.546
			c33.212,0,62.353-21.469,72.391-52.728l28.629,11.451c6.953,2.781,11.445,9.417,11.445,16.904v35.079h-1.069h-26.776v-9.638
			c0-4.142-3.358-7.5-7.5-7.5c-4.142,0-7.5,3.358-7.5,7.5v94.259c0,4.142,3.358,7.5,7.5,7.5c4.142,0,7.5-3.358,7.5-7.5v-69.621
			h19.276v69.621c0,4.142,3.358,7.5,7.5,7.5c4.142,0,7.5-3.358,7.5-7.5v-69.621h1.069c1.989,0,3.896-0.79,5.303-2.196
			c1.407-1.407,2.197-3.314,2.197-5.304v-42.579C512,349.719,503.807,337.617,491.126,332.545z M297.776,157.455
			c0-47.839,38.92-86.759,86.759-86.759c47.839,0,86.758,38.92,86.758,86.759c0,50.363,6.065,101.274,8.036,116.479
			c-6.721,4.397-23.929,14.081-53.018,20.445v-11.935c3.984-2.258,7.798-4.835,11.384-7.733
			c14.758-11.929,25.187-28.636,29.363-47.042c1.392-6.133,2.098-12.458,2.098-18.799c0-42.391-30.657-48.477-60.305-54.363
			c-18.865-3.745-38.372-7.618-53.906-20.045c-2.251-1.801-5.335-2.152-7.934-0.903c-2.599,1.249-4.251,3.876-4.251,6.76
			c0,0.199-0.327,19.933-28.595,27c-4.019,1.005-6.462,5.077-5.457,9.096c1.004,4.019,5.077,6.46,9.095,5.457
			c23.66-5.915,33.312-19.188,37.248-29.16c16.264,9.638,34.483,13.254,50.879,16.509c31.689,6.291,48.226,10.912,48.226,39.65
			c0,5.226-0.581,10.434-1.726,15.48c-3.435,15.134-12.016,28.876-24.165,38.696c-12.5,10.104-27.622,15.444-43.73,15.444
			c-14.684,0-28.659-4.504-40.519-13.015c-4.345-11.859-11.324-22.709-20.533-31.649v-33.525c0-2.6-1.346-5.014-3.557-6.38
			c-2.211-1.366-4.971-1.491-7.297-0.328l-16.193,8.096C297.324,186.071,297.776,171.221,297.776,157.455z M308.483,212.435v27.143
			l-27.144-13.571L308.483,212.435z M220.655,212.435l27.143,13.572l-27.143,13.571V212.435z M179.948,294.558v7.123
			c-5.37,4.637-8.569,11.423-8.569,18.583c-10.682,6.311-22.817,9.639-35.345,9.639c-32.624,0-60.849-22.958-67.91-54.27
			l18.529-5.559c4.571,23.088,24.972,40.553,49.382,40.553c19.383,0,36.231-11.017,44.641-27.112
			C180.195,287.157,179.948,290.845,179.948,294.558z M100.69,260.27v-17.373c10.762,4.97,22.734,7.747,35.345,7.747
			c12.61,0,24.583-2.778,35.345-7.746v17.383c0,19.489-15.855,35.345-35.345,35.345c-19.457,0-35.29-15.804-35.343-35.249
			C100.692,260.341,100.69,260.305,100.69,260.27z M136.035,235.644c-38.39,0-69.621-31.231-69.621-69.62c0-4.142-3.358-7.5-7.5-7.5
			c-5.314,0-9.638-4.324-9.638-9.638c0-5.314,4.323-9.638,9.638-9.638h17.138c3.228,0,6.094-2.065,7.115-5.128l6.884-20.652
			c17.235-0.389,70.664-2.812,100.751-17.856c3.705-1.853,5.207-6.357,3.354-10.062c-1.852-3.705-6.356-5.207-10.062-3.354
			c-32.281,16.14-98.807,16.346-99.475,16.346c-3.228,0.001-6.094,2.066-7.114,5.129l-6.859,20.578H58.914
			c-0.358,0-0.714,0.012-1.069,0.027V88.903c0-28.939,23.544-52.483,52.483-52.483h68.552c8.956,0,16.48,6.455,17.893,15.347
			c0.359,2.26,1.73,4.232,3.723,5.356c8.468,4.776,13.729,13.669,13.729,23.21v43.941c-0.355-0.016-0.71-0.027-1.069-0.027h-8.569
			c-4.142,0-7.5,3.358-7.5,7.5c0,4.142,3.358,7.5,7.5,7.5h8.569c5.314,0,9.638,4.323,9.638,9.638s-4.323,9.638-9.638,9.638
			c-4.142,0-7.5,3.358-7.5,7.5C205.656,204.412,174.425,235.644,136.035,235.644z M186.379,260.283v-26.31
			c7.461-5.543,13.982-12.276,19.276-19.928v19.781c-8.399,8.154-14.946,17.895-19.329,28.543
			C186.355,261.676,186.379,260.982,186.379,260.283z M298.548,433.756c-8.257,10.087-20.661,16.113-33.979,16.113
			c-13.302,0-25.714-6.03-33.974-16.114l4.78-1.593c6.572-2.19,10.988-8.317,10.988-15.244v-5.978
			c5.796,1.627,11.898,2.516,18.207,2.516c6.309,0,12.411-0.889,18.207-2.516v5.978c-0.001,6.926,4.414,13.053,10.987,15.243
			L298.548,433.756z M324.553,329.903c-4.142,0-7.5,3.358-7.5,7.5v7.457c0,0.065-0.001,0.13,0,0.195v0.917
			c-0.001,28.939-23.545,52.483-52.484,52.483c-28.939,0-52.482-23.544-52.482-52.483v-8.569c0-4.142-3.358-7.5-7.5-7.5h-8.569
			c-5.314,0-9.638-4.323-9.638-9.638c0-3.42,1.81-6.515,4.841-8.279c0.677-0.394,1.266-0.893,1.776-1.457
			c18.54-0.537,78.639-4.026,118.138-26.597c3.596-2.055,4.846-6.636,2.791-10.233c-2.055-3.597-6.638-4.846-10.233-2.791
			c-34.602,19.772-88.974,23.731-108.744,24.522v-0.872c0-13.949,4.224-27.458,11.878-38.847c0.599,0.949,1.4,1.773,2.386,2.382
			c1.205,0.744,2.572,1.12,3.943,1.12c1.146,0,2.295-0.263,3.354-0.792l48.06-24.03l48.06,24.03
			c1.059,0.529,2.208,0.792,3.354,0.792c1.372,0,2.739-0.376,3.943-1.12c0.985-0.609,1.786-1.434,2.385-2.382
			c7.654,11.389,11.878,24.898,11.878,38.847v10.946c0,2.67,1.419,5.139,3.728,6.482c3.032,1.765,4.842,4.859,4.842,8.279
			c0,5.314-4.324,9.638-9.638,9.638H324.553z M384.535,372.748c-20.764,0-40.028-10.571-51.242-27.849
			c13.506-0.093,24.466-11.106,24.466-24.633c0-7.16-3.199-13.947-8.569-18.584v-7.123c0-3.019-0.163-6.021-0.482-8.995
			c11.121,5.214,23.263,7.925,35.827,7.925c9.145,0,18.189-1.515,26.776-4.379v10.983c0,10.133,6.079,19.113,15.487,22.876
			l16.173,6.469C435.22,355.066,411.55,372.748,384.535,372.748z"/>
	</g>
</g>
<g>
	<g>
		<path d="M286.432,357.285c-3.217-2.609-7.94-2.117-10.549,1.101c-3.031,3.736-7.048,5.793-11.313,5.793
			c-4.265,0-8.283-2.057-11.313-5.793c-2.609-3.217-7.333-3.71-10.549-1.101c-3.217,2.609-3.71,7.332-1.101,10.549
			c5.848,7.209,14.217,11.345,22.963,11.345c8.746,0,17.115-4.135,22.963-11.344C290.141,364.618,289.648,359.894,286.432,357.285z"/>
	</g>
</g>
<g>
	<g>
		<circle cx="239" cy="328.868" r="7.5"/>
	</g>
</g>
<g>
	<g>
		<circle cx="290" cy="328.868" r="7.5"/>
	</g>
</g>
<g>
</g>
<g>
</g>
<g>
</g>
<g>
</g>
<g>
</g>
<g>
</g>
<g>
</g>
<g>
</g>
<g>
</g>
<g>
</g>
<g>
</g>
<g>
</g>
<g>
</g>
<g>
</g>
<g>
</g>
</symbol><symbol id="features-icon-3" viewBox="0 0 64 64"><g id="Smart_home" data-name="Smart home"><path d="m43 56h-1v-28.36l3.463 2.2a1 1 0 0 0 1.537-.84v-4a1 1 0 0 0 -.463-.844l-22-14a1 1 0 0 0 -1.074 0l-22 14a1 1 0 0 0 -.463.844v4a1 1 0 0 0 1.537.844l3.463-2.204v28.36h-1a3 3 0 0 0 0 6h38a3 3 0 0 0 0-6zm-40-30.451 21-13.363 21 13.363v1.63l-20.463-13.023a1 1 0 0 0 -1.074 0l-20.463 13.023zm5 .818 16-10.181 16 10.181v29.633h-9v-17a1 1 0 0 0 -1-1h-12a1 1 0 0 0 -1 1v17h-9zm21 29.633h-10v-16h10zm14 4h-38a1 1 0 0 1 0-2h38a1 1 0 0 1 0 2z"/><path d="m59 32h-10a3 3 0 0 0 -3 3v16a3 3 0 0 0 3 3h10a3 3 0 0 0 3-3v-16a3 3 0 0 0 -3-3zm-10 2h10a1 1 0 0 1 1 1v10h-12v-10a1 1 0 0 1 1-1zm10 18h-10a1 1 0 0 1 -1-1v-4h12v4a1 1 0 0 1 -1 1z"/><path d="m44 4a12.95 12.95 0 0 1 9.194 3.809l1.412-1.418a15 15 0 0 0 -21.212 0l1.412 1.418a12.95 12.95 0 0 1 9.194-3.809z"/><path d="m44 6a10.929 10.929 0 0 0 -7.777 3.223l1.414 1.414a9 9 0 0 1 12.726 0l1.414-1.414a10.929 10.929 0 0 0 -7.777-3.223z"/><path d="m48.95 12.056a6.987 6.987 0 0 0 -9.9 0l1.42 1.408a4.988 4.988 0 0 1 7.06 0z"/><path d="m41 17a3 3 0 1 0 3-3 3 3 0 0 0 -3 3zm4 0a1 1 0 1 1 -1-1 1 1 0 0 1 1 1z"/><path d="m49 16h2v2h-2z"/><path d="m53 16h2v2h-2z"/><path d="m53 20h2v2h-2z"/><path d="m53 24h2v2h-2z"/><path d="m53 28h2v2h-2z"/><path d="m53 49h2v2h-2z"/><path d="m57 38h2v-2a1 1 0 0 0 -1-1h-2v2h1z"/><path d="m25 47h2v2h-2z"/></g></symbol><symbol id="features-icon-4" viewBox="0 0 609.62 609.62"><g><g id="Page-1_58_"><g id="_x30_59---House-Plans"><path id="Shape_152_" d="m50.802 0c-28.043.034-50.768 22.759-50.802 50.802v508.017.173c.056 28.006 22.796 50.668 50.802 50.629h538.498c11.223 0 20.321-9.098 20.321-20.321v-487.697c0-11.223-9.098-20.321-20.321-20.321h-487.697v-30.48c-.033-28.043-22.758-50.768-50.801-50.802zm0 20.321c16.834 0 30.481 13.647 30.481 30.481v40.54.102.102l.203 426.805c-12.138-9.165-27.724-12.457-42.531-8.982-6.747 1.548-13.095 4.494-18.634 8.646v-467.213c0-16.835 13.647-30.481 30.481-30.481zm538.498 81.282v487.697h-538.498c-8.109 0-15.883-3.231-21.604-8.978-5.72-5.747-8.915-13.537-8.877-21.645v-.152c.025-2.367.304-4.724.833-7.031 2.648-11.065 11.288-19.704 22.353-22.353 8.951-2.161 18.399-.196 25.746 5.354 6.062 4.624 14.23 5.385 21.042 1.961 6.927-3.428 11.31-10.489 11.308-18.218v-416.635z"/><path id="Shape_151_" d="m152.405 406.414h264.169v10.16c0 5.611 4.549 10.16 10.16 10.16s10.16-4.549 10.16-10.16v-40.641c0-5.611-4.549-10.16-10.16-10.16s-10.16 4.549-10.16 10.16v10.16h-152.405v-111.764h162.565c5.611 0 10.16-4.549 10.16-10.16s-4.549-10.16-10.16-10.16h-30.481v-111.764h142.245c5.611 0 10.16 4.549 10.16 10.16v101.603h-50.802c-5.611 0-10.16 4.549-10.16 10.16s4.549 10.16 10.16 10.16h50.802v101.603c0 5.611-4.549 10.16-10.16 10.16h-30.481v-10.16c0-5.611-4.549-10.16-10.16-10.16s-10.16 4.549-10.16 10.16v40.641c0 5.611 4.549 10.16 10.16 10.16s10.16-4.549 10.16-10.16v-10.16h30.481c16.834 0 30.481-13.647 30.481-30.481v-223.526c0-16.834-13.647-30.481-30.481-30.481h-386.093c-16.834 0-30.481 13.647-30.481 30.481v223.527c0 16.835 13.647 30.482 30.481 30.482zm91.443-20.321h-91.443c-5.611 0-10.16-4.549-10.16-10.16v-101.604h101.603zm-91.443-243.848h223.527v111.764h-219.321l43.618-43.618c3.85-3.987 3.795-10.324-.124-14.243s-10.256-3.974-14.243-.124l-43.618 43.618v-87.237c.001-5.611 4.55-10.16 10.161-10.16z"/><path id="Shape_150_" d="m538.498 447.055h-40.641-50.802l-206.58.061c-1.377-.003-2.739.277-4.003.823l-96.696 41.363c-7.474 3.201-12.321 10.549-12.321 18.68s4.847 15.479 12.321 18.68l49.298 21.134.122.051 45.396 19.457c2.515 1.072 5.221 1.625 7.956 1.626l255.309-.03h40.641c16.834 0 30.481-13.647 30.481-30.481v-60.881c0-16.836-13.647-30.483-30.481-30.483zm-50.802 60.962v40.591h-30.481v-81.232h30.481zm-50.801-10.16h-182.887v-30.4l182.886-.081v30.481zm-203.207 47.001-30.481-13.066v-47.51l30.481-13.026zm20.32-26.681h182.886v30.42l-182.886.061zm-71.122-25.197v30.105l-35.145-15.068zm355.612 55.587h-30.481v-81.191h30.481c5.611 0 10.16 4.549 10.16 10.16v60.871c0 5.611-4.549 10.16-10.16 10.16z"/></g></g></g></symbol><symbol id="intro-icon-1" viewBox="0 0 601.357 601.357"><g><g id="Page-1_77_"><g id="_x30_78---Building-Wall"><path id="Shape_206_" d="m557.662 171.423-57.104 18.129v-9.664c-.02-3.519-.979-6.969-2.778-9.994 1.799-3.025 2.758-6.475 2.778-9.994v-59.962c0-11.039-8.949-19.988-19.988-19.988h-139.913c-3.519.02-6.969.979-9.994 2.778-3.025-1.799-6.475-2.758-9.994-2.778h-59.963v-59.962c.001-11.039-8.948-19.988-19.987-19.988h-139.913c-3.519.02-6.969.979-9.994 2.778-3.024-1.799-6.474-2.758-9.993-2.778h-59.963c-11.039 0-19.987 8.949-19.987 19.988v59.962c.02 3.519.979 6.969 2.778 9.994-1.799 3.025-2.758 6.475-2.778 9.994v59.962c.02 3.519.979 6.969 2.778 9.994-1.799 3.025-2.758 6.475-2.778 9.994v59.963c.02 3.519.979 6.969 2.778 9.994-1.799 3.025-2.758 6.475-2.778 9.994v59.963c0 11.039 8.949 19.988 19.988 19.988h139.913c3.519-.02 6.969-.979 9.994-2.778 3.025 1.799 6.475 2.758 9.994 2.778h104.585c10.458 21.561 23.239 41.916 38.116 60.702l-20.987 20.987c-7.246-2.58-15.329-.772-20.787 4.647l-100.938 100.936c-15.606 15.61-15.606 40.915 0 56.525l6.066 6.066c15.61 15.606 40.915 15.606 56.525 0l100.937-100.937c5.42-5.458 7.227-13.541 4.647-20.787l20.987-20.987c30.764 24.166 65.455 42.86 102.556 55.266 8.318 2.699 17.37 1.963 25.143-2.043 7.773-4.007 13.624-10.952 16.251-19.293l85.147-268.183c3.631-11.703.474-24.455-8.198-33.112s-21.429-11.793-33.126-8.142zm-137.055 43.513v-35.048h59.963v15.99zm-239.85 24.915h-79.95v-59.963h139.913v59.963zm-159.901-59.963h59.963v59.963h-59.963zm0-79.95h139.913v59.962h-139.913zm321.26 139.913h-80.89c-.18 0-.33-.1-.52-.1v-59.863h139.914v41.394zm138.454-139.913v59.962h-139.913v-59.962zm-159.901 0v59.962h-139.912v-59.962zm-79.95-79.95v59.962h-139.913v-59.962zm-219.863 0h59.963v59.962h-59.963zm0 299.813v-59.963h139.913v59.963zm159.901 0v-59.963h101.717c-13.096 7.791-19.03 23.627-14.281 38.106 1.999 5.996 4.657 13.422 8.115 21.856h-95.551zm229.107 22.556c3.903-3.901 10.229-3.901 14.131 0l3.997 3.998c3.901 3.903 3.901 10.229 0 14.131l-91.863 91.873-18.179-18.179zm-180.708 233.204c-7.907 7.553-20.356 7.553-28.262 0l-6.066-6.066c-7.803-7.805-7.803-20.457 0-28.262l100.937-100.937 34.319 34.319zm350.782-368.88-85.157 268.153c-1.031 3.292-3.348 6.028-6.426 7.585-2.983 1.555-6.468 1.839-9.664.79-34.135-11.402-66.109-28.466-94.581-50.479l58.054-58.054c11.704-11.708 11.704-30.686 0-42.394l-3.998-3.998c-11.708-11.704-30.686-11.704-42.394 0l-58.114 57.994c-22.016-28.473-39.087-60.446-50.499-94.581-1.056-3.195-.771-6.682.79-9.664 1.563-3.084 4.306-5.405 7.605-6.436l198.756-63.091h.16l69.167-21.986c4.588-1.409 9.58-.174 12.981 3.213s4.658 8.373 3.269 12.967z"/></g></g></g></symbol><symbol id="intro-icon-2" viewBox="0 0 609.62 609.62"><g><g id="Page-1"><g id="_x30_01---Building-Contract"><path id="Shape" d="m589.3 482.616h-50.802v-50.802c0-11.223-9.098-20.321-20.321-20.321h-50.802v-165.339c1.555-.792 2.987-1.544 4.267-2.235 9.757-5.324 15.834-15.545 15.85-26.661l.203-69.934c0-16.834-13.647-30.481-30.481-30.481h-81.283v-40.64c0-22.446-18.196-40.641-40.641-40.641h-182.885c-22.446 0-40.641 18.196-40.641 40.641v40.641h-81.283c-16.834 0-30.481 13.647-30.481 30.481l.203 69.903c.015 11.142 6.108 21.388 15.891 26.722 1.26.681 2.682 1.422 4.227 2.205v226.301c0 16.834 13.647 30.481 30.481 30.481h111.764v50.802c0 11.223 9.098 20.321 20.321 20.321h121.923c3.578-.02 7.085-.995 10.16-2.825 3.075 1.829 6.583 2.804 10.16 2.825h121.924c3.578-.02 7.085-.995 10.16-2.825 3.075 1.829 6.582 2.804 10.16 2.825h121.926c11.223 0 20.321-9.098 20.321-20.321v-50.802c-.001-11.223-9.099-20.321-20.321-20.321zm-71.123-50.802v50.802h-121.924v-50.802zm-213.367 50.802h-50.802v-50.802h121.924v50.802zm91.443-71.122h-71.122v-50.802h121.924v50.802zm-264.169-335.291c0-11.223 9.098-20.321 20.321-20.321h182.886c11.223 0 20.321 9.098 20.321 20.321v40.641h-20.321v-30.481c0-5.611-4.549-10.16-10.16-10.16h-162.566c-5.611 0-10.16 4.549-10.16 10.16v30.481h-20.321zm182.886 40.641h-142.244v-20.321h142.244zm-284.489 20.321h426.734c5.611 0 10.16 4.549 10.16 10.16l-.203 69.934c-.001 3.683-2.011 7.072-5.243 8.839-2.317 1.25-5.192 2.723-8.535 4.328l-.356.173c-24.497 11.674-76.152 30.918-158.39 36.811v-8.321c0-11.223-9.098-20.321-20.321-20.321h-60.962c-11.223 0-20.321 9.098-20.321 20.321v8.321c-82.299-5.893-133.913-25.137-158.379-36.831-.132-.061-.244-.132-.376-.183-3.312-1.595-6.177-3.048-8.484-4.308-3.25-1.778-5.275-5.185-5.283-8.89l-.203-69.873c.002-5.611 4.551-10.16 10.162-10.16zm243.848 162.565h-60.962v-40.641h60.962zm-50.802 20.321h40.641v20.321c0 5.611-4.549 10.16-10.16 10.16h-20.321c-5.611 0-10.16-4.549-10.16-10.16zm-172.725 162.565c-5.611 0-10.16-4.549-10.16-10.16v-217.066c48.775 18.769 100.213 29.698 152.405 32.381v11.959c.022 7.227 3.894 13.895 10.16 17.496v23.145c0 16.834 13.647 30.481 30.481 30.481h20.321c16.834 0 30.481-13.647 30.481-30.481v-23.145c6.266-3.601 10.139-10.269 10.16-17.496v-11.959c52.192-2.682 103.631-13.611 152.405-32.381v84.981h-121.924c-11.223 0-20.321 9.098-20.321 20.321v50.802h-50.802c-11.223 0-20.321 9.098-20.321 20.321v50.802h-182.885zm132.084 71.122v-50.802h121.924v50.802zm142.245 0v-50.802h121.924v50.802zm142.245 0v-50.802h121.924v50.802z"/><path id="Path" clip-rule="evenodd" d="m101.603 441.975h-20.32v-20.321c0-5.611-4.549-10.16-10.16-10.16s-10.16 4.549-10.16 10.16v30.481c0 5.611 4.549 10.16 10.16 10.16h30.481c5.611 0 10.16-4.549 10.16-10.16s-4.549-10.16-10.161-10.16z" fill-rule="evenodd"/></g></g></g></symbol><symbol id="intro-icon-3" viewBox="0 0 61 61"><g id="Page-1" fill-rule="evenodd"><g id="010---Housing-Document-Approval"><g fill-rule="nonzero"><path id="Shape" d="m3 47h25.292c1.2605928 6.6504027 6.5656809 11.7904281 13.2525949 12.840253s13.3118859-2.2172178 16.5497852-8.1613712c3.2378993-5.9441533 2.3896328-13.2820185-2.119047-18.3306576-4.5086799-5.0486391-11.7043067-6.7180033-17.9753331-4.1702242v-26.178c0-1.65685425-1.3431458-3-3-3h-27c-.25990155.01257293-.50735299.11508853-.7.29l-7 7c-.18289899.19238492-.28953458.44475582-.3.71v36c0 1.6568542 1.34314575 3 3 3zm41-17c7.7319865 0 14 6.2680135 14 14s-6.2680135 14-14 14-14-6.2680135-14-14c.0082673-7.7285595 6.2714405-13.9917327 14-14zm-37-26.586v2.586c0 .55228475-.44771525 1-1 1h-2.586zm-5 5.586h4c1.65685425 0 3-1.34314575 3-3v-4h26c.5522847 0 1 .44771525 1 1v27.165c-1.3251479.7693939-2.5336725 1.7240239-3.589 2.835h-11.411c-.5522847 0-1 .4477153-1 1s.4477153 1 1 1h9.782c-.4303567.6379516-.813703 1.3063846-1.147 2h-8.635c-.5522847 0-1 .4477153-1 1s.4477153 1 1 1h7.811c-.5355632 1.6126747-.8093645 3.3007222-.811 5 0 .338.03.668.051 1h-25.051c-.55228475 0-1-.4477153-1-1z"/><path id="Shape" d="m7.74 18.271c.31839797.3818293.76759503.6313833 1.26.7v9.029c0 1.6568542 1.3431458 3 3 3h14c1.6568542 0 3-1.3431458 3-3v-9.03c.492405-.0686167.941602-.3181707 1.26-.7l1.282-1.548c.3398661-.4107109.5011208-.9404115.4477595-1.4708311-.0533614-.5304196-.316895-1.0173856-.7317595-1.3521689l-2.258-1.824v-5.075c0-1.1045695-.8954305-2-2-2h-2c-1.1045695 0-2 .8954305-2 2v.224l-2.731-2.208c-.7423003-.59345309-1.7966997-.59345309-2.539 0l-10.988 8.884c-.41486447.3347833-.67839809.8217493-.73175947 1.3521689-.05336137.5304196.10789335 1.0601202.44775947 1.4708311zm13.26 10.729h-4v-5c0-.5522847.4477153-1 1-1h2c.5522847 0 1 .4477153 1 1zm6-1c0 .5522847-.4477153 1-1 1h-3v-5c0-1.6568542-1.3431458-3-3-3h-2c-1.6568542 0-3 1.3431458-3 3v5h-3c-.5522847 0-1-.4477153-1-1v-9.8l8-6.345 8 6.345zm-2-21h2v3.458l-2-1.617zm-5.988-.429 10.988 8.877-1.281 1.552c-.0070008.0031231-.0149992.0031231-.022 0-.006-.006-.015-.009-.022-.015l-9.054-7.185c-.3638252-.28825258-.8781748-.28825258-1.242 0l-9.098 7.2-1.281-1.544z"/><path id="Shape" d="m33 46c-.001821.7959796.3146651 1.5596508.879 2.121l4 4c1.1357146 1.1353822 2.9641081 1.1750532 4.148.09l12-11c.8959574-.8193926 1.2096879-2.0980366.7947453-3.2390741-.4149427-1.1410376-1.4767358-1.9194671-2.6897453-1.9719259-.796095-.0378704-1.5740243.2457009-2.159.787l-9.882 9.059-1.97-1.969c-1.1870572-1.1329556-3.0549428-1.1329556-4.242 0-.564451.5620902-.8809098 1.3264157-.879 2.123zm2.293-.707c.3904999-.3903819 1.0235001-.3903819 1.414 0l2.647 2.646c.3784895.3780378.9874621.3912571 1.382.03l10.588-9.706c.2633047-.2415115.6354532-.324206.9762607-.2169332.3408075.1072729.5984973.3882157.676.737.0775028.3487844-.036956.7124217-.3002607.9539332l-12 11c-.3993735.3485927-.9986591.33515-1.382-.031l-4-4c-.3903819-.3904999-.3903819-1.0235001 0-1.414z"/></g><path id="Path" d="m5 35h12c.5522847 0 1-.4477153 1-1s-.4477153-1-1-1h-12c-.55228475 0-1 .4477153-1 1s.44771525 1 1 1z"/><path id="Path" d="m5 39h12c.5522847 0 1-.4477153 1-1s-.4477153-1-1-1h-12c-.55228475 0-1 .4477153-1 1s.44771525 1 1 1z"/><path id="Path" d="m5 43h12c.5522847 0 1-.4477153 1-1s-.4477153-1-1-1h-12c-.55228475 0-1 .4477153-1 1s.44771525 1 1 1z"/></g></g></symbol><symbol id="intro-icon-4" viewBox="0 0 609.62 609.62"><g><g id="Page-1_1_"><g id="_x30_02---House-Errection-Calendar"><path id="Shape_3_" d="m50.802 609.62h508.017c28.043-.034 50.768-22.759 50.802-50.802v-457.215c-.034-28.043-22.759-50.768-50.802-50.802h-20.321v-15.24c0-19.64-15.921-35.561-35.561-35.561s-35.561 15.921-35.561 35.561v15.241h-60.962v-15.241c0-19.64-15.922-35.561-35.562-35.561s-35.561 15.921-35.561 35.561v15.241h-60.962v-15.241c0-19.64-15.921-35.561-35.561-35.561s-35.561 15.921-35.561 35.561v15.241h-60.962v-15.241c0-19.64-15.922-35.561-35.561-35.561s-35.562 15.921-35.562 35.561v15.241h-20.32c-28.043.033-50.768 22.758-50.802 50.801v457.215c.034 28.044 22.759 50.769 50.802 50.802zm538.498-50.801c0 16.834-13.647 30.481-30.481 30.481h-508.017c-16.834 0-30.481-13.647-30.481-30.481v-396.254h568.979zm-101.604-523.258c0-8.417 6.823-15.241 15.241-15.241s15.241 6.823 15.241 15.241v50.802c0 8.417-6.823 15.241-15.241 15.241s-15.241-6.823-15.241-15.241zm-132.084 0c0-8.417 6.823-15.241 15.241-15.241s15.241 6.823 15.241 15.241v50.802c0 8.417-6.823 15.241-15.241 15.241s-15.241-6.823-15.241-15.241zm-132.085 0c0-8.417 6.823-15.241 15.241-15.241 8.417 0 15.241 6.823 15.241 15.241v50.802c0 8.417-6.823 15.241-15.241 15.241-8.417 0-15.241-6.823-15.241-15.241zm-132.084 0c0-8.417 6.823-15.241 15.241-15.241s15.241 6.823 15.241 15.241v50.802c0 8.417-6.823 15.241-15.241 15.241s-15.241-6.824-15.241-15.241zm-71.122 66.042c0-16.834 13.647-30.481 30.481-30.481h20.321v15.241c0 19.64 15.921 35.561 35.561 35.561s35.561-15.921 35.561-35.561v-15.241h60.962v15.241c0 19.64 15.921 35.561 35.561 35.561s35.561-15.921 35.561-35.561v-15.241h60.962v15.241c0 19.64 15.921 35.561 35.561 35.561s35.561-15.921 35.561-35.561v-15.241h60.962v15.241c0 19.64 15.921 35.561 35.561 35.561s35.561-15.921 35.561-35.561v-15.241h20.321c16.834 0 30.481 13.647 30.481 30.481v40.641h-568.978z"/><path id="Shape_1_" d="m59.052 378.981c3.528 4.154 8.576 6.716 14.011 7.112h1.422c2.317 0 4.617-.403 6.797-1.189v123.113c0 8.084 3.211 15.837 8.928 21.553 5.716 5.716 13.469 8.928 21.553 8.928h223.527c4.733-.052 9.389-1.21 13.595-3.383 49.229 44.282 123.638 45.271 174.027 2.313s61.182-116.588 25.245-172.202-107.5-76.024-167.368-47.735l-15.017-13.432v-70.37c0-11.223-9.098-20.321-20.321-20.321h-30.481c-11.223 0-20.321 9.098-20.321 20.321v6.777l-57.64-51.543c-7.676-6.869-19.289-6.869-26.966 0l-162.564 145.433c-8.27 7.566-9.077 20.316-1.829 28.866zm42.551 129.036v-139.268l121.924-109.132 108.563 97.214c-36.709 47.634-36.337 114.126.904 161.346h-58.666v-81.283c0-16.834-13.647-30.481-30.481-30.481h-40.641c-16.834 0-30.481 13.647-30.481 30.481v81.283h-60.962c-5.611 0-10.16-4.549-10.16-10.16zm91.443 10.16v-81.283c0-5.611 4.549-10.16 10.16-10.16h40.641c5.611 0 10.16 4.549 10.16 10.16v81.283zm355.612-81.282c0 61.725-50.038 111.764-111.764 111.764s-111.763-50.039-111.763-111.764 50.038-111.764 111.764-111.764c61.695.073 111.69 50.068 111.763 111.764zm-233.688-203.207h30.481v52.204l-30.481-27.25zm-91.504-29.618 124.891 111.682.254.224 13.554 12.121c-5.875 4.071-11.413 8.607-16.561 13.564l-115.3-103.249c-3.858-3.454-9.696-3.454-13.554 0l-142.265 127.36-13.462-16.257z"/><path id="Shape_2_" d="m386.093 467.376h20.321v20.321c0 16.834 13.647 30.481 30.481 30.481s30.481-13.647 30.481-30.481v-20.321h20.321c16.834 0 30.481-13.647 30.481-30.481s-13.647-30.481-30.481-30.481h-20.321v-20.321c0-16.834-13.647-30.481-30.481-30.481s-30.481 13.647-30.481 30.481v20.321h-20.321c-16.834 0-30.481 13.647-30.481 30.481s13.647 30.481 30.481 30.481zm0-40.642h30.481c5.611 0 10.16-4.549 10.16-10.16v-30.481c0-5.611 4.549-10.16 10.16-10.16s10.16 4.549 10.16 10.16v30.481c0 5.611 4.549 10.16 10.16 10.16h30.481c5.611 0 10.16 4.549 10.16 10.16s-4.549 10.16-10.16 10.16h-30.481c-5.611 0-10.16 4.549-10.16 10.16v30.481c0 5.611-4.549 10.16-10.16 10.16s-10.16-4.549-10.16-10.16v-30.481c0-5.611-4.549-10.16-10.16-10.16h-30.481c-5.611 0-10.16-4.549-10.16-10.16-.001-5.611 4.548-10.16 10.16-10.16z"/></g></g></g></symbol><symbol id="login" viewBox="0 0 490.66667 490.66667"><path d="m437.332031 490.667969h-234.664062c-29.421875 0-53.335938-23.9375-53.335938-53.335938v-128c0-5.886719 4.78125-10.664062 10.667969-10.664062s10.667969 4.777343 10.667969 10.664062v128c0 17.644531 14.355469 32 32 32h234.664062c17.644531 0 32-14.355469 32-32v-384c0-17.640625-14.355469-32-32-32h-234.664062c-17.644531 0-32 14.359375-32 32v128c0 5.890625-4.78125 10.667969-10.667969 10.667969s-10.667969-4.777344-10.667969-10.667969v-128c0-29.394531 23.914063-53.332031 53.335938-53.332031h234.664062c29.421875 0 53.335938 23.9375 53.335938 53.332031v384c0 29.398438-23.914063 53.335938-53.335938 53.335938zm0 0"/><path d="m352 256h-341.332031c-5.890625 0-10.667969-4.777344-10.667969-10.667969 0-5.886719 4.777344-10.664062 10.667969-10.664062h341.332031c5.886719 0 10.667969 4.777343 10.667969 10.664062 0 5.890625-4.78125 10.667969-10.667969 10.667969zm0 0"/><path d="m288 320c-2.730469 0-5.460938-1.046875-7.550781-3.113281-4.160157-4.160157-4.160157-10.925781 0-15.085938l56.46875-56.46875-56.449219-56.445312c-4.160156-4.160157-4.160156-10.925781 0-15.085938 4.160156-4.15625 10.921875-4.15625 15.082031 0l64 64c4.160157 4.160157 4.160157 10.925781 0 15.085938l-64 64c-2.089843 2.066406-4.820312 3.113281-7.550781 3.113281zm0 0"/></symbol><symbol id="logo" viewBox="0 0 145 23">
<path d="M144.193 5.75894C144.174 6.48546 143.918 6.78814 143.192 6.87518C141.865 7.03475 140.534 7.15865 139.234 7.29431C137.97 7.16688 136.749 7.05122 135.529 6.91752C134.856 6.84342 134.549 6.53211 134.518 5.84677C134.486 5.15162 134.49 4.45294 134.517 3.75701C134.54 3.15086 134.935 2.73644 135.532 2.63097C138.087 2.1789 140.642 2.22399 143.194 2.64939C143.84 2.75721 144.178 3.16458 144.194 3.83385C144.209 4.4749 144.21 5.11751 144.193 5.75894ZM143.266 2.01031C140.659 1.56217 138.048 1.51865 135.438 1.99541C134.566 2.1542 133.977 2.68272 133.896 3.55352C133.819 4.38825 133.817 5.24454 133.909 6.07731C134.011 6.99555 134.479 7.44643 135.293 7.54484C136.602 7.70324 137.917 7.81969 139.263 7.95731C140.646 7.80753 142.049 7.65776 143.451 7.50368C144.184 7.4233 144.66 7.00417 144.745 6.29099C144.84 5.49508 144.84 4.68505 144.841 3.88129C144.842 2.85249 144.282 2.18479 143.266 2.01031Z"/>
<path d="M32.0675 0.502983H31.6135V22.7736H32.0675V0.502983Z"/>
<path d="M56.3721 5.06814L50.7082 15.7922L45.045 5.06735H42.4377V17.5663H43.9084V6.53803H44.1586L49.9825 17.5663H51.4351L57.2586 6.53803H57.5083V17.5663H58.9786V5.06735H56.3721V5.06814Z"/>
<path d="M64.1731 13.3997L67.3211 6.53803H68.6706L71.8189 13.3997H64.1731ZM66.3777 5.06735L60.6436 17.5663H62.2617L63.4983 14.8704H72.4937L73.7299 17.5663H75.3484L69.6139 5.06735H66.3777Z"/>
<path d="M90.2434 16.0956H89.7525L79.6162 5.06735H77.0089V17.5663H78.4796V6.53803H78.8975L89.1072 17.5663H91.7141V5.06735H90.2434V16.0956Z"/>
<path d="M95.8048 7.09731C95.8135 6.92126 95.8872 6.75581 96.0122 6.63074C96.1373 6.50645 96.3028 6.43352 96.4788 6.42529C98.2471 6.34413 99.8699 6.30296 101.639 6.30296C103.406 6.30296 105.029 6.34413 106.798 6.42529C106.973 6.43352 107.139 6.50645 107.264 6.63074C107.389 6.75581 107.463 6.92126 107.472 7.09731C107.49 7.4588 107.506 7.82108 107.519 8.18414H108.99C108.976 7.79716 108.96 7.41058 108.941 7.02399C108.884 5.90344 107.985 5.00794 106.865 4.95618C105.065 4.87385 103.437 4.83268 101.638 4.83268C99.8385 4.83268 98.2102 4.87385 96.411 4.95618C95.29 5.00794 94.3914 5.90344 94.3357 7.02399C94.3161 7.41058 94.2993 7.79716 94.2855 8.18414L94.2887 9.98416C94.3447 11.1047 95.2434 12.0002 96.3639 12.0516H106.848C107.023 12.0598 107.189 12.1323 107.314 12.257C107.439 12.3817 107.513 12.5472 107.522 12.7236L107.518 14.4499C107.505 14.8126 107.489 15.1748 107.471 15.5363C107.462 15.7124 107.389 15.8782 107.263 16.0029C107.139 16.1276 106.973 16.2005 106.797 16.2084C105.028 16.2895 103.406 16.3311 101.637 16.3311C99.8687 16.3311 98.2459 16.2895 96.478 16.2084C96.3016 16.2005 96.1361 16.1276 96.0115 16.0029C95.8864 15.8782 95.8123 15.7124 95.8037 15.5363C95.7856 15.1748 95.7699 14.8126 95.7566 14.4499H94.2852C94.2993 14.8365 94.3161 15.2231 94.3353 15.61C94.3914 16.7306 95.29 17.6257 96.411 17.6775C98.2102 17.7598 99.8385 17.8014 101.638 17.8014C103.437 17.8014 105.066 17.7598 106.865 17.6775C107.985 17.6261 108.884 16.7306 108.941 15.61C108.96 15.2231 108.976 14.8365 108.99 14.4499L108.989 12.6499C108.932 11.5293 108.034 10.6338 106.914 10.5825H96.4294C96.2538 10.5742 96.0879 10.5013 95.9632 10.3766C95.8386 10.2523 95.7644 10.0865 95.7558 9.91045L95.7574 8.18414C95.7711 7.82108 95.7868 7.4588 95.8048 7.09731Z"/>
<path d="M113.033 5.06735H111.562V17.5663H113.033V5.06735Z"/>
<path d="M129.346 15.5313C129.337 15.7077 129.263 15.8732 129.138 15.9979C129.013 16.1225 128.848 16.1955 128.672 16.2033C126.903 16.2845 125.11 16.326 123.341 16.326C121.573 16.326 119.78 16.2845 118.011 16.2033C117.835 16.1955 117.67 16.1225 117.545 15.9979C117.42 15.8732 117.346 15.7077 117.337 15.5313C117.197 12.7358 117.197 9.89992 117.337 7.10246C117.346 6.92642 117.42 6.76057 117.545 6.63589C117.67 6.51161 117.835 6.43868 118.011 6.43045C119.78 6.34929 121.573 6.30812 123.341 6.30812C125.11 6.30812 126.903 6.34929 128.672 6.43045C128.848 6.43868 129.013 6.51161 129.138 6.63589C129.263 6.76057 129.337 6.92642 129.346 7.10246C129.486 9.89992 129.486 12.7358 129.346 15.5313ZM128.739 4.96134C126.94 4.87901 125.141 4.83784 123.341 4.83784C121.542 4.83784 119.743 4.87901 117.944 4.96134C116.823 5.0127 115.924 5.90859 115.868 7.02875C115.725 9.88777 115.725 12.7468 115.868 15.605C115.924 16.7252 116.823 17.6211 117.944 17.6724C119.743 17.7548 121.542 17.7963 123.341 17.7963C125.14 17.7963 126.94 17.7548 128.739 17.6724C129.86 17.6211 130.758 16.7252 130.814 15.605C130.958 12.7468 130.958 9.88777 130.814 7.02875C130.758 5.90859 129.86 5.0127 128.739 4.96134Z"/>
<path d="M136.482 3.75528C136.509 3.72861 136.544 3.71293 136.582 3.71136C136.959 3.69411 137.341 3.68549 137.718 3.68549C138.095 3.68549 138.478 3.69411 138.854 3.71136C138.892 3.71293 138.927 3.72861 138.954 3.75528C138.981 3.78194 138.996 3.81723 138.998 3.85486C139.002 3.9321 139.005 4.00934 139.008 4.08697H139.322C139.319 4.00424 139.315 3.92152 139.311 3.83918C139.299 3.60001 139.108 3.40947 138.869 3.3981C138.485 3.38084 138.102 3.37183 137.718 3.37183C137.335 3.37183 136.951 3.38084 136.567 3.3981C136.328 3.40947 136.137 3.60001 136.125 3.83918C136.094 4.44847 136.094 5.05814 136.125 5.66704C136.137 5.9062 136.328 6.09714 136.567 6.10812C136.951 6.12577 137.335 6.13439 137.718 6.13439C138.102 6.13439 138.485 6.12577 138.869 6.10812C139.108 6.09714 139.299 5.9062 139.312 5.66704C139.315 5.5847 139.319 5.50237 139.322 5.42003V5.04207C139.31 4.8033 139.118 4.61235 138.879 4.60138H137.16V4.91661L138.865 4.91425C138.903 4.91621 138.938 4.9319 138.965 4.95816C138.991 4.98483 139.007 5.02011 139.009 5.05775L139.008 5.42003C139.005 5.49727 139.002 5.57451 138.998 5.65175C138.996 5.689 138.981 5.72428 138.954 5.75094C138.927 5.7776 138.892 5.79329 138.854 5.79486C138.478 5.81211 138.095 5.82073 137.718 5.82073C137.341 5.82073 136.959 5.81211 136.582 5.79486C136.544 5.79329 136.509 5.7776 136.482 5.75094C136.455 5.72428 136.44 5.689 136.438 5.65175C136.408 5.0554 136.408 4.45121 136.438 3.85486C136.44 3.81723 136.455 3.78194 136.482 3.75528Z"/>
<path d="M140.182 4.7531V3.73409H142.35C142.388 3.73605 142.423 3.75173 142.449 3.778C142.476 3.80466 142.491 3.84034 142.493 3.87759V4.6143C142.492 4.65194 142.476 4.68723 142.449 4.71389C142.422 4.74055 142.387 4.75623 142.35 4.7578L140.182 4.7531ZM142.364 5.07068C142.603 5.06009 142.794 4.86915 142.807 4.62999V3.86348C142.795 3.62431 142.604 3.43298 142.366 3.42082H139.869V6.08537H140.182V5.07068H140.955L142.447 6.08537L143.003 6.08498L141.513 5.07068H142.364Z"/>
<path d="M16.0828 0.502983L11.5163 8.63384C11.4563 8.74088 11.3018 8.74088 11.2418 8.63384L6.67496 0.502983H0.269623V22.7736L5.69398 14.791C5.75632 14.6992 5.89198 14.6992 5.95471 14.791L11.3791 22.7736L16.8034 14.791C16.8658 14.6992 17.0014 14.6992 17.0638 14.791L22.4881 22.7736V0.502983H16.0828Z"/>
</symbol><symbol id="mouse" viewBox="-105 0 512 512.00002"><path d="m150.601562 0c-83.042968 0-150.601562 67.558594-150.601562 150.601562v210.796876c0 83.042968 67.558594 150.601562 150.601562 150.601562 83.042969 0 150.601563-67.558594 150.601563-150.601562v-210.796876c0-83.042968-67.558594-150.601562-150.601563-150.601562zm119.882813 361.398438c0 66.101562-53.78125 119.882812-119.882813 119.882812-66.101562 0-119.882812-53.78125-119.882812-119.882812v-210.796876c0-66.101562 53.78125-119.882812 119.882812-119.882812 66.101563 0 119.882813 53.78125 119.882813 119.882812zm0 0"/><path d="m150.605469 101.851562c-8.484375 0-15.359375 6.875-15.359375 15.359376v70.695312c0 8.480469 6.875 15.359375 15.359375 15.359375 8.480469 0 15.359375-6.878906 15.359375-15.359375v-70.695312c0-8.484376-6.875-15.359376-15.359375-15.359376zm0 0"/></symbol><symbol id="pdf" viewBox="0 0 512 512">
<path style="fill:#E2E5E7;" d="M128,0c-17.6,0-32,14.4-32,32v448c0,17.6,14.4,32,32,32h320c17.6,0,32-14.4,32-32V128L352,0H128z"/>
<path style="fill:#B0B7BD;" d="M384,128h96L352,0v96C352,113.6,366.4,128,384,128z"/>
<polygon style="fill:#CAD1D8;" points="480,224 384,128 480,128 "/>
<path style="fill:#F15642;" d="M416,416c0,8.8-7.2,16-16,16H48c-8.8,0-16-7.2-16-16V256c0-8.8,7.2-16,16-16h352c8.8,0,16,7.2,16,16
	V416z"/>
<g>
	<path style="fill:#FFFFFF;" d="M101.744,303.152c0-4.224,3.328-8.832,8.688-8.832h29.552c16.64,0,31.616,11.136,31.616,32.48
		c0,20.224-14.976,31.488-31.616,31.488h-21.36v16.896c0,5.632-3.584,8.816-8.192,8.816c-4.224,0-8.688-3.184-8.688-8.816V303.152z
		 M118.624,310.432v31.872h21.36c8.576,0,15.36-7.568,15.36-15.504c0-8.944-6.784-16.368-15.36-16.368H118.624z"/>
	<path style="fill:#FFFFFF;" d="M196.656,384c-4.224,0-8.832-2.304-8.832-7.92v-72.672c0-4.592,4.608-7.936,8.832-7.936h29.296
		c58.464,0,57.184,88.528,1.152,88.528H196.656z M204.72,311.088V368.4h21.232c34.544,0,36.08-57.312,0-57.312H204.72z"/>
	<path style="fill:#FFFFFF;" d="M303.872,312.112v20.336h32.624c4.608,0,9.216,4.608,9.216,9.072c0,4.224-4.608,7.68-9.216,7.68
		h-32.624v26.864c0,4.48-3.184,7.92-7.664,7.92c-5.632,0-9.072-3.44-9.072-7.92v-72.672c0-4.592,3.456-7.936,9.072-7.936h44.912
		c5.632,0,8.96,3.344,8.96,7.936c0,4.096-3.328,8.704-8.96,8.704h-37.248V312.112z"/>
</g>
<path style="fill:#CAD1D8;" d="M400,432H96v16h304c8.8,0,16-7.2,16-16v-16C416,424.8,408.8,432,400,432z"/>
<g>
</g>
<g>
</g>
<g>
</g>
<g>
</g>
<g>
</g>
<g>
</g>
<g>
</g>
<g>
</g>
<g>
</g>
<g>
</g>
<g>
</g>
<g>
</g>
<g>
</g>
<g>
</g>
<g>
</g>
</symbol><symbol id="project-icon-1" viewBox="0 0 609.62 609.62"><g><g id="Page-1_72_"><g id="_x30_73---Construction-Manager"><g clip-rule="evenodd" fill-rule="evenodd"><path id="Path_78_" d="m314.944 345.451h-20.321c-5.611 0-10.16 4.549-10.16 10.16s4.549 10.16 10.16 10.16h20.321c5.611 0 10.16-4.549 10.16-10.16s-4.548-10.16-10.16-10.16z"/><path id="Path_77_" d="m253.982 223.527c-5.611 0-10.16 4.549-10.16 10.16v10.16c0 5.611 4.549 10.16 10.16 10.16s10.16-4.549 10.16-10.16v-10.16c0-5.611-4.548-10.16-10.16-10.16z"/><path id="Path_76_" d="m355.586 254.008c5.611 0 10.16-4.549 10.16-10.16v-10.16c0-5.611-4.549-10.16-10.16-10.16s-10.16 4.549-10.16 10.16v10.16c-.001 5.612 4.548 10.16 10.16 10.16z"/><path id="Path_75_" d="m294.624 294.65h20.321c5.611 0 10.16-4.549 10.16-10.16s-4.549-10.16-10.16-10.16h-20.321c-5.611 0-10.16 4.549-10.16 10.16-.001 5.611 4.548 10.16 10.16 10.16z"/></g><path id="Shape_194_" d="m391.502 427.638c-8.697-10.272-13.889-28.723-15.149-53.85l33.001-28.886c11.022-9.641 17.347-23.57 17.354-38.213v-13.056c20.128-4.044 35.82-19.845 39.725-40s-4.752-40.673-21.913-51.941c7.654-3.11 12.662-10.545 12.67-18.807v-20.321c-.024-7.355-4.034-14.119-10.475-17.669-2.944-60.263-43.815-112.014-101.756-128.843-2.012-9.358-10.282-16.045-19.855-16.052h-40.641c-9.573.007-17.843 6.694-19.853 16.053-57.941 16.829-98.812 68.58-101.756 128.843-6.441 3.55-10.451 10.314-10.475 17.669v20.321c.012 8.258 5.02 15.688 12.67 18.797-17.169 11.266-25.831 31.787-21.925 51.948 3.905 20.16 19.603 35.964 39.737 40.004v13.065c.001 14.651 6.327 28.587 17.354 38.233l33.001 28.886c-1.26 25.106-6.452 43.557-15.149 53.85-12.893 2.855-58.402 14.611-85.347 42.887-25.401 26.651-39.046 78.235-41.251 117.545-.33 5.585 1.657 11.059 5.493 15.132s9.182 6.383 14.777 6.388h386.091c5.609.01 10.973-2.299 14.822-6.38 3.848-4.081 5.838-9.571 5.499-15.17-2.205-39.31-15.81-90.894-41.241-117.545-27.006-28.277-72.555-40.033-85.408-42.888zm2.459 37.787-38.376 38.355-27.748-27.748c20.871-2.129 40.683-10.244 57.05-23.369zm-74.292 52.752h-29.77l-8.616-12.934 23.501-23.501 23.501 23.511zm-65.687-14.397-38.365-38.335 9.144-12.761c16.359 13.119 36.159 21.234 57.02 23.369zm-50.334-21.57 35.937 35.968c7.291 7.24 18.838 7.898 26.905 1.534l7.529 11.298-5.324 58.249h-47.357l-36.913-80.084zm90.081 56.288h22.109l4.633 50.802h-31.375zm41.82-7.509 7.529-11.298c8.041 6.435 19.637 5.782 26.905-1.514l35.957-35.957 19.305 26.955-37.024 80.125h-47.347zm-162.85-348.103v-20.321h264.169v20.321zm50.802-121.518v50.395c0 5.611 4.549 10.16 10.16 10.16s10.16-4.549 10.16-10.16v-64.954c6.471-3.727 13.274-6.846 20.321-9.317v53.951c0 5.611 4.549 10.16 10.16 10.16s10.16-4.549 10.16-10.16v-71.122h40.641v71.122c0 5.611 4.549 10.16 10.16 10.16s10.16-4.549 10.16-10.16v-53.951c7.047 2.471 13.849 5.59 20.321 9.317v64.955c0 5.611 4.549 10.16 10.16 10.16s10.16-4.549 10.16-10.16v-50.396c23.309 20.782 37.712 49.748 40.215 80.876h-242.992c2.502-31.127 16.905-60.093 40.214-80.876zm-20.321 245.322v-22.2c0-5.611-4.549-10.16-10.16-10.16-14.842.124-27.59-10.522-30.112-25.149s5.924-28.928 19.951-33.781v18.289c0 5.611 4.549 10.16 10.16 10.16s10.16-4.549 10.16-10.16v-30.481h203.207v30.481c0 5.611 4.549 10.16 10.16 10.16s10.16-4.549 10.16-10.16v-18.289c14.027 4.853 22.473 19.154 19.951 33.781s-15.269 25.274-30.112 25.149c-5.611 0-10.16 4.549-10.16 10.16v22.2c-.003 8.788-3.8 17.147-10.414 22.932l-55.882 48.932c-5.558 4.856-12.686 7.534-20.067 7.539h-30.481c-7.381-.001-14.511-2.679-20.067-7.539l-55.882-48.932c-6.612-5.786-10.408-14.144-10.412-22.932zm52.946 87.165c9.253 8.091 21.126 12.553 33.417 12.558h30.481c12.305-.001 24.191-4.463 33.458-12.558l3.881-3.404c1.359 16.363 6.601 32.166 15.291 46.097-8.585 7.641-28.886 20.666-67.871 20.666s-59.336-13.056-67.851-20.656c8.696-13.937 13.941-29.747 15.301-46.118zm-144.389 195.343c1.92-34.423 13.91-81.852 35.663-104.652 14.561-13.692 32.003-23.951 51.046-30.024l-30.481 42.765c-4.279 5.917-5.055 13.674-2.032 20.321l33.031 71.559zm298.857.102 33.082-71.661c3.023-6.647 2.247-14.404-2.032-20.321l-30.583-42.846c19.056 6.078 36.509 16.347 51.076 30.054 21.784 22.82 33.773 70.228 35.693 104.773h-87.236z"/><path id="Path_74_" clip-rule="evenodd" d="m280.257 331.227c7.807 3.054 16.147 4.515 24.527 4.298 8.375.219 16.71-1.235 24.517-4.277 3.309-1.499 5.566-4.65 5.922-8.265s-1.244-7.145-4.196-9.261c-2.953-2.116-6.81-2.496-10.118-.997-10.493 3.297-21.745 3.297-32.239 0-5.109-2.323-11.134-.065-13.457 5.045-2.324 5.109-.065 11.134 5.044 13.457z" fill-rule="evenodd"/></g></g></g></symbol><symbol id="project-icon-2" viewBox="0 0 609.62 609.62"><g><g id="Page-1_75_"><g id="_x30_76---Construction-Conversation"><path id="Shape_202_" d="m558.819 5.08h-304.81c-28.043.034-50.768 22.759-50.802 50.802v162.565h-152.405c-28.043.034-50.768 22.759-50.802 50.802v223.527c.03 23.375 15.979 43.725 38.67 49.339l-7.387 36.445c-1.78 6.138-.569 12.755 3.27 17.865 3.839 5.109 9.857 8.115 16.248 8.115 3.712-.016 7.353-1.011 10.557-2.886l93.932-58.076h200.321c28.043-.034 50.768-22.759 50.802-50.802v-162.565h47.916l94.237 58.188c7.204 4.178 16.228 3.538 22.769-1.615 6.371-4.849 9.204-13.051 7.183-20.798l-7.569-37.248c22.694-5.603 38.647-25.953 38.67-49.328v-223.528c-.032-28.043-22.757-50.768-50.8-50.802zm-172.726 487.696c0 16.834-13.647 30.481-30.481 30.481h-203.207c-1.884 0-3.731.524-5.334 1.514l-96.066 58.646 9.744-47.957c.613-2.99-.149-6.096-2.078-8.462-1.928-2.365-4.818-3.739-7.869-3.741-16.834 0-30.481-13.647-30.481-30.481v-223.527c0-16.834 13.647-30.481 30.481-30.481h304.81c16.834 0 30.481 13.647 30.481 30.481zm203.207-213.367c0 16.834-13.647 30.481-30.481 30.481-3.05.002-5.937 1.375-7.865 3.738s-2.692 5.467-2.082 8.455l10.11 48.881-96.432-59.55c-1.602-.993-3.449-1.521-5.334-1.524h-50.802v-40.641c-.034-28.043-22.759-50.768-50.802-50.802h-132.085v-162.565c0-16.834 13.647-30.481 30.481-30.481h304.81c16.834 0 30.481 13.647 30.481 30.481v223.527z"/><path id="Shape_201_" d="m406.414 127.004c-16.834 0-30.481 13.647-30.481 30.481s13.647 30.481 30.481 30.481 30.481-13.647 30.481-30.481-13.647-30.481-30.481-30.481zm0 40.642c-5.611 0-10.16-4.549-10.16-10.16s4.549-10.16 10.16-10.16 10.16 4.549 10.16 10.16-4.549 10.16-10.16 10.16z"/><path id="Shape_200_" d="m304.81 127.004c-16.834 0-30.481 13.647-30.481 30.481s13.647 30.481 30.481 30.481 30.481-13.647 30.481-30.481-13.647-30.481-30.481-30.481zm0 40.642c-5.611 0-10.16-4.549-10.16-10.16s4.549-10.16 10.16-10.16 10.16 4.549 10.16 10.16-4.548 10.16-10.16 10.16z"/><path id="Shape_199_" d="m508.017 127.004c-16.834 0-30.481 13.647-30.481 30.481s13.647 30.481 30.481 30.481 30.481-13.647 30.481-30.481-13.647-30.481-30.481-30.481zm0 40.642c-5.611 0-10.16-4.549-10.16-10.16s4.549-10.16 10.16-10.16 10.16 4.549 10.16 10.16-4.549 10.16-10.16 10.16z"/><path id="Shape_198_" d="m345.451 391.173h-30.481v-30.481c0-11.223-9.098-20.321-20.321-20.321h-30.481v-30.481c0-11.223-9.098-20.321-20.321-20.321h-81.283c-11.223 0-20.321 9.098-20.321 20.321v30.481h-30.481c-11.223 0-20.321 9.098-20.321 20.321v30.481h-30.479c-11.223 0-20.321 9.098-20.321 20.321v30.481c0 11.223 9.098 20.321 20.321 20.321h81.283c3.578-.02 7.085-.995 10.16-2.825 3.075 1.829 6.583 2.804 10.16 2.825h81.283c3.578-.02 7.085-.995 10.16-2.825 3.075 1.829 6.583 2.804 10.16 2.825h81.283c11.223 0 20.321-9.098 20.321-20.321v-30.481c0-11.223-9.098-20.321-20.321-20.321zm-50.801-30.481v30.481h-81.283v-30.481zm-132.085-50.802h81.283v30.481h-81.283zm-50.801 50.802h81.283v30.481h-81.283zm-50.802 81.283v-30.481h81.283v30.481zm101.603 0v-30.481h81.283v30.481zm101.604 0v-30.481h81.283v30.481z"/></g></g></g></symbol><symbol id="telegram" viewBox="0 0 24 24"><path d="m9.417 15.181-.397 5.584c.568 0 .814-.244 1.109-.537l2.663-2.545 5.518 4.041c1.012.564 1.725.267 1.998-.931l3.622-16.972.001-.001c.321-1.496-.541-2.081-1.527-1.714l-21.29 8.151c-1.453.564-1.431 1.374-.247 1.741l5.443 1.693 12.643-7.911c.595-.394 1.136-.176.691.218z"/></symbol><symbol id="whatsapp" viewBox="0 0 512 512">
<g>
	<g>
		<path d="M256.064,0h-0.128C114.784,0,0,114.816,0,256c0,56,18.048,107.904,48.736,150.048l-31.904,95.104l98.4-31.456
			C155.712,496.512,204,512,256.064,512C397.216,512,512,397.152,512,256S397.216,0,256.064,0z M405.024,361.504
			c-6.176,17.44-30.688,31.904-50.24,36.128c-13.376,2.848-30.848,5.12-89.664-19.264C189.888,347.2,141.44,270.752,137.664,265.792
			c-3.616-4.96-30.4-40.48-30.4-77.216s18.656-54.624,26.176-62.304c6.176-6.304,16.384-9.184,26.176-9.184
			c3.168,0,6.016,0.16,8.576,0.288c7.52,0.32,11.296,0.768,16.256,12.64c6.176,14.88,21.216,51.616,23.008,55.392
			c1.824,3.776,3.648,8.896,1.088,13.856c-2.4,5.12-4.512,7.392-8.288,11.744c-3.776,4.352-7.36,7.68-11.136,12.352
			c-3.456,4.064-7.36,8.416-3.008,15.936c4.352,7.36,19.392,31.904,41.536,51.616c28.576,25.44,51.744,33.568,60.032,37.024
			c6.176,2.56,13.536,1.952,18.048-2.848c5.728-6.176,12.8-16.416,20-26.496c5.12-7.232,11.584-8.128,18.368-5.568
			c6.912,2.4,43.488,20.48,51.008,24.224c7.52,3.776,12.48,5.568,14.304,8.736C411.2,329.152,411.2,344.032,405.024,361.504z"/>
	</g>
</g>
<g>
</g>
<g>
</g>
<g>
</g>
<g>
</g>
<g>
</g>
<g>
</g>
<g>
</g>
<g>
</g>
<g>
</g>
<g>
</g>
<g>
</g>
<g>
</g>
<g>
</g>
<g>
</g>
<g>
</g>
</symbol><symbol id="works-icon-1" viewBox="0 0 609.631 609.631"><g><g id="Page-1_5_"><g id="_x30_06---House-Plot" transform="translate(-1)"><path id="Shape_11_" d="m604.113 446.989-120.35-111.764c-3.765-3.494-8.713-5.432-13.849-5.426h-21.854v-62.171c2.173.789 4.465 1.198 6.777 1.209h1.382c5.458-.367 10.532-2.934 14.062-7.112l13.452-15.718c7.273-8.578 6.428-21.379-1.91-28.926l-33.763-30.237v-70.411c0-11.223-9.098-20.321-20.321-20.321h-30.481c-11.223 0-20.321 9.098-20.321 20.321v6.757l-57.619-51.574c-7.69-6.875-19.317-6.875-27.006 0l-162.504 145.404c-8.337 7.544-9.182 20.342-1.91 28.916l13.452 15.789c3.537 4.186 8.624 6.753 14.092 7.112 2.759.17 5.524-.221 8.128-1.148v62.11h-20.32c-5.108-.012-10.031 1.912-13.777 5.385l-121.925 111.764c-3.797 3.588-6.043 8.517-6.259 13.737-.122.393-.217.793-.284 1.199v60.962c-.124 5.426 1.978 10.667 5.816 14.505s9.079 5.939 14.505 5.816h568.979c5.426.124 10.667-1.978 14.505-5.816s5.939-9.079 5.816-14.505v-60.962c-.057-.443-.145-.881-.264-1.311-.254-5.164-2.492-10.032-6.249-13.584zm-267.817-46.067h-60.962v-81.283c0-5.611 4.549-10.16 10.16-10.16h40.641c5.611 0 10.16 4.549 10.16 10.16v81.283zm-10.16-111.764h-40.641c-16.834 0-30.481 13.647-30.481 30.481v81.283h-60.962c-5.611 0-10.16-4.549-10.16-10.16v-139.289l121.924-109.122 121.924 109.122v139.288c0 5.611-4.549 10.16-10.16 10.16h-60.962v-81.283c-.001-16.833-13.648-30.48-30.482-30.48zm71.122-172.726h30.481v52.224l-30.481-27.281zm-253.896 115.828 162.453-145.496 162.565 146.014-13.442 15.738-142.346-127.37c-3.858-3.454-9.696-3.454-13.554 0l-142.245 127.37zm-.112 117.86h20.321v40.641c0 16.834 13.647 30.481 30.481 30.481h223.527c16.834 0 30.481-13.647 30.481-30.481v-40.641h21.855l120.39 111.764h-568.979zm-121.924 172.726v-40.641h568.979v40.641z"/></g></g></g></symbol><symbol id="works-icon-2" viewBox="0 0 609.631 609.631"><g><g id="Page-1_6_"><g id="_x30_07---Semi-House-Plot" transform="translate(-1)"><path id="Path_6_" clip-rule="evenodd" d="m305.815 293.229c-5.611 0-10.16 4.549-10.16 10.16v10.16c0 5.611 4.549 10.16 10.16 10.16s10.16-4.549 10.16-10.16v-10.16c.001-5.611-4.548-10.16-10.16-10.16z" fill-rule="evenodd"/><path id="Path_5_" clip-rule="evenodd" d="m305.815 344.031c-5.611 0-10.16 4.549-10.16 10.16v10.16c0 5.611 4.549 10.16 10.16 10.16s10.16-4.549 10.16-10.16v-10.16c.001-5.611-4.548-10.16-10.16-10.16z" fill-rule="evenodd"/><path id="Shape_12_" d="m604.123 461.251-115.422-107.121v-104.346c2.803-.551 5.458-1.686 7.793-3.333l16.592-11.827c9.129-6.526 11.24-19.217 4.714-28.347l-18.939-26.458v-89.796c0-11.223-9.098-20.321-20.321-20.321h-20.32c-11.223 0-20.321 9.098-20.321 20.321v4.46l-24.11-33.753c-3.815-5.336-9.971-8.503-16.531-8.503s-12.716 3.167-16.531 8.503l-74.912 104.865-74.912-104.865c-3.815-5.336-9.971-8.503-16.531-8.503s-12.716 3.167-16.531 8.503l-24.11 33.753v-4.46c0-11.223-9.098-20.321-20.321-20.321h-20.32c-11.223 0-20.321 9.098-20.321 20.321v89.797l-18.909 26.467c-6.525 9.12-4.429 21.802 4.684 28.337l16.592 11.867c2.333 1.646 4.99 2.779 7.793 3.322v105.668l-115.462 105.81c-3.728 3.563-5.943 8.423-6.188 13.574-.123.409-.214.827-.274 1.25v60.962c-.124 5.426 1.978 10.667 5.816 14.505s9.079 5.939 14.505 5.816h568.979c5.426.124 10.667-1.978 14.505-5.816s5.939-9.079 5.816-14.505v-60.962c-.055-.401-.136-.798-.244-1.189-.228-5.199-2.474-10.104-6.259-13.675zm-186.544-56.258h-50.802v-81.283c0-5.611 4.549-10.16 10.16-10.16h30.481c5.611 0 10.16 4.549 10.16 10.16v81.283zm-10.16-111.764h-30.481c-16.834 0-30.481 13.647-30.481 30.481v81.283h-30.481c0-5.611-4.549-10.16-10.16-10.16s-10.16 4.549-10.16 10.16h-30.481v-81.283c0-16.834-13.647-30.481-30.481-30.481h-30.481c-16.834 0-30.481 13.647-30.481 30.481v81.283h-30.482v-163.012c.071-.102.163-.163.224-.264l70.899-99.246 73.093 102.335c2.159 2.997 5.024 5.416 8.342 7.041 0 .264-.152.478-.152.742v10.16c0 5.611 4.549 10.16 10.16 10.16s10.16-4.549 10.16-10.16v-10.16c0-.264-.132-.478-.152-.742 3.317-1.625 6.183-4.044 8.342-7.041l73.093-102.335 70.899 99.256c.061.091.152.163.224.254v163.012h-30.482v-81.283c0-16.834-13.647-30.481-30.481-30.481zm-162.566 111.764h-50.802v-81.283c0-5.611 4.549-10.16 10.16-10.16h30.481c5.611 0 10.16 4.549 10.16 10.16v81.283zm213.367-314.97h20.321v61.348l-20.321-28.449zm-325.13 0h20.321v32.909l-20.321 28.449zm-22.688 128.02 103.97-145.506 83.183 116.437c1.992 2.535 5.037 4.014 8.26 4.014s6.269-1.48 8.26-4.014l83.183-116.437 103.971 145.506-16.592 11.867-79.119-110.829c-1.992-2.535-5.037-4.014-8.26-4.014-3.224 0-6.269 1.48-8.26 4.014l-81.344 113.887c-.445.558-1.12.882-1.834.882s-1.389-.325-1.834-.882l-81.354-113.887c-1.908-2.664-4.984-4.244-8.26-4.244-3.277 0-6.352 1.58-8.26 4.244l-79.119 110.829zm32.848 207.271h325.131c11.223 0 20.321-9.098 20.321-20.321v-23.145l101.603 94.268-568.979.071v-.071l101.603-93.15v22.028c0 11.222 9.098 20.32 20.321 20.32zm-121.924 111.763v-40.641h568.979v40.641z"/></g></g></g></symbol><symbol id="works-icon-3" viewBox="0 0 609.62 609.62"><g><g id="Page-1_20_"><g id="_x30_21---Crane-Wrecking-Ball"><path id="Shape_51_" d="m30.483 223.527h101.603c16.834 0 30.481-13.647 30.481-30.481v-30.481h20.321v365.772h-71.122c-28.043.034-50.768 22.759-50.802 50.802v10.16c0 11.223 9.098 20.321 20.321 20.321h284.489c11.223 0 20.321-9.098 20.321-20.321v-10.16c-.034-28.043-22.759-50.768-50.802-50.802h-71.122v-193.046h62.039c5.697-.008 11.239-1.858 15.799-5.273l53.85-40.408c6.625-4.974 10.533-12.768 10.557-21.052v-105.993h60.962v142.763c-59.501 5.432-104.206 56.7-101.488 116.386 2.719 59.686 51.9 106.678 111.648 106.678s108.929-46.992 111.648-106.678-41.987-110.954-101.488-116.386v-142.763h101.603c7.493-.001 14.377-4.126 17.912-10.732s3.149-14.622-1.005-20.857l-27.067-40.641c-3.776-5.666-10.138-9.065-16.947-9.053h-83.315l-215.938-58.93c-3.642-13.162-15.594-22.296-29.251-22.352h-20.321c-13.937.045-26.069 9.537-29.465 23.054l-155.951 58.483c-15.756 1.283-27.903 14.419-27.951 30.227v81.283c0 16.834 13.647 30.48 30.481 30.48zm538.498 193.047c0 36.985-22.279 70.329-56.449 84.482-34.17 14.154-73.501 6.33-99.654-19.822-26.153-26.153-33.976-65.484-19.822-99.654s47.497-56.449 84.482-56.449c50.477.061 91.381 40.966 91.443 91.443zm-482.464-335.291 96.371-36.14v36.14zm177.654-37.502 137.49 37.502h-137.49zm213.367 57.822h56.756l-36.435 36.435-36.435-36.435zm-136.291 40.642h-72.87l36.435-36.435zm-11.908-40.642h72.87l-36.435 36.435zm60.962 40.642 40.641-40.641h1.748l40.641 40.641zm-110.016-40.642-36.435 36.435-36.435-36.435zm-117.718 0h16.114l40.641 40.641h-56.756v-40.641zm203.207 477.536v10.16h-284.489v-10.16c0-16.834 13.647-30.481 30.481-30.481h223.527c16.834 0 30.481 13.647 30.481 30.481zm-162.565-50.801v-365.773h40.641v365.772h-40.641zm126.597-214.566c-1.039.776-2.3 1.197-3.597 1.199h-62.039v-40.641h118.236zm56.289-59.764h-121.924v-91.443h121.924zm203.206-111.763h-66.957l40.143-40.143zm-386.092-111.764c0-5.611 4.549-10.16 10.16-10.16h20.321c5.611 0 10.16 4.549 10.16 10.16v50.802h-40.641zm-182.886 81.283c0-5.611 4.549-10.16 10.16-10.16h20.321v30.481c0 5.611 4.549 10.16 10.16 10.16s10.16-4.549 10.16-10.16v-30.481h20.321v30.481c0 5.611 4.549 10.16 10.16 10.16s10.16-4.549 10.16-10.16v-30.481h30.481v91.443c0 5.611-4.549 10.16-10.16 10.16h-101.603c-5.611 0-10.16-4.549-10.16-10.16z"/><path id="Path_36_" clip-rule="evenodd" d="m311.995 185.863c-3.968-3.966-10.399-3.966-14.367 0l-10.16 10.16c-2.641 2.551-3.701 6.329-2.771 9.881s3.704 6.327 7.256 7.256c3.552.93 7.33-.129 9.881-2.771l10.16-10.16c3.968-3.967 3.968-10.398.001-14.366z" fill-rule="evenodd"/><path id="Path_35_" clip-rule="evenodd" d="m348.43 185.863-40.641 40.641c-2.641 2.551-3.701 6.329-2.771 9.881s3.704 6.327 7.256 7.256c3.552.93 7.33-.129 9.881-2.771l40.641-40.641c3.85-3.987 3.795-10.324-.124-14.243-3.918-3.918-10.255-3.973-14.242-.123z" fill-rule="evenodd"/><path id="Shape_50_" d="m467.377 345.451v10.861c-23.46 3.211-40.641 17.364-40.641 34.86s17.181 31.649 40.641 34.86v30.166c-12.07-2.347-20.321-8.514-20.321-14.225 0-5.611-4.549-10.16-10.16-10.16s-10.16 4.549-10.16 10.16c0 17.496 17.181 31.649 40.641 34.86v10.861c0 5.611 4.549 10.16 10.16 10.16s10.16-4.549 10.16-10.16v-10.861c23.46-3.211 40.641-17.364 40.641-34.86s-17.181-31.649-40.641-34.86v-30.166c12.07 2.347 20.321 8.514 20.321 14.224 0 5.611 4.549 10.16 10.16 10.16s10.16-4.549 10.16-10.16c0-17.496-17.181-31.649-40.641-34.86v-10.861c0-5.611-4.549-10.16-10.16-10.16s-10.16 4.55-10.16 10.161zm-20.32 45.722c0-5.7 8.25-11.867 20.321-14.224v28.449c-12.071-2.358-20.321-8.525-20.321-14.225zm60.962 50.802c0 5.7-8.25 11.867-20.321 14.225v-28.45c12.071 2.357 20.321 8.525 20.321 14.225z"/></g></g></g></symbol></svg>