<svg id="Capa_1" enable-background="new 0 0 609.62 609.62" height="512" viewBox="0 0 609.62 609.62" width="512" xmlns="http://www.w3.org/2000/svg"><g><g id="Page-1_58_"><g id="_x30_59---House-Plans"><path id="Shape_152_" d="m50.802 0c-28.043.034-50.768 22.759-50.802 50.802v508.017.173c.056 28.006 22.796 50.668 50.802 50.629h538.498c11.223 0 20.321-9.098 20.321-20.321v-487.697c0-11.223-9.098-20.321-20.321-20.321h-487.697v-30.48c-.033-28.043-22.758-50.768-50.801-50.802zm0 20.321c16.834 0 30.481 13.647 30.481 30.481v40.54.102.102l.203 426.805c-12.138-9.165-27.724-12.457-42.531-8.982-6.747 1.548-13.095 4.494-18.634 8.646v-467.213c0-16.835 13.647-30.481 30.481-30.481zm538.498 81.282v487.697h-538.498c-8.109 0-15.883-3.231-21.604-8.978-5.72-5.747-8.915-13.537-8.877-21.645v-.152c.025-2.367.304-4.724.833-7.031 2.648-11.065 11.288-19.704 22.353-22.353 8.951-2.161 18.399-.196 25.746 5.354 6.062 4.624 14.23 5.385 21.042 1.961 6.927-3.428 11.31-10.489 11.308-18.218v-416.635z"/><path id="Shape_151_" d="m152.405 406.414h264.169v10.16c0 5.611 4.549 10.16 10.16 10.16s10.16-4.549 10.16-10.16v-40.641c0-5.611-4.549-10.16-10.16-10.16s-10.16 4.549-10.16 10.16v10.16h-152.405v-111.764h162.565c5.611 0 10.16-4.549 10.16-10.16s-4.549-10.16-10.16-10.16h-30.481v-111.764h142.245c5.611 0 10.16 4.549 10.16 10.16v101.603h-50.802c-5.611 0-10.16 4.549-10.16 10.16s4.549 10.16 10.16 10.16h50.802v101.603c0 5.611-4.549 10.16-10.16 10.16h-30.481v-10.16c0-5.611-4.549-10.16-10.16-10.16s-10.16 4.549-10.16 10.16v40.641c0 5.611 4.549 10.16 10.16 10.16s10.16-4.549 10.16-10.16v-10.16h30.481c16.834 0 30.481-13.647 30.481-30.481v-223.526c0-16.834-13.647-30.481-30.481-30.481h-386.093c-16.834 0-30.481 13.647-30.481 30.481v223.527c0 16.835 13.647 30.482 30.481 30.482zm91.443-20.321h-91.443c-5.611 0-10.16-4.549-10.16-10.16v-101.604h101.603zm-91.443-243.848h223.527v111.764h-219.321l43.618-43.618c3.85-3.987 3.795-10.324-.124-14.243s-10.256-3.974-14.243-.124l-43.618 43.618v-87.237c.001-5.611 4.55-10.16 10.161-10.16z"/><path id="Shape_150_" d="m538.498 447.055h-40.641-50.802l-206.58.061c-1.377-.003-2.739.277-4.003.823l-96.696 41.363c-7.474 3.201-12.321 10.549-12.321 18.68s4.847 15.479 12.321 18.68l49.298 21.134.122.051 45.396 19.457c2.515 1.072 5.221 1.625 7.956 1.626l255.309-.03h40.641c16.834 0 30.481-13.647 30.481-30.481v-60.881c0-16.836-13.647-30.483-30.481-30.483zm-50.802 60.962v40.591h-30.481v-81.232h30.481zm-50.801-10.16h-182.887v-30.4l182.886-.081v30.481zm-203.207 47.001-30.481-13.066v-47.51l30.481-13.026zm20.32-26.681h182.886v30.42l-182.886.061zm-71.122-25.197v30.105l-35.145-15.068zm355.612 55.587h-30.481v-81.191h30.481c5.611 0 10.16 4.549 10.16 10.16v60.871c0 5.611-4.549 10.16-10.16 10.16z"/></g></g></g></svg>