<svg id="Capa_1" enable-background="new 0 0 601.357 601.357" height="512" viewBox="0 0 601.357 601.357" width="512" xmlns="http://www.w3.org/2000/svg"><g><g id="Page-1_77_"><g id="_x30_78---Building-Wall"><path id="Shape_206_" d="m557.662 171.423-57.104 18.129v-9.664c-.02-3.519-.979-6.969-2.778-9.994 1.799-3.025 2.758-6.475 2.778-9.994v-59.962c0-11.039-8.949-19.988-19.988-19.988h-139.913c-3.519.02-6.969.979-9.994 2.778-3.025-1.799-6.475-2.758-9.994-2.778h-59.963v-59.962c.001-11.039-8.948-19.988-19.987-19.988h-139.913c-3.519.02-6.969.979-9.994 2.778-3.024-1.799-6.474-2.758-9.993-2.778h-59.963c-11.039 0-19.987 8.949-19.987 19.988v59.962c.02 3.519.979 6.969 2.778 9.994-1.799 3.025-2.758 6.475-2.778 9.994v59.962c.02 3.519.979 6.969 2.778 9.994-1.799 3.025-2.758 6.475-2.778 9.994v59.963c.02 3.519.979 6.969 2.778 9.994-1.799 3.025-2.758 6.475-2.778 9.994v59.963c0 11.039 8.949 19.988 19.988 19.988h139.913c3.519-.02 6.969-.979 9.994-2.778 3.025 1.799 6.475 2.758 9.994 2.778h104.585c10.458 21.561 23.239 41.916 38.116 60.702l-20.987 20.987c-7.246-2.58-15.329-.772-20.787 4.647l-100.938 100.936c-15.606 15.61-15.606 40.915 0 56.525l6.066 6.066c15.61 15.606 40.915 15.606 56.525 0l100.937-100.937c5.42-5.458 7.227-13.541 4.647-20.787l20.987-20.987c30.764 24.166 65.455 42.86 102.556 55.266 8.318 2.699 17.37 1.963 25.143-2.043 7.773-4.007 13.624-10.952 16.251-19.293l85.147-268.183c3.631-11.703.474-24.455-8.198-33.112s-21.429-11.793-33.126-8.142zm-137.055 43.513v-35.048h59.963v15.99zm-239.85 24.915h-79.95v-59.963h139.913v59.963zm-159.901-59.963h59.963v59.963h-59.963zm0-79.95h139.913v59.962h-139.913zm321.26 139.913h-80.89c-.18 0-.33-.1-.52-.1v-59.863h139.914v41.394zm138.454-139.913v59.962h-139.913v-59.962zm-159.901 0v59.962h-139.912v-59.962zm-79.95-79.95v59.962h-139.913v-59.962zm-219.863 0h59.963v59.962h-59.963zm0 299.813v-59.963h139.913v59.963zm159.901 0v-59.963h101.717c-13.096 7.791-19.03 23.627-14.281 38.106 1.999 5.996 4.657 13.422 8.115 21.856h-95.551zm229.107 22.556c3.903-3.901 10.229-3.901 14.131 0l3.997 3.998c3.901 3.903 3.901 10.229 0 14.131l-91.863 91.873-18.179-18.179zm-180.708 233.204c-7.907 7.553-20.356 7.553-28.262 0l-6.066-6.066c-7.803-7.805-7.803-20.457 0-28.262l100.937-100.937 34.319 34.319zm350.782-368.88-85.157 268.153c-1.031 3.292-3.348 6.028-6.426 7.585-2.983 1.555-6.468 1.839-9.664.79-34.135-11.402-66.109-28.466-94.581-50.479l58.054-58.054c11.704-11.708 11.704-30.686 0-42.394l-3.998-3.998c-11.708-11.704-30.686-11.704-42.394 0l-58.114 57.994c-22.016-28.473-39.087-60.446-50.499-94.581-1.056-3.195-.771-6.682.79-9.664 1.563-3.084 4.306-5.405 7.605-6.436l198.756-63.091h.16l69.167-21.986c4.588-1.409 9.58-.174 12.981 3.213s4.658 8.373 3.269 12.967z"/></g></g></g></svg>