<svg id="Capa_1" enable-background="new 0 0 609.62 609.62" height="512" viewBox="0 0 609.62 609.62" width="512" xmlns="http://www.w3.org/2000/svg"><g><g id="Page-1"><g id="_x30_01---Building-Contract"><path id="Shape" d="m589.3 482.616h-50.802v-50.802c0-11.223-9.098-20.321-20.321-20.321h-50.802v-165.339c1.555-.792 2.987-1.544 4.267-2.235 9.757-5.324 15.834-15.545 15.85-26.661l.203-69.934c0-16.834-13.647-30.481-30.481-30.481h-81.283v-40.64c0-22.446-18.196-40.641-40.641-40.641h-182.885c-22.446 0-40.641 18.196-40.641 40.641v40.641h-81.283c-16.834 0-30.481 13.647-30.481 30.481l.203 69.903c.015 11.142 6.108 21.388 15.891 26.722 1.26.681 2.682 1.422 4.227 2.205v226.301c0 16.834 13.647 30.481 30.481 30.481h111.764v50.802c0 11.223 9.098 20.321 20.321 20.321h121.923c3.578-.02 7.085-.995 10.16-2.825 3.075 1.829 6.583 2.804 10.16 2.825h121.924c3.578-.02 7.085-.995 10.16-2.825 3.075 1.829 6.582 2.804 10.16 2.825h121.926c11.223 0 20.321-9.098 20.321-20.321v-50.802c-.001-11.223-9.099-20.321-20.321-20.321zm-71.123-50.802v50.802h-121.924v-50.802zm-213.367 50.802h-50.802v-50.802h121.924v50.802zm91.443-71.122h-71.122v-50.802h121.924v50.802zm-264.169-335.291c0-11.223 9.098-20.321 20.321-20.321h182.886c11.223 0 20.321 9.098 20.321 20.321v40.641h-20.321v-30.481c0-5.611-4.549-10.16-10.16-10.16h-162.566c-5.611 0-10.16 4.549-10.16 10.16v30.481h-20.321zm182.886 40.641h-142.244v-20.321h142.244zm-284.489 20.321h426.734c5.611 0 10.16 4.549 10.16 10.16l-.203 69.934c-.001 3.683-2.011 7.072-5.243 8.839-2.317 1.25-5.192 2.723-8.535 4.328l-.356.173c-24.497 11.674-76.152 30.918-158.39 36.811v-8.321c0-11.223-9.098-20.321-20.321-20.321h-60.962c-11.223 0-20.321 9.098-20.321 20.321v8.321c-82.299-5.893-133.913-25.137-158.379-36.831-.132-.061-.244-.132-.376-.183-3.312-1.595-6.177-3.048-8.484-4.308-3.25-1.778-5.275-5.185-5.283-8.89l-.203-69.873c.002-5.611 4.551-10.16 10.162-10.16zm243.848 162.565h-60.962v-40.641h60.962zm-50.802 20.321h40.641v20.321c0 5.611-4.549 10.16-10.16 10.16h-20.321c-5.611 0-10.16-4.549-10.16-10.16zm-172.725 162.565c-5.611 0-10.16-4.549-10.16-10.16v-217.066c48.775 18.769 100.213 29.698 152.405 32.381v11.959c.022 7.227 3.894 13.895 10.16 17.496v23.145c0 16.834 13.647 30.481 30.481 30.481h20.321c16.834 0 30.481-13.647 30.481-30.481v-23.145c6.266-3.601 10.139-10.269 10.16-17.496v-11.959c52.192-2.682 103.631-13.611 152.405-32.381v84.981h-121.924c-11.223 0-20.321 9.098-20.321 20.321v50.802h-50.802c-11.223 0-20.321 9.098-20.321 20.321v50.802h-182.885zm132.084 71.122v-50.802h121.924v50.802zm142.245 0v-50.802h121.924v50.802zm142.245 0v-50.802h121.924v50.802z"/><path id="Path" clip-rule="evenodd" d="m101.603 441.975h-20.32v-20.321c0-5.611-4.549-10.16-10.16-10.16s-10.16 4.549-10.16 10.16v30.481c0 5.611 4.549 10.16 10.16 10.16h30.481c5.611 0 10.16-4.549 10.16-10.16s-4.549-10.16-10.161-10.16z" fill-rule="evenodd"/></g></g></g></svg>