<svg id="Capa_1" enable-background="new 0 0 609.631 609.631" height="512" viewBox="0 0 609.631 609.631" width="512" xmlns="http://www.w3.org/2000/svg"><g><g id="Page-1_5_"><g id="_x30_06---House-Plot" transform="translate(-1)"><path id="Shape_11_" d="m604.113 446.989-120.35-111.764c-3.765-3.494-8.713-5.432-13.849-5.426h-21.854v-62.171c2.173.789 4.465 1.198 6.777 1.209h1.382c5.458-.367 10.532-2.934 14.062-7.112l13.452-15.718c7.273-8.578 6.428-21.379-1.91-28.926l-33.763-30.237v-70.411c0-11.223-9.098-20.321-20.321-20.321h-30.481c-11.223 0-20.321 9.098-20.321 20.321v6.757l-57.619-51.574c-7.69-6.875-19.317-6.875-27.006 0l-162.504 145.404c-8.337 7.544-9.182 20.342-1.91 28.916l13.452 15.789c3.537 4.186 8.624 6.753 14.092 7.112 2.759.17 5.524-.221 8.128-1.148v62.11h-20.32c-5.108-.012-10.031 1.912-13.777 5.385l-121.925 111.764c-3.797 3.588-6.043 8.517-6.259 13.737-.122.393-.217.793-.284 1.199v60.962c-.124 5.426 1.978 10.667 5.816 14.505s9.079 5.939 14.505 5.816h568.979c5.426.124 10.667-1.978 14.505-5.816s5.939-9.079 5.816-14.505v-60.962c-.057-.443-.145-.881-.264-1.311-.254-5.164-2.492-10.032-6.249-13.584zm-267.817-46.067h-60.962v-81.283c0-5.611 4.549-10.16 10.16-10.16h40.641c5.611 0 10.16 4.549 10.16 10.16v81.283zm-10.16-111.764h-40.641c-16.834 0-30.481 13.647-30.481 30.481v81.283h-60.962c-5.611 0-10.16-4.549-10.16-10.16v-139.289l121.924-109.122 121.924 109.122v139.288c0 5.611-4.549 10.16-10.16 10.16h-60.962v-81.283c-.001-16.833-13.648-30.48-30.482-30.48zm71.122-172.726h30.481v52.224l-30.481-27.281zm-253.896 115.828 162.453-145.496 162.565 146.014-13.442 15.738-142.346-127.37c-3.858-3.454-9.696-3.454-13.554 0l-142.245 127.37zm-.112 117.86h20.321v40.641c0 16.834 13.647 30.481 30.481 30.481h223.527c16.834 0 30.481-13.647 30.481-30.481v-40.641h21.855l120.39 111.764h-568.979zm-121.924 172.726v-40.641h568.979v40.641z"/></g></g></g></svg>