<svg display="none" xmlns="http://www.w3.org/2000/svg">
   <!-- intro-icon-4 -->
   <symbol id="intro-icon-4" viewBox="0 0 609.62 609.62">
      <svg>
         <g>
            <path d="m50.802 609.62h508.017c28.043-.034 50.768-22.759 50.802-50.802v-457.215c-.034-28.043-22.759-50.768-50.802-50.802h-20.321v-15.24c0-19.64-15.921-35.561-35.561-35.561s-35.561 15.921-35.561 35.561v15.241h-60.962v-15.241c0-19.64-15.922-35.561-35.562-35.561s-35.561 15.921-35.561 35.561v15.241h-60.962v-15.241c0-19.64-15.921-35.561-35.561-35.561s-35.561 15.921-35.561 35.561v15.241h-60.962v-15.241c0-19.64-15.922-35.561-35.561-35.561s-35.562 15.921-35.562 35.561v15.241h-20.32c-28.043.033-50.768 22.758-50.802 50.801v457.215c.034 28.044 22.759 50.769 50.802 50.802zm538.498-50.801c0 16.834-13.647 30.481-30.481 30.481h-508.017c-16.834 0-30.481-13.647-30.481-30.481v-396.254h568.979zm-101.604-523.258c0-8.417 6.823-15.241 15.241-15.241s15.241 6.823 15.241 15.241v50.802c0 8.417-6.823 15.241-15.241 15.241s-15.241-6.823-15.241-15.241zm-132.084 0c0-8.417 6.823-15.241 15.241-15.241s15.241 6.823 15.241 15.241v50.802c0 8.417-6.823 15.241-15.241 15.241s-15.241-6.823-15.241-15.241zm-132.085 0c0-8.417 6.823-15.241 15.241-15.241 8.417 0 15.241 6.823 15.241 15.241v50.802c0 8.417-6.823 15.241-15.241 15.241-8.417 0-15.241-6.823-15.241-15.241zm-132.084 0c0-8.417 6.823-15.241 15.241-15.241s15.241 6.823 15.241 15.241v50.802c0 8.417-6.823 15.241-15.241 15.241s-15.241-6.824-15.241-15.241zm-71.122 66.042c0-16.834 13.647-30.481 30.481-30.481h20.321v15.241c0 19.64 15.921 35.561 35.561 35.561s35.561-15.921 35.561-35.561v-15.241h60.962v15.241c0 19.64 15.921 35.561 35.561 35.561s35.561-15.921 35.561-35.561v-15.241h60.962v15.241c0 19.64 15.921 35.561 35.561 35.561s35.561-15.921 35.561-35.561v-15.241h60.962v15.241c0 19.64 15.921 35.561 35.561 35.561s35.561-15.921 35.561-35.561v-15.241h20.321c16.834 0 30.481 13.647 30.481 30.481v40.641h-568.978z"/><path d="m59.052 378.981c3.528 4.154 8.576 6.716 14.011 7.112h1.422c2.317 0 4.617-.403 6.797-1.189v123.113c0 8.084 3.211 15.837 8.928 21.553 5.716 5.716 13.469 8.928 21.553 8.928h223.527c4.733-.052 9.389-1.21 13.595-3.383 49.229 44.282 123.638 45.271 174.027 2.313s61.182-116.588 25.245-172.202-107.5-76.024-167.368-47.735l-15.017-13.432v-70.37c0-11.223-9.098-20.321-20.321-20.321h-30.481c-11.223 0-20.321 9.098-20.321 20.321v6.777l-57.64-51.543c-7.676-6.869-19.289-6.869-26.966 0l-162.564 145.433c-8.27 7.566-9.077 20.316-1.829 28.866zm42.551 129.036v-139.268l121.924-109.132 108.563 97.214c-36.709 47.634-36.337 114.126.904 161.346h-58.666v-81.283c0-16.834-13.647-30.481-30.481-30.481h-40.641c-16.834 0-30.481 13.647-30.481 30.481v81.283h-60.962c-5.611 0-10.16-4.549-10.16-10.16zm91.443 10.16v-81.283c0-5.611 4.549-10.16 10.16-10.16h40.641c5.611 0 10.16 4.549 10.16 10.16v81.283zm355.612-81.282c0 61.725-50.038 111.764-111.764 111.764s-111.763-50.039-111.763-111.764 50.038-111.764 111.764-111.764c61.695.073 111.69 50.068 111.763 111.764zm-233.688-203.207h30.481v52.204l-30.481-27.25zm-91.504-29.618 124.891 111.682.254.224 13.554 12.121c-5.875 4.071-11.413 8.607-16.561 13.564l-115.3-103.249c-3.858-3.454-9.696-3.454-13.554 0l-142.265 127.36-13.462-16.257z"/><path d="m386.093 467.376h20.321v20.321c0 16.834 13.647 30.481 30.481 30.481s30.481-13.647 30.481-30.481v-20.321h20.321c16.834 0 30.481-13.647 30.481-30.481s-13.647-30.481-30.481-30.481h-20.321v-20.321c0-16.834-13.647-30.481-30.481-30.481s-30.481 13.647-30.481 30.481v20.321h-20.321c-16.834 0-30.481 13.647-30.481 30.481s13.647 30.481 30.481 30.481zm0-40.642h30.481c5.611 0 10.16-4.549 10.16-10.16v-30.481c0-5.611 4.549-10.16 10.16-10.16s10.16 4.549 10.16 10.16v30.481c0 5.611 4.549 10.16 10.16 10.16h30.481c5.611 0 10.16 4.549 10.16 10.16s-4.549 10.16-10.16 10.16h-30.481c-5.611 0-10.16 4.549-10.16 10.16v30.481c0 5.611-4.549 10.16-10.16 10.16s-10.16-4.549-10.16-10.16v-30.481c0-5.611-4.549-10.16-10.16-10.16h-30.481c-5.611 0-10.16-4.549-10.16-10.16-.001-5.611 4.548-10.16 10.16-10.16z"/>
         </g>
      </svg>
   </symbol>

   <!-- mouse -->
   <symbol id="mouse" viewBox="-105 0 512 512.00002">
      <svg>
         <g>
            <path d="m150.601562 0c-83.042968 0-150.601562 67.558594-150.601562 150.601562v210.796876c0 83.042968 67.558594 150.601562 150.601562 150.601562 83.042969 0 150.601563-67.558594 150.601563-150.601562v-210.796876c0-83.042968-67.558594-150.601562-150.601563-150.601562zm119.882813 361.398438c0 66.101562-53.78125 119.882812-119.882813 119.882812-66.101562 0-119.882812-53.78125-119.882812-119.882812v-210.796876c0-66.101562 53.78125-119.882812 119.882812-119.882812 66.101563 0 119.882813 53.78125 119.882813 119.882812zm0 0"/><path d="m150.605469 101.851562c-8.484375 0-15.359375 6.875-15.359375 15.359376v70.695312c0 8.480469 6.875 15.359375 15.359375 15.359375 8.480469 0 15.359375-6.878906 15.359375-15.359375v-70.695312c0-8.484376-6.875-15.359376-15.359375-15.359376zm0 0"/>
         </g>
      </svg>
   </symbol>

</svg>