<svg display="none" xmlns="http://www.w3.org/2000/svg">

   <!-- login -->
   <symbol id="login" viewBox="0 0 490.667 490.667">
      <svg>
         <g>
            <path d="m437.332031 490.667969h-234.664062c-29.421875 0-53.335938-23.9375-53.335938-53.335938v-128c0-5.886719 4.78125-10.664062 10.667969-10.664062s10.667969 4.777343 10.667969 10.664062v128c0 17.644531 14.355469 32 32 32h234.664062c17.644531 0 32-14.355469 32-32v-384c0-17.640625-14.355469-32-32-32h-234.664062c-17.644531 0-32 14.359375-32 32v128c0 5.890625-4.78125 10.667969-10.667969 10.667969s-10.667969-4.777344-10.667969-10.667969v-128c0-29.394531 23.914063-53.332031 53.335938-53.332031h234.664062c29.421875 0 53.335938 23.9375 53.335938 53.332031v384c0 29.398438-23.914063 53.335938-53.335938 53.335938zm0 0"/><path d="m352 256h-341.332031c-5.890625 0-10.667969-4.777344-10.667969-10.667969 0-5.886719 4.777344-10.664062 10.667969-10.664062h341.332031c5.886719 0 10.667969 4.777343 10.667969 10.664062 0 5.890625-4.78125 10.667969-10.667969 10.667969zm0 0"/><path d="m288 320c-2.730469 0-5.460938-1.046875-7.550781-3.113281-4.160157-4.160157-4.160157-10.925781 0-15.085938l56.46875-56.46875-56.449219-56.445312c-4.160156-4.160157-4.160156-10.925781 0-15.085938 4.160156-4.15625 10.921875-4.15625 15.082031 0l64 64c4.160157 4.160157 4.160157 10.925781 0 15.085938l-64 64c-2.089843 2.066406-4.820312 3.113281-7.550781 3.113281zm0 0"/>
         </g>
      </svg>
   </symbol>

   <!-- telegram -->
   <symbol id="telegram" viewBox="0 0 24 24">
      <svg>
         <g>
            <path d="m9.417 15.181-.397 5.584c.568 0 .814-.244 1.109-.537l2.663-2.545 5.518 4.041c1.012.564 1.725.267 1.998-.931l3.622-16.972.001-.001c.321-1.496-.541-2.081-1.527-1.714l-21.29 8.151c-1.453.564-1.431 1.374-.247 1.741l5.443 1.693 12.643-7.911c.595-.394 1.136-.176.691.218z"/>
         </g>
      </svg>
   </symbol>

   <!-- wa -->
   <symbol id="wa" viewBox="0 0 512 512">
      <svg>
         <g>
            <path d="M256.064,0h-0.128C114.784,0,0,114.816,0,256c0,56,18.048,107.904,48.736,150.048l-31.904,95.104l98.4-31.456
            C155.712,496.512,204,512,256.064,512C397.216,512,512,397.152,512,256S397.216,0,256.064,0z M405.024,361.504
            c-6.176,17.44-30.688,31.904-50.24,36.128c-13.376,2.848-30.848,5.12-89.664-19.264C189.888,347.2,141.44,270.752,137.664,265.792
            c-3.616-4.96-30.4-40.48-30.4-77.216s18.656-54.624,26.176-62.304c6.176-6.304,16.384-9.184,26.176-9.184
            c3.168,0,6.016,0.16,8.576,0.288c7.52,0.32,11.296,0.768,16.256,12.64c6.176,14.88,21.216,51.616,23.008,55.392
            c1.824,3.776,3.648,8.896,1.088,13.856c-2.4,5.12-4.512,7.392-8.288,11.744c-3.776,4.352-7.36,7.68-11.136,12.352
            c-3.456,4.064-7.36,8.416-3.008,15.936c4.352,7.36,19.392,31.904,41.536,51.616c28.576,25.44,51.744,33.568,60.032,37.024
            c6.176,2.56,13.536,1.952,18.048-2.848c5.728-6.176,12.8-16.416,20-26.496c5.12-7.232,11.584-8.128,18.368-5.568
            c6.912,2.4,43.488,20.48,51.008,24.224c7.52,3.776,12.48,5.568,14.304,8.736C411.2,329.152,411.2,344.032,405.024,361.504z"/>
         </g>
      </svg>
   </symbol>

   <!-- arrows -->
   <symbol id="arrows" viewBox="0 0 480.026 480.026">
      <svg>
         <g>
            <path d="M475.922,229.325l-144-160c-3.072-3.392-7.36-5.312-11.904-5.312h-96c-6.304,0-12.032,3.712-14.624,9.472
               c-2.56,5.792-1.504,12.544,2.72,17.216l134.368,149.312l-134.368,149.28c-4.224,4.704-5.312,11.456-2.72,17.216
               c2.592,5.792,8.32,9.504,14.624,9.504h96c4.544,0,8.832-1.952,11.904-5.28l144-160
               C481.394,244.653,481.394,235.373,475.922,229.325z"/>
         </g>
         <g>
		      <path d="M267.922,229.325l-144-160c-3.072-3.392-7.36-5.312-11.904-5.312h-96c-6.304,0-12.032,3.712-14.624,9.472
			c-2.56,5.792-1.504,12.544,2.72,17.216l134.368,149.312L4.114,389.293c-4.224,4.704-5.312,11.456-2.72,17.216
			c2.592,5.792,8.32,9.504,14.624,9.504h96c4.544,0,8.832-1.952,11.904-5.28l144-160
			C273.394,244.653,273.394,235.373,267.922,229.325z"/>
	      </g>
      </svg>
   </symbol>

   <!-- intro-icon-1 -->
   <symbol id="intro-icon-1" viewBox="0 0 601.357 601.357">
      <svg>
         <g>
            <path d="m557.662 171.423-57.104 18.129v-9.664c-.02-3.519-.979-6.969-2.778-9.994 1.799-3.025 2.758-6.475 2.778-9.994v-59.962c0-11.039-8.949-19.988-19.988-19.988h-139.913c-3.519.02-6.969.979-9.994 2.778-3.025-1.799-6.475-2.758-9.994-2.778h-59.963v-59.962c.001-11.039-8.948-19.988-19.987-19.988h-139.913c-3.519.02-6.969.979-9.994 2.778-3.024-1.799-6.474-2.758-9.993-2.778h-59.963c-11.039 0-19.987 8.949-19.987 19.988v59.962c.02 3.519.979 6.969 2.778 9.994-1.799 3.025-2.758 6.475-2.778 9.994v59.962c.02 3.519.979 6.969 2.778 9.994-1.799 3.025-2.758 6.475-2.778 9.994v59.963c.02 3.519.979 6.969 2.778 9.994-1.799 3.025-2.758 6.475-2.778 9.994v59.963c0 11.039 8.949 19.988 19.988 19.988h139.913c3.519-.02 6.969-.979 9.994-2.778 3.025 1.799 6.475 2.758 9.994 2.778h104.585c10.458 21.561 23.239 41.916 38.116 60.702l-20.987 20.987c-7.246-2.58-15.329-.772-20.787 4.647l-100.938 100.936c-15.606 15.61-15.606 40.915 0 56.525l6.066 6.066c15.61 15.606 40.915 15.606 56.525 0l100.937-100.937c5.42-5.458 7.227-13.541 4.647-20.787l20.987-20.987c30.764 24.166 65.455 42.86 102.556 55.266 8.318 2.699 17.37 1.963 25.143-2.043 7.773-4.007 13.624-10.952 16.251-19.293l85.147-268.183c3.631-11.703.474-24.455-8.198-33.112s-21.429-11.793-33.126-8.142zm-137.055 43.513v-35.048h59.963v15.99zm-239.85 24.915h-79.95v-59.963h139.913v59.963zm-159.901-59.963h59.963v59.963h-59.963zm0-79.95h139.913v59.962h-139.913zm321.26 139.913h-80.89c-.18 0-.33-.1-.52-.1v-59.863h139.914v41.394zm138.454-139.913v59.962h-139.913v-59.962zm-159.901 0v59.962h-139.912v-59.962zm-79.95-79.95v59.962h-139.913v-59.962zm-219.863 0h59.963v59.962h-59.963zm0 299.813v-59.963h139.913v59.963zm159.901 0v-59.963h101.717c-13.096 7.791-19.03 23.627-14.281 38.106 1.999 5.996 4.657 13.422 8.115 21.856h-95.551zm229.107 22.556c3.903-3.901 10.229-3.901 14.131 0l3.997 3.998c3.901 3.903 3.901 10.229 0 14.131l-91.863 91.873-18.179-18.179zm-180.708 233.204c-7.907 7.553-20.356 7.553-28.262 0l-6.066-6.066c-7.803-7.805-7.803-20.457 0-28.262l100.937-100.937 34.319 34.319zm350.782-368.88-85.157 268.153c-1.031 3.292-3.348 6.028-6.426 7.585-2.983 1.555-6.468 1.839-9.664.79-34.135-11.402-66.109-28.466-94.581-50.479l58.054-58.054c11.704-11.708 11.704-30.686 0-42.394l-3.998-3.998c-11.708-11.704-30.686-11.704-42.394 0l-58.114 57.994c-22.016-28.473-39.087-60.446-50.499-94.581-1.056-3.195-.771-6.682.79-9.664 1.563-3.084 4.306-5.405 7.605-6.436l198.756-63.091h.16l69.167-21.986c4.588-1.409 9.58-.174 12.981 3.213s4.658 8.373 3.269 12.967z"/>
         </g>
      </svg>
   </symbol>

   <!-- intro-icon-2 -->
   <symbol id="intro-icon-2" viewBox="0 0 609.62 609.62" >
      <svg>
         <g>
            <path d="m589.3 482.616h-50.802v-50.802c0-11.223-9.098-20.321-20.321-20.321h-50.802v-165.339c1.555-.792 2.987-1.544 4.267-2.235 9.757-5.324 15.834-15.545 15.85-26.661l.203-69.934c0-16.834-13.647-30.481-30.481-30.481h-81.283v-40.64c0-22.446-18.196-40.641-40.641-40.641h-182.885c-22.446 0-40.641 18.196-40.641 40.641v40.641h-81.283c-16.834 0-30.481 13.647-30.481 30.481l.203 69.903c.015 11.142 6.108 21.388 15.891 26.722 1.26.681 2.682 1.422 4.227 2.205v226.301c0 16.834 13.647 30.481 30.481 30.481h111.764v50.802c0 11.223 9.098 20.321 20.321 20.321h121.923c3.578-.02 7.085-.995 10.16-2.825 3.075 1.829 6.583 2.804 10.16 2.825h121.924c3.578-.02 7.085-.995 10.16-2.825 3.075 1.829 6.582 2.804 10.16 2.825h121.926c11.223 0 20.321-9.098 20.321-20.321v-50.802c-.001-11.223-9.099-20.321-20.321-20.321zm-71.123-50.802v50.802h-121.924v-50.802zm-213.367 50.802h-50.802v-50.802h121.924v50.802zm91.443-71.122h-71.122v-50.802h121.924v50.802zm-264.169-335.291c0-11.223 9.098-20.321 20.321-20.321h182.886c11.223 0 20.321 9.098 20.321 20.321v40.641h-20.321v-30.481c0-5.611-4.549-10.16-10.16-10.16h-162.566c-5.611 0-10.16 4.549-10.16 10.16v30.481h-20.321zm182.886 40.641h-142.244v-20.321h142.244zm-284.489 20.321h426.734c5.611 0 10.16 4.549 10.16 10.16l-.203 69.934c-.001 3.683-2.011 7.072-5.243 8.839-2.317 1.25-5.192 2.723-8.535 4.328l-.356.173c-24.497 11.674-76.152 30.918-158.39 36.811v-8.321c0-11.223-9.098-20.321-20.321-20.321h-60.962c-11.223 0-20.321 9.098-20.321 20.321v8.321c-82.299-5.893-133.913-25.137-158.379-36.831-.132-.061-.244-.132-.376-.183-3.312-1.595-6.177-3.048-8.484-4.308-3.25-1.778-5.275-5.185-5.283-8.89l-.203-69.873c.002-5.611 4.551-10.16 10.162-10.16zm243.848 162.565h-60.962v-40.641h60.962zm-50.802 20.321h40.641v20.321c0 5.611-4.549 10.16-10.16 10.16h-20.321c-5.611 0-10.16-4.549-10.16-10.16zm-172.725 162.565c-5.611 0-10.16-4.549-10.16-10.16v-217.066c48.775 18.769 100.213 29.698 152.405 32.381v11.959c.022 7.227 3.894 13.895 10.16 17.496v23.145c0 16.834 13.647 30.481 30.481 30.481h20.321c16.834 0 30.481-13.647 30.481-30.481v-23.145c6.266-3.601 10.139-10.269 10.16-17.496v-11.959c52.192-2.682 103.631-13.611 152.405-32.381v84.981h-121.924c-11.223 0-20.321 9.098-20.321 20.321v50.802h-50.802c-11.223 0-20.321 9.098-20.321 20.321v50.802h-182.885zm132.084 71.122v-50.802h121.924v50.802zm142.245 0v-50.802h121.924v50.802zm142.245 0v-50.802h121.924v50.802z"/><path d="m101.603 441.975h-20.32v-20.321c0-5.611-4.549-10.16-10.16-10.16s-10.16 4.549-10.16 10.16v30.481c0 5.611 4.549 10.16 10.16 10.16h30.481c5.611 0 10.16-4.549 10.16-10.16s-4.549-10.16-10.161-10.16z"/>
         </g>
      </svg>
   </symbol>

   <!-- intro-icon-3 -->
   <symbol id="intro-icon-3" viewBox="0 0 61 61" >
      <svg>
         <g>
            <path d="m3 47h25.292c1.2605928 6.6504027 6.5656809 11.7904281 13.2525949 12.840253s13.3118859-2.2172178 16.5497852-8.1613712c3.2378993-5.9441533 2.3896328-13.2820185-2.119047-18.3306576-4.5086799-5.0486391-11.7043067-6.7180033-17.9753331-4.1702242v-26.178c0-1.65685425-1.3431458-3-3-3h-27c-.25990155.01257293-.50735299.11508853-.7.29l-7 7c-.18289899.19238492-.28953458.44475582-.3.71v36c0 1.6568542 1.34314575 3 3 3zm41-17c7.7319865 0 14 6.2680135 14 14s-6.2680135 14-14 14-14-6.2680135-14-14c.0082673-7.7285595 6.2714405-13.9917327 14-14zm-37-26.586v2.586c0 .55228475-.44771525 1-1 1h-2.586zm-5 5.586h4c1.65685425 0 3-1.34314575 3-3v-4h26c.5522847 0 1 .44771525 1 1v27.165c-1.3251479.7693939-2.5336725 1.7240239-3.589 2.835h-11.411c-.5522847 0-1 .4477153-1 1s.4477153 1 1 1h9.782c-.4303567.6379516-.813703 1.3063846-1.147 2h-8.635c-.5522847 0-1 .4477153-1 1s.4477153 1 1 1h7.811c-.5355632 1.6126747-.8093645 3.3007222-.811 5 0 .338.03.668.051 1h-25.051c-.55228475 0-1-.4477153-1-1z"/><path d="m7.74 18.271c.31839797.3818293.76759503.6313833 1.26.7v9.029c0 1.6568542 1.3431458 3 3 3h14c1.6568542 0 3-1.3431458 3-3v-9.03c.492405-.0686167.941602-.3181707 1.26-.7l1.282-1.548c.3398661-.4107109.5011208-.9404115.4477595-1.4708311-.0533614-.5304196-.316895-1.0173856-.7317595-1.3521689l-2.258-1.824v-5.075c0-1.1045695-.8954305-2-2-2h-2c-1.1045695 0-2 .8954305-2 2v.224l-2.731-2.208c-.7423003-.59345309-1.7966997-.59345309-2.539 0l-10.988 8.884c-.41486447.3347833-.67839809.8217493-.73175947 1.3521689-.05336137.5304196.10789335 1.0601202.44775947 1.4708311zm13.26 10.729h-4v-5c0-.5522847.4477153-1 1-1h2c.5522847 0 1 .4477153 1 1zm6-1c0 .5522847-.4477153 1-1 1h-3v-5c0-1.6568542-1.3431458-3-3-3h-2c-1.6568542 0-3 1.3431458-3 3v5h-3c-.5522847 0-1-.4477153-1-1v-9.8l8-6.345 8 6.345zm-2-21h2v3.458l-2-1.617zm-5.988-.429 10.988 8.877-1.281 1.552c-.0070008.0031231-.0149992.0031231-.022 0-.006-.006-.015-.009-.022-.015l-9.054-7.185c-.3638252-.28825258-.8781748-.28825258-1.242 0l-9.098 7.2-1.281-1.544z"/><path d="m33 46c-.001821.7959796.3146651 1.5596508.879 2.121l4 4c1.1357146 1.1353822 2.9641081 1.1750532 4.148.09l12-11c.8959574-.8193926 1.2096879-2.0980366.7947453-3.2390741-.4149427-1.1410376-1.4767358-1.9194671-2.6897453-1.9719259-.796095-.0378704-1.5740243.2457009-2.159.787l-9.882 9.059-1.97-1.969c-1.1870572-1.1329556-3.0549428-1.1329556-4.242 0-.564451.5620902-.8809098 1.3264157-.879 2.123zm2.293-.707c.3904999-.3903819 1.0235001-.3903819 1.414 0l2.647 2.646c.3784895.3780378.9874621.3912571 1.382.03l10.588-9.706c.2633047-.2415115.6354532-.324206.9762607-.2169332.3408075.1072729.5984973.3882157.676.737.0775028.3487844-.036956.7124217-.3002607.9539332l-12 11c-.3993735.3485927-.9986591.33515-1.382-.031l-4-4c-.3903819-.3904999-.3903819-1.0235001 0-1.414z"/></g><path d="m5 35h12c.5522847 0 1-.4477153 1-1s-.4477153-1-1-1h-12c-.55228475 0-1 .4477153-1 1s.44771525 1 1 1z"/><path d="m5 39h12c.5522847 0 1-.4477153 1-1s-.4477153-1-1-1h-12c-.55228475 0-1 .4477153-1 1s.44771525 1 1 1z"/><path d="m5 43h12c.5522847 0 1-.4477153 1-1s-.4477153-1-1-1h-12c-.55228475 0-1 .4477153-1 1s.44771525 1 1 1z"/>
         </g>
      </svg>
   </symbol>

   <!-- intro-icon-4 -->
   <symbol id="intro-icon-4" viewBox="0 0 609.62 609.62">
      <svg>
         <g>
            <path d="m50.802 609.62h508.017c28.043-.034 50.768-22.759 50.802-50.802v-457.215c-.034-28.043-22.759-50.768-50.802-50.802h-20.321v-15.24c0-19.64-15.921-35.561-35.561-35.561s-35.561 15.921-35.561 35.561v15.241h-60.962v-15.241c0-19.64-15.922-35.561-35.562-35.561s-35.561 15.921-35.561 35.561v15.241h-60.962v-15.241c0-19.64-15.921-35.561-35.561-35.561s-35.561 15.921-35.561 35.561v15.241h-60.962v-15.241c0-19.64-15.922-35.561-35.561-35.561s-35.562 15.921-35.562 35.561v15.241h-20.32c-28.043.033-50.768 22.758-50.802 50.801v457.215c.034 28.044 22.759 50.769 50.802 50.802zm538.498-50.801c0 16.834-13.647 30.481-30.481 30.481h-508.017c-16.834 0-30.481-13.647-30.481-30.481v-396.254h568.979zm-101.604-523.258c0-8.417 6.823-15.241 15.241-15.241s15.241 6.823 15.241 15.241v50.802c0 8.417-6.823 15.241-15.241 15.241s-15.241-6.823-15.241-15.241zm-132.084 0c0-8.417 6.823-15.241 15.241-15.241s15.241 6.823 15.241 15.241v50.802c0 8.417-6.823 15.241-15.241 15.241s-15.241-6.823-15.241-15.241zm-132.085 0c0-8.417 6.823-15.241 15.241-15.241 8.417 0 15.241 6.823 15.241 15.241v50.802c0 8.417-6.823 15.241-15.241 15.241-8.417 0-15.241-6.823-15.241-15.241zm-132.084 0c0-8.417 6.823-15.241 15.241-15.241s15.241 6.823 15.241 15.241v50.802c0 8.417-6.823 15.241-15.241 15.241s-15.241-6.824-15.241-15.241zm-71.122 66.042c0-16.834 13.647-30.481 30.481-30.481h20.321v15.241c0 19.64 15.921 35.561 35.561 35.561s35.561-15.921 35.561-35.561v-15.241h60.962v15.241c0 19.64 15.921 35.561 35.561 35.561s35.561-15.921 35.561-35.561v-15.241h60.962v15.241c0 19.64 15.921 35.561 35.561 35.561s35.561-15.921 35.561-35.561v-15.241h60.962v15.241c0 19.64 15.921 35.561 35.561 35.561s35.561-15.921 35.561-35.561v-15.241h20.321c16.834 0 30.481 13.647 30.481 30.481v40.641h-568.978z"/><path d="m59.052 378.981c3.528 4.154 8.576 6.716 14.011 7.112h1.422c2.317 0 4.617-.403 6.797-1.189v123.113c0 8.084 3.211 15.837 8.928 21.553 5.716 5.716 13.469 8.928 21.553 8.928h223.527c4.733-.052 9.389-1.21 13.595-3.383 49.229 44.282 123.638 45.271 174.027 2.313s61.182-116.588 25.245-172.202-107.5-76.024-167.368-47.735l-15.017-13.432v-70.37c0-11.223-9.098-20.321-20.321-20.321h-30.481c-11.223 0-20.321 9.098-20.321 20.321v6.777l-57.64-51.543c-7.676-6.869-19.289-6.869-26.966 0l-162.564 145.433c-8.27 7.566-9.077 20.316-1.829 28.866zm42.551 129.036v-139.268l121.924-109.132 108.563 97.214c-36.709 47.634-36.337 114.126.904 161.346h-58.666v-81.283c0-16.834-13.647-30.481-30.481-30.481h-40.641c-16.834 0-30.481 13.647-30.481 30.481v81.283h-60.962c-5.611 0-10.16-4.549-10.16-10.16zm91.443 10.16v-81.283c0-5.611 4.549-10.16 10.16-10.16h40.641c5.611 0 10.16 4.549 10.16 10.16v81.283zm355.612-81.282c0 61.725-50.038 111.764-111.764 111.764s-111.763-50.039-111.763-111.764 50.038-111.764 111.764-111.764c61.695.073 111.69 50.068 111.763 111.764zm-233.688-203.207h30.481v52.204l-30.481-27.25zm-91.504-29.618 124.891 111.682.254.224 13.554 12.121c-5.875 4.071-11.413 8.607-16.561 13.564l-115.3-103.249c-3.858-3.454-9.696-3.454-13.554 0l-142.265 127.36-13.462-16.257z"/><path d="m386.093 467.376h20.321v20.321c0 16.834 13.647 30.481 30.481 30.481s30.481-13.647 30.481-30.481v-20.321h20.321c16.834 0 30.481-13.647 30.481-30.481s-13.647-30.481-30.481-30.481h-20.321v-20.321c0-16.834-13.647-30.481-30.481-30.481s-30.481 13.647-30.481 30.481v20.321h-20.321c-16.834 0-30.481 13.647-30.481 30.481s13.647 30.481 30.481 30.481zm0-40.642h30.481c5.611 0 10.16-4.549 10.16-10.16v-30.481c0-5.611 4.549-10.16 10.16-10.16s10.16 4.549 10.16 10.16v30.481c0 5.611 4.549 10.16 10.16 10.16h30.481c5.611 0 10.16 4.549 10.16 10.16s-4.549 10.16-10.16 10.16h-30.481c-5.611 0-10.16 4.549-10.16 10.16v30.481c0 5.611-4.549 10.16-10.16 10.16s-10.16-4.549-10.16-10.16v-30.481c0-5.611-4.549-10.16-10.16-10.16h-30.481c-5.611 0-10.16-4.549-10.16-10.16-.001-5.611 4.548-10.16 10.16-10.16z"/>
         </g>
      </svg>
   </symbol>

   <!-- mouse -->
   <symbol id="mouse" viewBox="-105 0 512 512.00002">
      <svg>
         <g>
            <path d="m150.601562 0c-83.042968 0-150.601562 67.558594-150.601562 150.601562v210.796876c0 83.042968 67.558594 150.601562 150.601562 150.601562 83.042969 0 150.601563-67.558594 150.601563-150.601562v-210.796876c0-83.042968-67.558594-150.601562-150.601563-150.601562zm119.882813 361.398438c0 66.101562-53.78125 119.882812-119.882813 119.882812-66.101562 0-119.882812-53.78125-119.882812-119.882812v-210.796876c0-66.101562 53.78125-119.882812 119.882812-119.882812 66.101563 0 119.882813 53.78125 119.882813 119.882812zm0 0"/><path d="m150.605469 101.851562c-8.484375 0-15.359375 6.875-15.359375 15.359376v70.695312c0 8.480469 6.875 15.359375 15.359375 15.359375 8.480469 0 15.359375-6.878906 15.359375-15.359375v-70.695312c0-8.484376-6.875-15.359376-15.359375-15.359376zm0 0"/>
         </g>
      </svg>
   </symbol>

</svg>