<svg width="145" height="23" fill="none" xmlns="http://www.w3.org/2000/svg"><path d="M144.193 5.759c-.019.726-.275 1.03-1.001 1.116-1.327.16-2.658.284-3.958.42-1.264-.128-2.485-.244-3.705-.377-.673-.075-.98-.386-1.011-1.071a24.684 24.684 0 01-.001-2.09c.023-.606.418-1.02 1.015-1.126 2.555-.452 5.11-.407 7.662.018.646.108.984.516 1 1.185a38.61 38.61 0 01-.001 1.925zm-.927-3.749c-2.607-.448-5.218-.491-7.828-.015-.872.16-1.461.688-1.542 1.559-.077.834-.079 1.69.013 2.523.102.919.57 1.37 1.384 1.468 1.309.158 2.624.275 3.97.412 1.383-.15 2.786-.3 4.188-.453.733-.08 1.209-.5 1.294-1.213.095-.796.095-1.606.096-2.41.001-1.029-.559-1.696-1.575-1.87zM32.068.503h-.454v22.27h.454V.504zm24.304 4.565l-5.664 10.724-5.663-10.725h-2.607v12.5h1.47V6.537h.25l5.825 11.028h1.452L57.26 6.538h.25v11.028h1.47V5.067h-2.607v.001zm7.801 8.332l3.148-6.862h1.35l3.148 6.862h-7.646zm2.205-8.333l-5.734 12.5h1.618l1.236-2.697h8.996l1.236 2.696h1.618L69.614 5.067h-3.236zm23.865 11.029h-.49L79.615 5.067H77.01v12.5h1.47V6.537h.418l10.21 11.028h2.607V5.067h-1.47v11.029zm5.562-8.999a.708.708 0 01.674-.672 109.445 109.445 0 0110.319 0 .708.708 0 01.674.672c.018.362.034.724.047 1.087h1.471c-.014-.387-.03-.773-.049-1.16a2.181 2.181 0 00-2.076-2.068 110.758 110.758 0 00-10.454 0 2.179 2.179 0 00-2.075 2.068c-.02.387-.037.773-.05 1.16l.003 1.8a2.179 2.179 0 002.075 2.068h10.484a.706.706 0 01.674.672l-.004 1.726c-.013.363-.029.725-.047 1.086a.705.705 0 01-.674.672 109.543 109.543 0 01-10.319 0 .707.707 0 01-.674-.672 81.314 81.314 0 01-.047-1.086h-1.472c.014.386.031.773.05 1.16a2.18 2.18 0 002.076 2.067 110.757 110.757 0 0010.454 0 2.18 2.18 0 002.076-2.067c.019-.387.035-.774.049-1.16l-.001-1.8a2.18 2.18 0 00-2.075-2.068H96.429a.705.705 0 01-.673-.672l.001-1.726c.014-.363.03-.725.048-1.087zm17.228-2.03h-1.471v12.5h1.471v-12.5zm16.313 10.464a.709.709 0 01-.674.672 116.773 116.773 0 01-10.661 0 .709.709 0 01-.674-.672 84.63 84.63 0 010-8.429.71.71 0 01.674-.672 116.819 116.819 0 0110.661 0 .706.706 0 01.674.672 84.63 84.63 0 010 8.43zm-.607-10.57a118.05 118.05 0 00-10.795 0 2.18 2.18 0 00-2.076 2.068 85.779 85.779 0 000 8.576 2.18 2.18 0 002.076 2.067 117.939 117.939 0 0010.795 0 2.178 2.178 0 002.075-2.067 85.184 85.184 0 000-8.576 2.178 2.178 0 00-2.075-2.068z" fill="#fff"/><path d="M136.482 3.755a.15.15 0 01.1-.044 24.96 24.96 0 012.272 0 .15.15 0 01.144.144l.01.232h.314a20.178 20.178 0 00-.011-.248.464.464 0 00-.442-.44 25.608 25.608 0 00-2.302 0 .464.464 0 00-.442.44c-.031.61-.031 1.22 0 1.828.012.24.203.43.442.441a25.075 25.075 0 002.302 0 .466.466 0 00.443-.441l.01-.247v-.378a.465.465 0 00-.443-.44h-1.719v.315l1.705-.003a.154.154 0 01.1.044.155.155 0 01.044.1l-.001.362-.01.232a.15.15 0 01-.144.143 24.927 24.927 0 01-2.272 0 .15.15 0 01-.144-.143c-.03-.597-.03-1.2 0-1.797a.15.15 0 01.044-.1zm3.7.998V3.734h2.168a.15.15 0 01.143.144v.736a.15.15 0 01-.143.143l-2.168-.004zm2.182.318a.465.465 0 00.443-.441v-.767a.466.466 0 00-.441-.442h-2.497v2.664h.313V5.071h.773l1.492 1.014h.556l-1.49-1.014h.851zM16.083.503l-4.567 8.13a.157.157 0 01-.274 0L6.675.504H.27v22.27l5.424-7.982a.158.158 0 01.26 0l5.425 7.983 5.424-7.983a.158.158 0 01.26 0l5.425 7.983V.503h-6.405z" fill="#fff"/></svg>